<svg width="143" height="24" viewBox="0 0 143 24" fill="none" xmlns="http://www.w3.org/2000/svg">
<path d="M1.10085 4.45455H5.45455L9.14773 13.4602H9.31818L13.0114 4.45455H17.3651V19H13.9418V10.0653H13.821L10.3267 18.9077H8.1392L4.64489 10.0156H4.52415V19H1.10085V4.45455ZM21.6815 23.0909C21.2648 23.0909 20.8718 23.0578 20.5025 22.9915C20.1332 22.9299 19.8159 22.8471 19.5508 22.7429L20.3178 20.2216C20.6587 20.3352 20.9665 20.4015 21.2411 20.4205C21.5205 20.4394 21.7596 20.3944 21.9585 20.2855C22.1621 20.1813 22.3183 19.9943 22.4272 19.7244L22.5621 19.3977L18.6843 8.09091H22.3207L24.3306 15.875H24.4442L26.4826 8.09091H30.1403L26.0281 20.044C25.8292 20.6406 25.5475 21.1662 25.1829 21.6207C24.823 22.08 24.3567 22.4399 23.7837 22.7003C23.2156 22.9607 22.5148 23.0909 21.6815 23.0909Z" fill="white"/>
<path d="M39.3342 8.81534C39.2868 8.29451 39.0761 7.88968 38.7021 7.60085C38.3327 7.30729 37.8048 7.16051 37.1183 7.16051C36.6637 7.16051 36.2849 7.2197 35.9819 7.33807C35.6789 7.45644 35.4516 7.61979 35.3001 7.82812C35.1486 8.03172 35.0704 8.2661 35.0657 8.53125C35.0562 8.74905 35.0988 8.94081 35.1935 9.10653C35.293 9.27225 35.435 9.41903 35.6197 9.54688C35.8091 9.66998 36.0363 9.77888 36.3015 9.87358C36.5666 9.96828 36.8649 10.0511 37.1964 10.1222L38.4464 10.4062C39.1661 10.5625 39.8005 10.7708 40.3498 11.0312C40.9038 11.2917 41.3678 11.6018 41.7418 11.9616C42.1206 12.3215 42.4071 12.7358 42.6012 13.2045C42.7953 13.6733 42.8948 14.1989 42.8995 14.7812C42.8948 15.6998 42.6628 16.4882 42.2035 17.1463C41.7442 17.8045 41.0837 18.3087 40.2219 18.6591C39.3649 19.0095 38.3304 19.1847 37.1183 19.1847C35.9014 19.1847 34.8408 19.0024 33.9364 18.6378C33.0321 18.2732 32.329 17.7192 31.8271 16.9759C31.3252 16.2325 31.0671 15.2926 31.0529 14.1562H34.4194C34.4478 14.625 34.5733 15.0156 34.7958 15.3281C35.0183 15.6406 35.3237 15.8774 35.712 16.0384C36.105 16.1993 36.5595 16.2798 37.0756 16.2798C37.5491 16.2798 37.9516 16.2159 38.283 16.0881C38.6192 15.9602 38.8772 15.7827 39.0572 15.5554C39.2371 15.3281 39.3294 15.0677 39.3342 14.7741C39.3294 14.4995 39.2442 14.2652 39.0785 14.071C38.9128 13.8722 38.6571 13.7017 38.3114 13.5597C37.9705 13.4129 37.5349 13.2779 37.0046 13.1548L35.4847 12.7997C34.2253 12.5109 33.2333 12.0445 32.5089 11.4006C31.7844 10.7519 31.4246 9.87595 31.4293 8.77273C31.4246 7.87311 31.6661 7.08475 32.1538 6.40767C32.6415 5.73059 33.3162 5.20265 34.1779 4.82386C35.0397 4.44508 36.0221 4.25568 37.1254 4.25568C38.2522 4.25568 39.23 4.44744 40.0586 4.83097C40.8919 5.20975 41.5382 5.74242 41.9975 6.42898C42.4568 7.11553 42.6912 7.91098 42.7006 8.81534H39.3342ZM50.8327 8.09091V10.6477H43.9506V8.09091H50.8327ZM45.3924 5.47727H48.8654V15.5696C48.8654 15.7827 48.8986 15.9555 48.9648 16.0881C49.0359 16.2159 49.1377 16.3082 49.2702 16.3651C49.4028 16.4171 49.5614 16.4432 49.7461 16.4432C49.8787 16.4432 50.0183 16.4313 50.1651 16.4077C50.3166 16.3793 50.4303 16.3556 50.506 16.3366L51.0316 18.8438C50.8659 18.8911 50.6315 18.9503 50.3285 19.0213C50.0302 19.0923 49.6727 19.1373 49.256 19.1562C48.4416 19.1941 47.7433 19.0994 47.1609 18.8722C46.5832 18.6402 46.1405 18.2803 45.8327 17.7926C45.5297 17.3049 45.3829 16.6918 45.3924 15.9531V5.47727ZM52.6048 19V8.09091H56.0778V19H52.6048ZM54.3448 6.8196C53.8571 6.8196 53.4381 6.65862 53.0877 6.33665C52.7373 6.00994 52.5621 5.61695 52.5621 5.15767C52.5621 4.70312 52.7373 4.31487 53.0877 3.9929C53.4381 3.66619 53.8571 3.50284 54.3448 3.50284C54.8372 3.50284 55.2563 3.66619 55.6019 3.9929C55.9523 4.31487 56.1275 4.70312 56.1275 5.15767C56.1275 5.61695 55.9523 6.00994 55.6019 6.33665C55.2563 6.65862 54.8372 6.8196 54.3448 6.8196ZM63.3807 19.206C62.2301 19.206 61.2429 18.9692 60.419 18.4957C59.5999 18.0223 58.9702 17.3641 58.5298 16.5213C58.0895 15.6738 57.8693 14.6937 57.8693 13.581C57.8693 12.4635 58.0895 11.4834 58.5298 10.6406C58.9749 9.79309 59.607 9.13258 60.4261 8.65909C61.25 8.18561 62.2325 7.94886 63.3736 7.94886C64.3821 7.94886 65.2604 8.13116 66.0085 8.49574C66.7614 8.86032 67.3485 9.37642 67.7699 10.044C68.196 10.7069 68.4209 11.4858 68.4446 12.3807H65.1989C65.1326 11.822 64.9432 11.384 64.6307 11.0668C64.3229 10.7495 63.9205 10.5909 63.4233 10.5909C63.0208 10.5909 62.6681 10.7045 62.3651 10.9318C62.062 11.1544 61.8253 11.4858 61.6548 11.9261C61.4891 12.3617 61.4062 12.9015 61.4062 13.5455C61.4062 14.1894 61.4891 14.7339 61.6548 15.179C61.8253 15.6193 62.062 15.9531 62.3651 16.1804C62.6681 16.4029 63.0208 16.5142 63.4233 16.5142C63.7453 16.5142 64.0294 16.4455 64.2756 16.3082C64.5265 16.1709 64.7325 15.9697 64.8935 15.7045C65.0545 15.4347 65.1562 15.108 65.1989 14.7244H68.4446C68.4115 15.6241 68.1866 16.41 67.7699 17.0824C67.358 17.7547 66.7779 18.2779 66.0298 18.652C65.2865 19.0213 64.4034 19.206 63.3807 19.206ZM73.354 16.1378L73.3683 11.9972H73.8512L76.9194 8.09091H80.854L76.2944 13.6875H75.3782L73.354 16.1378ZM70.2219 19V4.45455H73.695V19H70.2219ZM76.9975 19L74.1424 14.4688L76.4293 12.0043L81.0103 19H76.9975ZM86.7472 19.206C85.6061 19.206 84.6212 18.9811 83.7926 18.5312C82.9688 18.0767 82.3343 17.4304 81.8892 16.5923C81.4489 15.7495 81.2287 14.7481 81.2287 13.5881C81.2287 12.4612 81.4512 11.4763 81.8963 10.6335C82.3414 9.78598 82.9688 9.12784 83.7784 8.65909C84.5881 8.18561 85.5421 7.94886 86.6406 7.94886C87.4171 7.94886 88.1274 8.0696 88.7713 8.31108C89.4152 8.55256 89.9716 8.91004 90.4403 9.38352C90.9091 9.85701 91.2737 10.4418 91.5341 11.1378C91.7945 11.8291 91.9247 12.6222 91.9247 13.517V14.3835H82.4432V12.3665H88.6932C88.6884 11.9972 88.6009 11.6681 88.4304 11.3793C88.2599 11.0904 88.0256 10.8655 87.7273 10.7045C87.4337 10.5388 87.0952 10.456 86.7116 10.456C86.3234 10.456 85.9754 10.5436 85.6676 10.7188C85.3598 10.8892 85.116 11.1236 84.9361 11.4219C84.7562 11.7154 84.6615 12.0492 84.652 12.4233V14.4759C84.652 14.9209 84.7396 15.3116 84.9148 15.6477C85.09 15.9792 85.3385 16.2372 85.6605 16.4219C85.9825 16.6065 86.366 16.6989 86.8111 16.6989C87.1188 16.6989 87.3982 16.6562 87.6491 16.571C87.9001 16.4858 88.1155 16.3603 88.2955 16.1946C88.4754 16.0289 88.6103 15.8253 88.7003 15.5838L91.8892 15.6761C91.7566 16.3911 91.4654 17.0137 91.0156 17.544C90.5705 18.0696 89.9858 18.4792 89.2614 18.7727C88.5369 19.0616 87.6989 19.206 86.7472 19.206ZM93.6985 19V8.09091H97.0721V10.0795H97.1857C97.3846 9.35985 97.7089 8.82481 98.1587 8.47443C98.6085 8.11932 99.1317 7.94176 99.7283 7.94176C99.8893 7.94176 100.055 7.9536 100.225 7.97727C100.396 7.99621 100.555 8.02699 100.701 8.0696V11.0881C100.536 11.0312 100.318 10.9863 100.048 10.9531C99.7828 10.92 99.546 10.9034 99.3377 10.9034C98.9258 10.9034 98.5541 10.9957 98.2227 11.1804C97.896 11.3603 97.6379 11.6136 97.4485 11.9403C97.2638 12.2623 97.1715 12.6411 97.1715 13.0767V19H93.6985Z" fill="#6345EE"/>
<rect x="108" y="4.5" width="35" height="15" rx="2" fill="#97FF57"/>
<path d="M112.661 16.5V7.77273H114.744V11.0753H114.787C114.872 10.8764 114.993 10.6847 115.149 10.5C115.308 10.3153 115.51 10.1648 115.754 10.0483C116.001 9.92898 116.297 9.86932 116.641 9.86932C117.095 9.86932 117.52 9.98864 117.915 10.2273C118.312 10.4659 118.634 10.8338 118.878 11.331C119.122 11.8281 119.244 12.4616 119.244 13.2315C119.244 13.973 119.126 14.5938 118.891 15.0938C118.658 15.5938 118.342 15.9688 117.945 16.2188C117.55 16.4688 117.111 16.5938 116.628 16.5938C116.298 16.5938 116.013 16.5398 115.771 16.4318C115.53 16.3239 115.327 16.1818 115.162 16.0057C115 15.8295 114.875 15.6406 114.787 15.4389H114.723V16.5H112.661ZM114.702 13.2273C114.702 13.5795 114.749 13.8864 114.842 14.1477C114.939 14.4091 115.077 14.6122 115.256 14.7571C115.438 14.8991 115.655 14.9702 115.908 14.9702C116.163 14.9702 116.381 14.8991 116.56 14.7571C116.739 14.6122 116.874 14.4091 116.964 14.1477C117.058 13.8864 117.105 13.5795 117.105 13.2273C117.105 12.875 117.058 12.5696 116.964 12.3111C116.874 12.0526 116.739 11.8523 116.56 11.7102C116.384 11.5682 116.166 11.4972 115.908 11.4972C115.652 11.4972 115.435 11.5668 115.256 11.706C115.077 11.8452 114.939 12.044 114.842 12.3026C114.749 12.5611 114.702 12.8693 114.702 13.2273ZM123.396 16.6236C122.711 16.6236 122.12 16.4886 121.623 16.2188C121.129 15.946 120.748 15.5582 120.481 15.0554C120.217 14.5497 120.085 13.9489 120.085 13.2528C120.085 12.5767 120.218 11.9858 120.485 11.4801C120.752 10.9716 121.129 10.5767 121.615 10.2955C122.1 10.0114 122.673 9.86932 123.332 9.86932C123.798 9.86932 124.224 9.94176 124.61 10.0866C124.997 10.2315 125.331 10.446 125.612 10.7301C125.893 11.0142 126.112 11.3651 126.268 11.7827C126.424 12.1974 126.502 12.6733 126.502 13.2102V13.7301H120.814V12.5199H124.564C124.561 12.2983 124.508 12.1009 124.406 11.9276C124.304 11.7543 124.163 11.6193 123.984 11.5227C123.808 11.4233 123.605 11.3736 123.375 11.3736C123.142 11.3736 122.933 11.4261 122.748 11.5312C122.564 11.6335 122.417 11.7741 122.309 11.9531C122.201 12.1293 122.145 12.3295 122.139 12.554V13.7855C122.139 14.0526 122.191 14.2869 122.297 14.4886C122.402 14.6875 122.551 14.8423 122.744 14.9531C122.937 15.0639 123.167 15.1193 123.434 15.1193C123.619 15.1193 123.787 15.0937 123.937 15.0426C124.088 14.9915 124.217 14.9162 124.325 14.8168C124.433 14.7173 124.514 14.5952 124.568 14.4503L126.481 14.5057C126.402 14.9347 126.227 15.3082 125.957 15.6264C125.69 15.9418 125.339 16.1875 124.904 16.3636C124.47 16.5369 123.967 16.6236 123.396 16.6236ZM131.261 9.95455V11.4886H127.132V9.95455H131.261ZM127.997 8.38636H130.081V14.4418C130.081 14.5696 130.101 14.6733 130.141 14.7528C130.183 14.8295 130.244 14.8849 130.324 14.919C130.403 14.9503 130.499 14.9659 130.609 14.9659C130.689 14.9659 130.773 14.9588 130.861 14.9446C130.952 14.9276 131.02 14.9134 131.065 14.902L131.381 16.4062C131.281 16.4347 131.141 16.4702 130.959 16.5128C130.78 16.5554 130.565 16.5824 130.315 16.5938C129.827 16.6165 129.408 16.5597 129.058 16.4233C128.712 16.2841 128.446 16.0682 128.261 15.7756C128.08 15.483 127.991 15.1151 127.997 14.6719V8.38636ZM134.17 16.6108C133.752 16.6108 133.381 16.5412 133.058 16.402C132.737 16.2599 132.482 16.0469 132.295 15.7628C132.11 15.4759 132.018 15.1165 132.018 14.6847C132.018 14.321 132.082 14.0142 132.21 13.7642C132.337 13.5142 132.513 13.3111 132.738 13.1548C132.962 12.9986 133.221 12.8807 133.513 12.8011C133.806 12.7187 134.119 12.6634 134.451 12.6349C134.823 12.6009 135.123 12.5653 135.35 12.5284C135.577 12.4886 135.742 12.4332 135.844 12.3622C135.95 12.2884 136.002 12.1847 136.002 12.0511V12.0298C136.002 11.8111 135.927 11.642 135.776 11.5227C135.626 11.4034 135.423 11.3438 135.167 11.3438C134.891 11.3438 134.67 11.4034 134.502 11.5227C134.335 11.642 134.228 11.8068 134.183 12.017L132.261 11.9489C132.317 11.5511 132.464 11.196 132.7 10.8835C132.938 10.5682 133.265 10.321 133.68 10.142C134.097 9.96023 134.599 9.86932 135.184 9.86932C135.602 9.86932 135.987 9.91903 136.339 10.0185C136.691 10.1151 136.998 10.2571 137.259 10.4446C137.521 10.6293 137.722 10.8565 137.864 11.1264C138.009 11.3963 138.082 11.7045 138.082 12.0511V16.5H136.121V15.5881H136.07C135.954 15.8097 135.805 15.9972 135.623 16.1506C135.444 16.304 135.232 16.419 134.988 16.4957C134.746 16.5724 134.474 16.6108 134.17 16.6108ZM134.813 15.2472C135.038 15.2472 135.239 15.2017 135.418 15.1108C135.6 15.0199 135.745 14.8949 135.853 14.7358C135.961 14.5739 136.015 14.3864 136.015 14.1733V13.5511C135.955 13.5824 135.883 13.6108 135.798 13.6364C135.715 13.6619 135.624 13.6861 135.525 13.7088C135.425 13.7315 135.323 13.7514 135.218 13.7685C135.113 13.7855 135.012 13.8011 134.915 13.8153C134.719 13.8466 134.552 13.8949 134.413 13.9602C134.276 14.0256 134.171 14.1108 134.097 14.2159C134.026 14.3182 133.991 14.4403 133.991 14.5824C133.991 14.7983 134.067 14.9631 134.221 15.0767C134.377 15.1903 134.575 15.2472 134.813 15.2472Z" fill="#070B24"/>
</svg>
