<svg width="615" height="360" viewBox="0 0 615 360" fill="none" xmlns="http://www.w3.org/2000/svg">
<path d="M14.3821 250.648V214.32L105.469 70.8182H136.79V121.102H118.253L60.831 211.976V213.68H190.27V250.648H14.3821ZM119.105 289V239.568L119.957 223.482V70.8182H163.21V289H119.105ZM426.003 250.648V214.32L517.09 70.8182H548.411V121.102H529.874L472.452 211.976V213.68H601.891V250.648H426.003ZM530.726 289V239.568L531.578 223.482V70.8182H574.831V289H530.726Z" fill="#6345EE"/>
<path d="M14.3821 250.648V214.32L105.469 70.8182H136.79V121.102H118.253L60.831 211.976V213.68H190.27V250.648H14.3821ZM119.105 289V239.568L119.957 223.482V70.8182H163.21V289H119.105ZM426.003 250.648V214.32L517.09 70.8182H548.411V121.102H529.874L472.452 211.976V213.68H601.891V250.648H426.003ZM530.726 289V239.568L531.578 223.482V70.8182H574.831V289H530.726Z" fill="#6345EE"/>
<path d="M14.3821 250.648V214.32L105.469 70.8182H136.79V121.102H118.253L60.831 211.976V213.68H190.27V250.648H14.3821ZM119.105 289V239.568L119.957 223.482V70.8182H163.21V289H119.105ZM426.003 250.648V214.32L517.09 70.8182H548.411V121.102H529.874L472.452 211.976V213.68H601.891V250.648H426.003ZM530.726 289V239.568L531.578 223.482V70.8182H574.831V289H530.726Z" fill="#6345EE"/>
<path d="M307.105 300.42C288.781 300.349 273.014 295.839 259.804 286.89C246.664 277.941 236.544 264.979 229.441 248.005C222.41 231.031 218.93 210.612 219.001 186.748C219.001 162.955 222.517 142.678 229.548 125.917C236.65 109.156 246.771 96.407 259.91 87.6713C273.12 78.8644 284.552 77 284.552 77C284.552 77 315.592 111.783 328.731 120.59C341.941 129.397 367.435 141.5 390.934 145.413C391.871 147.626 395.279 162.955 395.208 186.748C395.208 210.683 391.657 231.137 384.555 248.112C377.524 265.086 367.439 278.048 354.299 286.997C341.16 295.945 325.429 300.42 307.105 300.42ZM307.105 262.174C319.605 262.174 329.583 255.889 337.041 243.318C344.498 230.747 348.191 211.89 348.12 186.748C348.12 170.2 346.416 156.421 343.007 145.413C339.669 134.404 334.91 126.13 328.731 120.59C322.623 115.051 315.414 112.281 307.105 112.281C294.676 112.281 284.733 118.495 277.275 130.924C269.818 143.353 266.054 161.961 265.983 186.748C265.983 203.509 267.652 217.501 270.99 228.722C274.399 239.873 279.193 248.254 285.372 253.864C291.551 259.404 298.795 262.174 307.105 262.174Z" fill="#6345EE"/>
<path d="M284.552 77L390.934 145.413C349.033 158.134 266.989 159.4 284.552 77Z" fill="url(#paint0_linear_954_3437)"/>
<defs>
<linearGradient id="paint0_linear_954_3437" x1="395.21" y1="188.18" x2="219" y2="188.18" gradientUnits="userSpaceOnUse">
<stop stop-color="#30E584"/>
<stop offset="1" stop-color="#97FF57"/>
</linearGradient>
</defs>
</svg>
