<svg width="36" height="39" viewBox="0 0 36 39" fill="none" xmlns="http://www.w3.org/2000/svg">
<path d="M30.2727 14.6058H29.4545V11.3532C29.4545 10.9219 29.2821 10.5083 28.9753 10.2033C28.6684 9.89829 28.2522 9.72695 27.8182 9.72695C27.839 8.5734 27.5428 7.43606 26.9615 6.43738C26.3802 5.4387 25.5358 4.61653 24.5193 4.05937C23.3439 3.40922 21.9988 3.12587 20.6591 3.24623C20.4928 3.26673 20.3241 3.2441 20.1692 3.18055C20.0144 3.117 19.8787 3.01468 19.7755 2.88357C19.0632 1.95627 18.1387 1.21124 17.0786 0.71035C16.0185 0.209456 14.8534 -0.0328434 13.6802 0.00357446C12.5069 0.0399923 11.3594 0.354077 10.3328 0.919742C9.30622 1.48541 8.43025 2.28633 7.77764 3.25598C6.11762 3.35532 4.55818 4.08 3.4171 5.28233C2.27603 6.48467 1.63919 8.07418 1.63636 9.72695C1.20237 9.72695 0.786157 9.89829 0.47928 10.2033C0.172402 10.5083 0 10.9219 0 11.3532V30.8686C0.00259831 33.0244 0.865443 35.0911 2.39927 36.6155C3.93309 38.1399 6.01266 38.9974 8.18182 39H21.2727C23.4419 38.9974 25.5215 38.1399 27.0553 36.6155C28.5891 35.0911 29.4519 33.0244 29.4545 30.8686H30.2727C31.7917 30.8686 33.2485 30.2689 34.3225 29.2015C35.3966 28.134 36 26.6862 36 25.1766V20.2978C36 18.7882 35.3966 17.3404 34.3225 16.2729C33.2485 15.2055 31.7917 14.6058 30.2727 14.6058ZM8.18182 6.47439C8.27593 6.47745 8.36958 6.48888 8.46164 6.50854C8.81428 6.56553 9.17601 6.50625 9.49157 6.33975C9.80714 6.17325 10.0592 5.90868 10.2093 5.58644C10.5085 4.95521 10.9661 4.41113 11.5381 4.00654C12.1101 3.60195 12.7772 3.35048 13.4753 3.27631C14.1734 3.20215 14.879 3.30778 15.5241 3.58306C16.1692 3.85834 16.7322 4.294 17.1589 4.84811C17.5974 5.427 18.1796 5.88295 18.8484 6.17142C19.5172 6.45988 20.2499 6.57099 20.9749 6.49391C21.6739 6.4392 22.3735 6.59263 22.9844 6.93463C23.4713 7.21962 23.8728 7.62875 24.1472 8.11967C24.4217 8.6106 24.5592 9.1655 24.5455 9.72695H18C16.698 9.72695 15.4494 10.241 14.5287 11.1559C13.6081 12.0709 13.0909 13.3118 13.0909 14.6058V19.4846C13.0909 19.916 12.9185 20.3296 12.6116 20.6346C12.3048 20.9396 11.8885 21.1109 11.4545 21.1109C11.0206 21.1109 10.6043 20.9396 10.2975 20.6346C9.99058 20.3296 9.81818 19.916 9.81818 19.4846V14.6058C9.81818 13.3118 9.30097 12.0709 8.38034 11.1559C7.45971 10.241 6.21106 9.72695 4.90909 9.72695C4.90909 8.86432 5.25389 8.03702 5.86765 7.42705C6.48141 6.81707 7.31384 6.47439 8.18182 6.47439ZM26.1818 30.8686C26.1818 32.1625 25.6646 33.4035 24.744 34.3185C23.8233 35.2334 22.5747 35.7474 21.2727 35.7474H8.18182C6.87985 35.7474 5.6312 35.2334 4.71057 34.3185C3.78993 33.4035 3.27273 32.1625 3.27273 30.8686V12.9795H4.90909C5.34308 12.9795 5.7593 13.1509 6.06617 13.4558C6.37305 13.7608 6.54545 14.1745 6.54545 14.6058V19.4846C6.54545 20.7786 7.06266 22.0195 7.98329 22.9345C8.90393 23.8495 10.1526 24.3635 11.4545 24.3635C12.7565 24.3635 14.0052 23.8495 14.9258 22.9345C15.8464 22.0195 16.3636 20.7786 16.3636 19.4846V14.6058C16.3636 14.1745 16.536 13.7608 16.8429 13.4558C17.1498 13.1509 17.566 12.9795 18 12.9795H26.1818V30.8686ZM32.7273 25.1766C32.7273 25.8236 32.4687 26.4441 32.0084 26.9015C31.548 27.359 30.9237 27.616 30.2727 27.616H29.4545V17.8584H30.2727C30.9237 17.8584 31.548 18.1154 32.0084 18.5728C32.4687 19.0303 32.7273 19.6508 32.7273 20.2978V25.1766Z" fill="white"/>
</svg>
