<svg width="70" height="70" viewBox="0 0 70 70" fill="none" xmlns="http://www.w3.org/2000/svg">
<path d="M28.1505 50.5554C27.4757 50.5574 26.8072 50.4237 26.1839 50.162C25.5605 49.9003 24.9946 49.5159 24.5191 49.031L12.6387 36.9965L16.2701 33.318L28.1505 45.3525L53.7295 19.4443L57.3609 23.1228L31.7844 49.031C31.3084 49.5159 30.7421 49.9004 30.1183 50.1621C29.4945 50.4238 28.8256 50.5575 28.1505 50.5554V50.5554Z" fill="#97FF57"/>
<path d="M35 0C28.0777 0 21.3108 2.05271 15.5551 5.89856C9.79933 9.74441 5.3133 15.2107 2.66423 21.6061C0.015165 28.0015 -0.677952 35.0388 0.672531 41.8282C2.02301 48.6175 5.35644 54.8539 10.2513 59.7487C15.1461 64.6436 21.3825 67.977 28.1719 69.3275C34.9612 70.678 41.9985 69.9848 48.3939 67.3358C54.7893 64.6867 60.2556 60.2007 64.1014 54.445C67.9473 48.6892 70 41.9223 70 35C69.99 25.7205 66.2993 16.8239 59.7377 10.2623C53.1761 3.70075 44.2795 0.0100365 35 0V0ZM35 64.1667C29.2314 64.1667 23.5923 62.4561 18.7959 59.2512C13.9994 56.0463 10.2611 51.4911 8.05353 46.1616C5.84597 40.8321 5.26838 34.9676 6.39378 29.3099C7.51918 23.6521 10.297 18.4551 14.3761 14.3761C18.4551 10.297 23.6521 7.51916 29.3099 6.39376C34.9677 5.26836 40.8321 5.84596 46.1616 8.05351C51.4911 10.2611 56.0463 13.9994 59.2512 18.7959C62.4561 23.5923 64.1667 29.2314 64.1667 35C64.1582 42.7329 61.0825 50.1466 55.6146 55.6146C50.1466 61.0825 42.7329 64.1582 35 64.1667V64.1667Z" fill="#97FF57"/>
</svg>
