<svg width="48" height="48" viewBox="0 0 48 48" fill="none" xmlns="http://www.w3.org/2000/svg">
<g clip-path="url(#clip0_746_4041)">
<path d="M9.99969 28C11.1043 28 11.9997 27.1046 11.9997 26C11.9997 24.8954 11.1043 24 9.99969 24C8.89512 24 7.99969 24.8954 7.99969 26C7.99969 27.1046 8.89512 28 9.99969 28Z" fill="#97FF57"/>
<path d="M2 20.0002C3.10457 20.0002 4 19.1048 4 18.0002C4 16.8957 3.10457 16.0002 2 16.0002C0.89543 16.0002 0 16.8957 0 18.0002C0 19.1048 0.89543 20.0002 2 20.0002Z" fill="#97FF57"/>
<path d="M9.99969 11.9997C11.1043 11.9997 11.9997 11.1043 11.9997 9.99975C11.9997 8.89518 11.1043 7.99976 9.99969 7.99976C8.89512 7.99976 7.99969 8.89518 7.99969 9.99975C7.99969 11.1043 8.89512 11.9997 9.99969 11.9997Z" fill="#97FF57"/>
<path d="M2 4C3.10457 4 4 3.10457 4 2C4 0.89543 3.10457 0 2 0C0.89543 0 0 0.89543 0 2C0 3.10457 0.89543 4 2 4Z" fill="#97FF57"/>
<path d="M45.9997 28C47.1042 28 47.9997 27.1046 47.9997 26C47.9997 24.8954 47.1042 24 45.9997 24C44.8951 24 43.9997 24.8954 43.9997 26C43.9997 27.1046 44.8951 28 45.9997 28Z" fill="#97FF57"/>
<path d="M38 20.0002C39.1046 20.0002 40 19.1048 40 18.0002C40 16.8957 39.1046 16.0002 38 16.0002C36.8954 16.0002 36 16.8957 36 18.0002C36 19.1048 36.8954 20.0002 38 20.0002Z" fill="#97FF57"/>
<path d="M45.9997 11.9997C47.1042 11.9997 47.9997 11.1043 47.9997 9.99975C47.9997 8.89518 47.1042 7.99976 45.9997 7.99976C44.8951 7.99976 43.9997 8.89518 43.9997 9.99975C43.9997 11.1043 44.8951 11.9997 45.9997 11.9997Z" fill="#97FF57"/>
<path d="M38 4C39.1046 4 40 3.10457 40 2C40 0.89543 39.1046 0 38 0C36.8954 0 36 0.89543 36 2C36 3.10457 36.8954 4 38 4Z" fill="#97FF57"/>
<path d="M27.9997 47.9997C29.1043 47.9997 29.9997 47.1043 29.9997 45.9997C29.9997 44.8952 29.1043 43.9998 27.9997 43.9998C26.8951 43.9998 25.9997 44.8952 25.9997 45.9997C25.9997 47.1043 26.8951 47.9997 27.9997 47.9997Z" fill="#97FF57"/>
<path d="M20 40C21.1046 40 22 39.1046 22 38C22 36.8954 21.1046 36 20 36C18.8954 36 18 36.8954 18 38C18 39.1046 18.8954 40 20 40Z" fill="#97FF57"/>
<path d="M27.9997 32.0003C29.1043 32.0003 29.9997 31.1048 29.9997 30.0003C29.9997 28.8957 29.1043 28.0002 27.9997 28.0002C26.8951 28.0002 25.9997 28.8957 25.9997 30.0003C25.9997 31.1048 26.8951 32.0003 27.9997 32.0003Z" fill="#97FF57"/>
<path d="M20 23.9998C21.1046 23.9998 22 23.1043 22 21.9998C22 20.8952 21.1046 19.9998 20 19.9998C18.8954 19.9998 18 20.8952 18 21.9998C18 23.1043 18.8954 23.9998 20 23.9998Z" fill="#97FF57"/>
<path d="M30.0003 6C28.9394 6 27.922 5.57857 27.1719 4.82843C26.4217 4.07828 26.0003 3.06087 26.0003 2C26.0003 1.46957 25.7896 0.960859 25.4145 0.585786C25.0394 0.210714 24.5307 0 24.0003 0C23.4699 0 22.9612 0.210714 22.5861 0.585786C22.211 0.960859 22.0003 1.46957 22.0003 2C22.0003 3.06087 21.5789 4.07828 20.8287 4.82843C20.0786 5.57857 19.0612 6 18.0003 6C17.4699 6 16.9612 6.21071 16.5861 6.58579C16.211 6.96086 16.0003 7.46957 16.0003 8C16.0003 8.53043 16.211 9.03914 16.5861 9.41421C16.9612 9.78929 17.4699 10 18.0003 10C19.0612 10 20.0786 10.4214 20.8287 11.1716C21.5789 11.9217 22.0003 12.9391 22.0003 14C22.0003 14.5304 22.211 15.0391 22.5861 15.4142C22.9612 15.7893 23.4699 16 24.0003 16C24.5307 16 25.0394 15.7893 25.4145 15.4142C25.7896 15.0391 26.0003 14.5304 26.0003 14C26.0003 12.9391 26.4217 11.9217 27.1719 11.1716C27.922 10.4214 28.9394 10 30.0003 10C30.5307 10 31.0394 9.78929 31.4145 9.41421C31.7896 9.03914 32.0003 8.53043 32.0003 8C32.0003 7.46957 31.7896 6.96086 31.4145 6.58579C31.0394 6.21071 30.5307 6 30.0003 6Z" fill="#97FF57"/>
<path d="M14 37.9997C12.9391 37.9997 11.9217 37.5783 11.1716 36.8282C10.4214 36.078 10 35.0606 10 33.9998C10 33.4693 9.78929 32.9606 9.41421 32.5855C9.03914 32.2105 8.53043 31.9998 8 31.9998C7.46957 31.9998 6.96086 32.2105 6.58579 32.5855C6.21071 32.9606 6 33.4693 6 33.9998C6 35.0606 5.57857 36.078 4.82843 36.8282C4.07828 37.5783 3.06087 37.9997 2 37.9997C1.46957 37.9997 0.960859 38.2105 0.585786 38.5855C0.210714 38.9606 0 39.4693 0 39.9997C0 40.5302 0.210714 41.0389 0.585786 41.414C0.960859 41.789 1.46957 41.9997 2 41.9997C3.06087 41.9997 4.07828 42.4212 4.82843 43.1713C5.57857 43.9215 6 44.9389 6 45.9997C6 46.5302 6.21071 47.0389 6.58579 47.4139C6.96086 47.789 7.46957 47.9997 8 47.9997C8.53043 47.9997 9.03914 47.789 9.41421 47.4139C9.78929 47.0389 10 46.5302 10 45.9997C10 44.9389 10.4214 43.9215 11.1716 43.1713C11.9217 42.4212 12.9391 41.9997 14 41.9997C14.5304 41.9997 15.0391 41.789 15.4142 41.414C15.7893 41.0389 16 40.5302 16 39.9997C16 39.4693 15.7893 38.9606 15.4142 38.5855C15.0391 38.2105 14.5304 37.9997 14 37.9997Z" fill="#97FF57"/>
<path d="M45.9997 37.9997C44.9388 37.9997 43.9214 37.5783 43.1712 36.8282C42.4211 36.078 41.9997 35.0606 41.9997 33.9998C41.9997 33.4693 41.789 32.9606 41.4139 32.5855C41.0388 32.2105 40.5301 31.9998 39.9997 31.9998C39.4692 31.9998 38.9605 32.2105 38.5855 32.5855C38.2104 32.9606 37.9997 33.4693 37.9997 33.9998C37.9997 35.0606 37.5783 36.078 36.8281 36.8282C36.078 37.5783 35.0606 37.9997 33.9997 37.9997C33.4693 37.9997 32.9606 38.2105 32.5855 38.5855C32.2104 38.9606 31.9997 39.4693 31.9997 39.9997C31.9997 40.5302 32.2104 41.0389 32.5855 41.414C32.9606 41.789 33.4693 41.9997 33.9997 41.9997C35.0606 41.9997 36.078 42.4212 36.8281 43.1713C37.5783 43.9215 37.9997 44.9389 37.9997 45.9997C37.9997 46.5302 38.2104 47.0389 38.5855 47.4139C38.9605 47.789 39.4692 47.9997 39.9997 47.9997C40.5301 47.9997 41.0388 47.789 41.4139 47.4139C41.789 47.0389 41.9997 46.5302 41.9997 45.9997C41.9997 44.9389 42.4211 43.9215 43.1712 43.1713C43.9214 42.4212 44.9388 41.9997 45.9997 41.9997C46.5301 41.9997 47.0388 41.789 47.4139 41.414C47.789 41.0389 47.9997 40.5302 47.9997 39.9997C47.9997 39.4693 47.789 38.9606 47.4139 38.5855C47.0388 38.2105 46.5301 37.9997 45.9997 37.9997Z" fill="#97FF57"/>
</g>
<defs>
<clipPath id="clip0_746_4041">
<rect width="48" height="48" fill="white"/>
</clipPath>
</defs>
</svg>
