<svg width="24" height="18" viewBox="0 0 24 18" fill="none" xmlns="http://www.w3.org/2000/svg">
<path d="M20.3169 1.90992C18.7869 1.25829 17.147 0.776657 15.432 0.502786C15.4168 0.500017 15.401 0.501802 15.3868 0.507893C15.3726 0.513984 15.3608 0.52408 15.353 0.536784C15.143 0.885261 14.909 1.33951 14.7451 1.69837C12.9262 1.44173 11.0771 1.44173 9.25821 1.69837C9.07555 1.30066 8.86957 0.91286 8.64123 0.536784C8.63349 0.523924 8.62178 0.513599 8.60767 0.507187C8.59355 0.500775 8.5777 0.498581 8.56223 0.500897C6.84828 0.774768 5.20833 1.2564 3.67737 1.90897C3.6642 1.91419 3.65304 1.92309 3.64538 1.93447C0.533465 6.25502 -0.31951 10.4689 0.0994778 14.6298C0.100644 14.64 0.103993 14.6499 0.109322 14.6588C0.114652 14.6677 0.121849 14.6755 0.130477 14.6817C1.94682 15.9306 3.9727 16.882 6.1233 17.496C6.1383 17.5004 6.15433 17.5003 6.16932 17.496C6.1843 17.4916 6.19754 17.483 6.2073 17.4714C6.67008 16.8869 7.08017 16.2668 7.43327 15.6176C7.43817 15.6088 7.44099 15.599 7.44155 15.589C7.4421 15.579 7.44038 15.569 7.43649 15.5597C7.43261 15.5504 7.42665 15.542 7.41901 15.535C7.41138 15.5281 7.40226 15.5227 7.39227 15.5194C6.74629 15.2897 6.12039 15.0124 5.52032 14.6902C5.50954 14.6844 5.50045 14.6762 5.49388 14.6662C5.4873 14.6563 5.48345 14.645 5.48266 14.6333C5.48186 14.6216 5.48416 14.6098 5.48934 14.5992C5.49451 14.5885 5.50241 14.5793 5.51232 14.5722C5.63832 14.4844 5.76431 14.3928 5.88431 14.3012C5.89511 14.2929 5.90812 14.2877 5.92189 14.286C5.93566 14.2843 5.94966 14.2863 5.96231 14.2917C9.88919 15.9576 14.1421 15.9576 18.023 14.2917C18.0356 14.286 18.0498 14.2838 18.0637 14.2853C18.0777 14.2868 18.091 14.2919 18.102 14.3002C18.222 14.3928 18.347 14.4844 18.4739 14.5722C18.484 14.5791 18.492 14.5883 18.4973 14.5988C18.5027 14.6094 18.5052 14.621 18.5046 14.6327C18.504 14.6444 18.5003 14.6558 18.4939 14.6658C18.4875 14.6759 18.4786 14.6843 18.4679 14.6902C17.87 15.0151 17.248 15.2899 16.595 15.5185C16.585 15.5219 16.5758 15.5273 16.5682 15.5344C16.5606 15.5414 16.5546 15.5499 16.5507 15.5593C16.5469 15.5687 16.5451 15.5787 16.5457 15.5888C16.5463 15.5988 16.5491 15.6087 16.554 15.6176C16.914 16.2664 17.326 16.884 17.779 17.4705C17.7884 17.4825 17.8015 17.4915 17.8165 17.4963C17.8316 17.501 17.8478 17.5012 17.863 17.4969C20.0173 16.8846 22.0464 15.9328 23.8648 14.6817C23.8737 14.6759 23.8811 14.6683 23.8866 14.6595C23.8921 14.6507 23.8956 14.6409 23.8968 14.6307C24.3968 9.82006 23.0588 5.64023 20.3479 1.93636C20.3412 1.92432 20.3302 1.91494 20.3169 1.90992ZM8.02025 12.096C6.83828 12.096 5.86331 11.0865 5.86331 9.84839C5.86331 8.60936 6.81928 7.60076 8.02025 7.60076C9.23021 7.60076 10.1962 8.61786 10.1772 9.84839C10.1772 11.0874 9.22121 12.096 8.02025 12.096ZM15.995 12.096C14.8121 12.096 13.8381 11.0865 13.8381 9.84839C13.8381 8.60936 14.7931 7.60076 15.995 7.60076C17.205 7.60076 18.171 8.61786 18.152 9.84839C18.152 11.0874 17.206 12.096 15.995 12.096Z" fill="white"/>
</svg>
