<svg width="41" height="41" viewBox="0 0 41 41" fill="none" xmlns="http://www.w3.org/2000/svg">
<g clip-path="url(#clip0_809_2116)">
<path d="M10.2022 38.0689C9.82875 38.0688 9.46566 37.9463 9.16845 37.7203C8.87125 37.4942 8.6563 37.177 8.55651 36.8171C8.45671 36.4573 8.47757 36.0747 8.61589 35.7278C8.7542 35.381 9.00236 35.089 9.32238 34.8965C15.375 31.2612 15.375 23.4541 15.375 18.7904C15.375 17.4311 15.915 16.1276 16.8761 15.1665C17.8372 14.2053 19.1408 13.6654 20.5 13.6654C21.8592 13.6654 23.1628 14.2053 24.1239 15.1665C25.085 16.1276 25.625 17.4311 25.625 18.7904C25.625 19.2435 25.445 19.678 25.1246 19.9984C24.8043 20.3187 24.3697 20.4987 23.9167 20.4987C23.4636 20.4987 23.0291 20.3187 22.7087 19.9984C22.3883 19.678 22.2083 19.2435 22.2083 18.7904C22.2083 18.3373 22.0284 17.9028 21.708 17.5824C21.3876 17.262 20.9531 17.0821 20.5 17.0821C20.0469 17.0821 19.6124 17.262 19.292 17.5824C18.9717 17.9028 18.7917 18.3373 18.7917 18.7904C18.7917 23.8248 18.7917 33.1985 11.0803 37.8263C10.8149 37.9852 10.5114 38.069 10.2022 38.0689ZM18.6806 40.4965C22.579 36.5673 24.8563 31.0426 25.4473 24.0606C25.4673 23.8366 25.4428 23.6109 25.3753 23.3964C25.3078 23.1819 25.1986 22.9829 25.054 22.8107C24.9095 22.6385 24.7323 22.4965 24.5327 22.3929C24.3331 22.2893 24.1151 22.2262 23.891 22.2071C23.6669 22.1841 23.4404 22.2064 23.225 22.2728C23.0097 22.3392 22.8099 22.4483 22.6376 22.5935C22.4653 22.7387 22.3239 22.9171 22.222 23.1181C22.1201 23.3191 22.0597 23.5385 22.0443 23.7633C21.513 30.0107 19.6202 34.6967 16.2565 38.0809C15.9371 38.4023 15.7584 38.8375 15.7599 39.2907C15.7613 39.7439 15.9427 40.1779 16.2642 40.4973C16.5856 40.8167 17.0208 40.9954 17.474 40.9939C17.9272 40.9925 18.3612 40.8111 18.6806 40.4896V40.4965ZM27.564 40.1787C28.6002 38.4569 29.4632 36.6366 30.1401 34.7445C30.2816 34.3213 30.252 33.8596 30.0575 33.458C29.863 33.0564 29.519 32.7469 29.0993 32.5956C28.6795 32.4443 28.2172 32.4632 27.8112 32.6483C27.4052 32.8335 27.0878 33.1701 26.9268 33.5863C26.3253 35.264 25.5596 36.8782 24.641 38.4055C24.5246 38.5974 24.4471 38.8104 24.413 39.0322C24.3788 39.2541 24.3887 39.4805 24.4421 39.6986C24.4955 39.9166 24.5913 40.122 24.7241 40.303C24.8568 40.484 25.0239 40.6371 25.2159 40.7536C25.6035 40.9887 26.0686 41.0603 26.509 40.9525C26.727 40.8991 26.9324 40.8033 27.1134 40.6705C27.2944 40.5378 27.4475 40.3706 27.564 40.1787ZM31.6042 29.3667C32.2371 25.8781 32.5232 22.3354 32.4583 18.7904C32.4567 16.3702 31.7208 14.0074 30.3478 12.0144C28.9748 10.0213 27.0294 8.49177 24.7686 7.62786C22.5079 6.76395 20.0382 6.60634 17.686 7.17586C15.3337 7.74539 13.2097 9.01523 11.5945 10.8176C11.4372 10.9833 11.3147 11.1789 11.2343 11.3928C11.1539 11.6067 11.1173 11.8345 11.1265 12.0628C11.1358 12.2911 11.1907 12.5152 11.2881 12.7219C11.3855 12.9286 11.5233 13.1136 11.6935 13.2661C11.8637 13.4186 12.0627 13.5353 12.2788 13.6095C12.495 13.6837 12.7238 13.7138 12.9517 13.698C13.1796 13.6821 13.4021 13.6208 13.6059 13.5175C13.8097 13.4142 13.9907 13.271 14.1382 13.0965C15.2918 11.8089 16.8089 10.9016 18.4891 10.4947C20.1693 10.0877 21.9335 10.2001 23.5484 10.8171C25.1634 11.4341 26.5531 12.5266 27.5339 13.9502C28.5147 15.3738 29.0405 17.0616 29.0417 18.7904C29.1047 22.1162 28.8403 25.4401 28.2524 28.7141C28.1662 29.1585 28.2598 29.619 28.5129 29.9945C28.7659 30.3699 29.1577 30.6295 29.602 30.7163C29.7106 30.738 29.821 30.7488 29.9317 30.7487C30.3274 30.7477 30.7105 30.6093 31.0155 30.3573C31.3205 30.1052 31.5286 29.7551 31.6042 29.3667ZM11.9583 18.7904C11.9578 18.3136 11.9973 17.8376 12.0762 17.3673C12.1272 17.141 12.1316 16.9066 12.089 16.6785C12.0465 16.4503 11.9579 16.2333 11.8286 16.0406C11.6994 15.8478 11.5323 15.6834 11.3375 15.5574C11.1426 15.4314 10.9241 15.3463 10.6954 15.3075C10.4666 15.2687 10.2323 15.2769 10.0068 15.3317C9.78129 15.3864 9.56929 15.4865 9.38375 15.6258C9.1982 15.7652 9.04299 15.9409 8.92758 16.1422C8.81218 16.3435 8.73899 16.5662 8.7125 16.7968C8.59973 17.4553 8.54258 18.1222 8.54167 18.7904C8.54167 26.7256 6.24225 30.7487 1.70833 30.7487C1.25526 30.7487 0.820734 30.9287 0.500359 31.2491C0.179985 31.5695 0 32.004 0 32.4571C0 32.9101 0.179985 33.3447 0.500359 33.665C0.820734 33.9854 1.25526 34.1654 1.70833 34.1654C8.31788 34.1654 11.9583 28.6987 11.9583 18.7904ZM35.3625 39.9976C38.1739 33.2909 39.5138 26.0591 39.2917 18.7904C39.2996 15.9527 38.6567 13.151 37.4125 10.6006C37.3144 10.3987 37.1774 10.2181 37.0095 10.0691C36.8415 9.92017 36.6459 9.80573 36.4337 9.73236C36.2215 9.65899 35.997 9.62813 35.7729 9.64155C35.5488 9.65496 35.3295 9.71238 35.1276 9.81053C34.9257 9.90868 34.7451 10.0456 34.5961 10.2136C34.4471 10.3815 34.3327 10.5772 34.2593 10.7893C34.186 11.0015 34.1551 11.2261 34.1685 11.4502C34.1819 11.6743 34.2394 11.8935 34.3375 12.0954C35.354 14.1806 35.8799 16.4707 35.875 18.7904C36.09 25.5704 34.8559 32.3182 32.255 38.5831C32.1624 38.7877 32.1111 39.0085 32.1039 39.233C32.0967 39.4574 32.1339 39.6811 32.2132 39.8911C32.2925 40.1012 32.4125 40.2936 32.5662 40.4573C32.72 40.6209 32.9045 40.7527 33.1092 40.845C33.3305 40.9467 33.5712 40.9992 33.8148 40.9987C34.1415 40.9973 34.4609 40.9023 34.7352 40.7248C35.0096 40.5474 35.2273 40.295 35.3625 39.9976ZM5.125 23.9154V18.7904C5.12952 14.7141 6.75084 10.806 9.63323 7.92361C12.5156 5.04122 16.4237 3.4199 20.5 3.41538C23.8285 3.40429 27.0689 4.48442 29.725 6.49038C30.0875 6.76223 30.5431 6.87895 30.9916 6.81488C31.4401 6.7508 31.8448 6.51118 32.1167 6.14871C32.3885 5.78625 32.5052 5.33064 32.4412 4.88212C32.3771 4.4336 32.1375 4.02889 31.775 3.75705C28.5281 1.30631 24.568 -0.0137327 20.5 -0.00128607C15.5179 0.0045914 10.7416 1.98631 7.21878 5.50916C3.69593 9.03201 1.71421 13.8083 1.70833 18.7904V23.9154C1.70833 24.3685 1.88832 24.803 2.20869 25.1234C2.52907 25.4437 2.96359 25.6237 3.41667 25.6237C3.86975 25.6237 4.30427 25.4437 4.62464 25.1234C4.94502 24.803 5.125 24.3685 5.125 23.9154Z" fill="url(#paint0_linear_809_2116)"/>
</g>
<defs>
<linearGradient id="paint0_linear_809_2116" x1="39.3154" y1="20.4029" x2="-1.01505e-07" y2="20.4029" gradientUnits="userSpaceOnUse">
<stop stop-color="#30E584"/>
<stop offset="1" stop-color="#97FF57"/>
</linearGradient>
<clipPath id="clip0_809_2116">
<rect width="41" height="41" fill="white"/>
</clipPath>
</defs>
</svg>
