<svg width="61" height="54" viewBox="0 0 61 54" fill="none" xmlns="http://www.w3.org/2000/svg">
<path d="M54.5067 5.94964H44.9074L39.3659 0H21.197L15.6555 5.94964H6.0563C2.72533 5.94964 0 8.62697 0 11.8993V47.5971C0 50.8694 2.72533 53.5467 6.0563 53.5467H54.5067C57.8376 53.5467 60.563 50.8694 60.563 47.5971V11.8993C60.563 8.62697 57.8376 5.94964 54.5067 5.94964ZM54.5067 47.5971H6.0563V11.8993H18.3203L23.8618 5.94964H36.7012L42.2427 11.8993H54.5067V47.5971Z" fill="#F8F8F8"/>
<path d="M30.2815 29.7482C33.6263 29.7482 36.3377 27.0845 36.3377 23.7986C36.3377 20.5127 33.6263 17.8489 30.2815 17.8489C26.9367 17.8489 24.2252 20.5127 24.2252 23.7986C24.2252 27.0845 26.9367 29.7482 30.2815 29.7482Z" fill="#F8F8F8"/>
<path d="M38.6997 34.4484C36.0445 33.31 33.1786 32.7224 30.2815 32.7224C27.3844 32.7224 24.5185 33.31 21.8632 34.4484C20.7662 34.9091 19.8311 35.6763 19.1743 36.6548C18.5175 37.6332 18.1678 38.7797 18.1689 39.9518V41.6475H42.3941V39.9518C42.3941 37.5422 40.9406 35.4003 38.6997 34.4484Z" fill="#F8F8F8"/>
</svg>
