<svg width="22" height="22" viewBox="0 0 22 22" fill="none" xmlns="http://www.w3.org/2000/svg">
<g clip-path="url(#clip0_919_5003)">
<path d="M21.1943 8.31318L14.2413 1.35934C13.3808 0.501334 12.2152 0.0195198 11 0.0195198C9.78482 0.0195198 8.61921 0.501334 7.75868 1.35934L0.805761 8.31318C0.549484 8.56781 0.3463 8.87078 0.207987 9.20453C0.0696733 9.53828 -0.00101787 9.89616 1.10729e-05 10.2574V19.2563C1.10729e-05 19.9857 0.289742 20.6852 0.805467 21.2009C1.32119 21.7166 2.02067 22.0063 2.75001 22.0063H19.25C19.9794 22.0063 20.6788 21.7166 21.1946 21.2009C21.7103 20.6852 22 19.9857 22 19.2563V10.2574C22.001 9.89616 21.9303 9.53828 21.792 9.20453C21.6537 8.87078 21.4505 8.56781 21.1943 8.31318ZM13.75 20.173H8.25001V16.5668C8.25001 15.8375 8.53974 15.138 9.05547 14.6223C9.57119 14.1066 10.2707 13.8168 11 13.8168C11.7294 13.8168 12.4288 14.1066 12.9446 14.6223C13.4603 15.138 13.75 15.8375 13.75 16.5668V20.173ZM20.1667 19.2563C20.1667 19.4995 20.0701 19.7326 19.8982 19.9045C19.7263 20.0764 19.4931 20.173 19.25 20.173H15.5833V16.5668C15.5833 15.3513 15.1005 14.1855 14.2409 13.3259C13.3814 12.4664 12.2156 11.9835 11 11.9835C9.78444 11.9835 8.61865 12.4664 7.75911 13.3259C6.89956 14.1855 6.41668 15.3513 6.41668 16.5668V20.173H2.75001C2.5069 20.173 2.27374 20.0764 2.10183 19.9045C1.92992 19.7326 1.83334 19.4995 1.83334 19.2563V10.2574C1.83419 10.0145 1.93068 9.78166 2.10193 9.60934L9.05485 2.65826C9.57157 2.14395 10.271 1.85521 11 1.85521C11.7291 1.85521 12.4285 2.14395 12.9452 2.65826L19.8981 9.61209C20.0687 9.78374 20.1651 10.0154 20.1667 10.2574V19.2563Z" fill="#070B24"/>
</g>
<defs>
<clipPath id="clip0_919_5003">
<rect width="22" height="22" fill="white"/>
</clipPath>
</defs>
</svg>
