<svg width="22" height="22" viewBox="0 0 22 22" fill="none" xmlns="http://www.w3.org/2000/svg">
<path d="M21.9291 6.4934C21.9168 5.56967 21.7436 4.65512 21.4173 3.79066C21.1343 3.0615 20.702 2.39929 20.1481 1.84634C19.5943 1.29339 18.931 0.861865 18.2006 0.579333C17.3458 0.259001 16.4428 0.0857916 15.53 0.0670807C14.3547 0.0146358 13.9821 0 10.9988 0C8.01544 0 7.63305 8.17837e-08 6.46635 0.0670807C5.55395 0.0859291 4.65136 0.259136 3.79698 0.579333C3.06649 0.861668 2.40307 1.29312 1.84917 1.8461C1.29528 2.39907 0.863103 3.06139 0.580298 3.79066C0.25879 4.64336 0.085668 5.54465 0.068414 6.45559C0.0158818 7.63012 0 8.00211 0 10.9805C0 13.9589 -9.10222e-09 14.3394 0.068414 15.5054C0.0867392 16.4177 0.258996 17.3178 0.580298 18.1727C0.863578 18.9018 1.29607 19.5639 1.85016 20.1166C2.40424 20.6693 3.06771 21.1006 3.7982 21.3829C4.65024 21.7161 5.55299 21.9017 6.46757 21.9317C7.64405 21.9841 8.01666 22 11 22C13.9833 22 14.3657 22 15.5324 21.9317C16.4452 21.9138 17.3483 21.7409 18.203 21.4207C18.9332 21.1378 19.5964 20.7062 20.1502 20.1533C20.704 19.6004 21.1364 18.9383 21.4197 18.2093C21.741 17.3556 21.9133 16.4555 21.9316 15.542C21.9841 14.3687 22 13.9967 22 11.0171C21.9976 8.0387 21.9976 7.66061 21.9291 6.4934ZM10.9914 16.6128C7.87128 16.6128 5.34363 14.0894 5.34363 10.9744C5.34363 7.85941 7.87128 5.33596 10.9914 5.33596C12.4893 5.33596 13.9259 5.93001 14.9851 6.98742C16.0442 8.04483 16.6393 9.47898 16.6393 10.9744C16.6393 12.4698 16.0442 13.9039 14.9851 14.9614C13.9259 16.0188 12.4893 16.6128 10.9914 16.6128ZM16.8641 6.44218C16.6911 6.44234 16.5197 6.40844 16.3599 6.34242C16.2 6.27641 16.0548 6.17957 15.9325 6.05745C15.8101 5.93533 15.7131 5.79032 15.647 5.63073C15.5809 5.47114 15.5469 5.3001 15.5471 5.1274C15.5471 4.95482 15.5811 4.78393 15.6473 4.62449C15.7134 4.46504 15.8104 4.32017 15.9326 4.19814C16.0549 4.07611 16.2 3.97931 16.3597 3.91326C16.5194 3.84722 16.6906 3.81323 16.8635 3.81323C17.0363 3.81323 17.2075 3.84722 17.3672 3.91326C17.5269 3.97931 17.672 4.07611 17.7943 4.19814C17.9165 4.32017 18.0135 4.46504 18.0796 4.62449C18.1458 4.78393 18.1798 4.95482 18.1798 5.1274C18.1798 5.85431 17.591 6.44218 16.8641 6.44218Z" fill="white"/>
</svg>
