<svg width="13" height="13" viewBox="0 0 13 13" fill="none" xmlns="http://www.w3.org/2000/svg">
<g clip-path="url(#clip0_1256_3715)">
<path d="M7.42253 9.13347L5.79153 10.7645C5.31799 11.2253 4.68203 11.4813 4.02125 11.4768C3.36047 11.4724 2.728 11.208 2.26068 10.7408C1.79336 10.2736 1.52877 9.64123 1.52416 8.98045C1.51954 8.31967 1.77528 7.68364 2.23603 7.20997L3.86703 5.57748C3.96078 5.48366 4.01342 5.35644 4.01338 5.2238C4.01333 5.09117 3.9606 4.96398 3.86678 4.87023C3.77296 4.77647 3.64573 4.72383 3.5131 4.72388C3.38046 4.72392 3.25328 4.77666 3.15953 4.87048L1.52903 6.50297C0.870162 7.16217 0.500147 8.0561 0.500382 8.9881C0.500616 9.92011 0.87108 10.8139 1.53028 11.4727C2.18947 12.1316 3.0834 12.5016 4.01541 12.5014C4.94742 12.5011 5.84116 12.1307 6.50003 11.4715L8.13103 9.84047C8.22211 9.74617 8.2725 9.61987 8.27136 9.48877C8.27022 9.35767 8.21764 9.23226 8.12494 9.13956C8.03223 9.04686 7.90683 8.99427 7.77573 8.99313C7.64463 8.99199 7.51833 9.04239 7.42403 9.13347H7.42253Z" fill="#97FF57"/>
<path d="M11.4721 1.5307C11.1467 1.2031 10.7596 0.943335 10.3331 0.766443C9.9066 0.589552 9.44926 0.499055 8.98755 0.500195C8.52609 0.49897 8.06895 0.589234 7.64259 0.765771C7.21622 0.942308 6.82908 1.20161 6.50355 1.5287L4.87005 3.1602C4.77623 3.25395 4.7235 3.38113 4.72345 3.51377C4.7234 3.6464 4.77605 3.77363 4.8698 3.86745C4.96356 3.96127 5.09074 4.014 5.22337 4.01405C5.35601 4.01409 5.48323 3.96145 5.57705 3.8677L7.20955 2.2367C7.44233 2.00252 7.71924 1.81685 8.02427 1.69043C8.32929 1.564 8.65637 1.49935 8.98655 1.5002C9.48368 1.50036 9.96961 1.64791 10.3829 1.9242C10.7962 2.20048 11.1183 2.59309 11.3085 3.05241C11.4987 3.51172 11.5484 4.01711 11.4514 4.50468C11.3544 4.99226 11.115 5.44014 10.7636 5.7917L9.13255 7.4227C9.03873 7.51652 8.98602 7.64376 8.98602 7.77645C8.98602 7.90913 9.03873 8.03638 9.13255 8.1302C9.22637 8.22402 9.35362 8.27672 9.4863 8.27672C9.61898 8.27672 9.74623 8.22402 9.84005 8.1302L11.4711 6.5002C12.1291 5.84074 12.4987 4.94725 12.4989 4.01565C12.4991 3.08406 12.1298 2.19041 11.4721 1.5307Z" fill="#97FF57"/>
<path d="M7.6466 4.64658L4.6466 7.64658C4.59885 7.6927 4.56076 7.74787 4.53455 7.80887C4.50835 7.86987 4.49455 7.93548 4.49398 8.00187C4.4934 8.06826 4.50605 8.1341 4.53119 8.19555C4.55633 8.257 4.59346 8.31282 4.6404 8.35977C4.68735 8.40672 4.74318 8.44384 4.80462 8.46898C4.86607 8.49412 4.93191 8.50678 4.9983 8.5062C5.06469 8.50562 5.1303 8.49183 5.1913 8.46562C5.25231 8.43942 5.30748 8.40133 5.3536 8.35357L8.3536 5.35358C8.44468 5.25928 8.49508 5.13298 8.49394 5.00188C8.4928 4.87078 8.44022 4.74538 8.34751 4.65267C8.25481 4.55997 8.1294 4.50738 7.9983 4.50624C7.8672 4.50511 7.7409 4.5555 7.6466 4.64658Z" fill="#97FF57"/>
</g>
<defs>
<clipPath id="clip0_1256_3715">
<rect width="12" height="12" fill="white" transform="translate(0.5 0.5)"/>
</clipPath>
</defs>
</svg>
