<svg width="41" height="41" viewBox="0 0 41 41" fill="none" xmlns="http://www.w3.org/2000/svg">
<path d="M20.5 0C16.4455 0 12.482 1.2023 9.11082 3.45487C5.73961 5.70744 3.11207 8.9091 1.56048 12.655C0.00888245 16.4009 -0.397086 20.5227 0.393911 24.4993C1.18491 28.476 3.13734 32.1287 6.00432 34.9957C8.87129 37.8627 12.524 39.8151 16.5007 40.6061C20.4773 41.3971 24.5991 40.9911 28.345 39.4395C32.0909 37.8879 35.2926 35.2604 37.5451 31.8892C39.7977 28.518 41 24.5545 41 20.5C40.9941 15.0649 38.8324 9.85402 34.9892 6.0108C31.146 2.16758 25.9351 0.00587851 20.5 0V0ZM37.5833 20.5C37.5812 21.5896 37.4748 22.6765 37.2656 23.7458L33.9651 22.755C34.2339 21.2637 34.2339 19.7363 33.9651 18.245L37.2656 17.2542C37.4748 18.3235 37.5812 19.4104 37.5833 20.5ZM36.285 13.981L32.9879 14.9701C31.6064 11.8718 29.1282 9.39358 26.0299 8.01208L27.019 4.715C31.2104 6.45837 34.5416 9.78958 36.285 13.981ZM20.5 30.75C18.4727 30.75 16.491 30.1488 14.8054 29.0226C13.1198 27.8963 11.806 26.2954 11.0302 24.4225C10.2544 22.5496 10.0515 20.4886 10.447 18.5003C10.8425 16.512 11.8187 14.6856 13.2522 13.2522C14.6856 11.8187 16.512 10.8424 18.5003 10.4469C20.4886 10.0515 22.5496 10.2544 24.4225 11.0302C26.2955 11.806 27.8963 13.1198 29.0226 14.8054C30.1488 16.491 30.75 18.4727 30.75 20.5C30.7473 23.2176 29.6665 25.8232 27.7449 27.7448C25.8232 29.6665 23.2176 30.7473 20.5 30.75ZM23.7458 3.73442L22.755 7.03492C21.2637 6.76614 19.7363 6.76614 18.245 7.03492L17.2542 3.73442C19.3973 3.31087 21.6027 3.31087 23.7458 3.73442ZM13.981 4.715L14.9701 8.01208C11.8718 9.39358 9.39359 11.8718 8.01209 14.9701L4.71501 13.981C6.45838 9.78958 9.78959 6.45837 13.981 4.715ZM3.41668 20.5C3.41884 19.4104 3.52524 18.3235 3.73443 17.2542L7.03492 18.245C6.76614 19.7363 6.76614 21.2637 7.03492 22.755L3.73443 23.7458C3.52524 22.6765 3.41884 21.5896 3.41668 20.5ZM4.71501 27.019L8.01209 26.0299C9.39359 29.1282 11.8718 31.6064 14.9701 32.9879L13.981 36.285C9.78959 34.5416 6.45838 31.2104 4.71501 27.019ZM17.2542 37.269L18.245 33.9685C19.7363 34.2373 21.2637 34.2373 22.755 33.9685L23.7458 37.269C21.6027 37.6925 19.3973 37.6925 17.2542 37.269ZM27.019 36.2867L26.0299 32.9913C29.1282 31.6098 31.6064 29.1316 32.9879 26.0333L36.285 27.0224C34.5413 31.2124 31.21 34.5419 27.019 36.2833V36.2867ZM24.9946 18.6072C25.4038 19.1534 25.625 19.8175 25.625 20.5C25.625 21.1825 25.4038 21.8466 24.9946 22.3928L21.7608 26.703C21.6141 26.8988 21.4238 27.0578 21.2049 27.1674C20.9861 27.2769 20.7447 27.3339 20.5 27.3339C20.2553 27.3339 20.0139 27.2769 19.7951 27.1674C19.5763 27.0578 19.3859 26.8988 19.2393 26.703L16.0054 22.3928C15.5962 21.8466 15.375 21.1825 15.375 20.5C15.375 19.8175 15.5962 19.1534 16.0054 18.6072L19.2393 14.297C19.3859 14.1012 19.5763 13.9422 19.7951 13.8326C20.0139 13.7231 20.2553 13.6661 20.5 13.6661C20.7447 13.6661 20.9861 13.7231 21.2049 13.8326C21.4238 13.9422 21.6141 14.1012 21.7608 14.297L24.9946 18.6072Z" fill="white"/>
</svg>
