<svg width="22" height="22" viewBox="0 0 22 22" fill="none" xmlns="http://www.w3.org/2000/svg">
<path d="M11 0C4.92617 0 0 4.92617 0 11C0 17.0738 4.92617 22 11 22C17.0738 22 22 17.0738 22 11C22 4.92617 17.0766 0 11 0ZM5.42667 11.3694L5.47342 11.2952L8.33617 6.81817C8.34575 6.80345 8.35912 6.79158 8.37486 6.78379C8.39061 6.776 8.40815 6.77259 8.42567 6.7739C8.44319 6.77521 8.46003 6.7812 8.47444 6.79125C8.48885 6.80129 8.50029 6.81502 8.50758 6.831C8.98425 7.90258 9.39858 9.23542 9.20425 10.065C9.12358 10.406 8.89717 10.868 8.64142 11.2952C8.60861 11.3577 8.57282 11.4185 8.53417 11.4776C8.52491 11.4908 8.51252 11.5014 8.49812 11.5086C8.48372 11.5158 8.46776 11.5193 8.45167 11.5188H5.51192C5.49437 11.5191 5.47708 11.5146 5.46188 11.5059C5.44667 11.4971 5.43413 11.4844 5.42557 11.469C5.41702 11.4537 5.41278 11.4364 5.41329 11.4188C5.41381 11.4013 5.41906 11.3842 5.4285 11.3694H5.42667ZM18.1812 12.9094C18.1814 12.929 18.1759 12.9482 18.1653 12.9647C18.1547 12.9811 18.1395 12.9941 18.1216 13.002C17.8988 13.0964 17.1408 13.4466 16.8254 13.8838C16.0206 15.004 15.4064 16.6063 14.0314 16.6063H8.29858C7.81455 16.6056 7.3354 16.5095 6.88853 16.3235C6.44165 16.1376 6.0358 15.8653 5.69418 15.5224C5.35255 15.1795 5.08185 14.7727 4.89754 14.3251C4.71322 13.8775 4.61892 13.398 4.62 12.914V12.848C4.62 12.7948 4.664 12.7508 4.719 12.7508H7.91358C7.97775 12.7508 8.02358 12.8086 8.019 12.8718C7.99517 13.079 8.03458 13.2926 8.13358 13.486C8.32242 13.871 8.71658 14.1112 9.141 14.1112H10.7232V12.8764H9.1575C9.13915 12.8762 9.12121 12.871 9.1056 12.8614C9.08999 12.8517 9.0773 12.838 9.06891 12.8217C9.06051 12.8054 9.05673 12.7871 9.05797 12.7688C9.0592 12.7505 9.06541 12.7329 9.07592 12.7178L9.13367 12.6353C9.28033 12.4236 9.49208 12.0982 9.70292 11.726C9.84592 11.4748 9.98525 11.2072 10.0971 10.9377C10.1191 10.89 10.1365 10.8396 10.1567 10.791C10.1869 10.7048 10.2181 10.6242 10.2401 10.5444C10.2617 10.4768 10.2815 10.4086 10.2997 10.34C10.3519 10.1108 10.3739 9.86883 10.3739 9.61858C10.3739 9.51958 10.3703 9.416 10.3611 9.31883C10.3565 9.21158 10.3428 9.10342 10.3299 8.99617C10.3197 8.90021 10.305 8.80477 10.2859 8.71017C10.2612 8.56611 10.2313 8.42302 10.1961 8.28117L10.1833 8.22617C10.1558 8.12717 10.1319 8.03367 10.1007 7.93558C10.0135 7.63437 9.91315 7.33709 9.80008 7.04458C9.76069 6.93456 9.71727 6.82601 9.66992 6.71917C9.60392 6.556 9.53608 6.40842 9.47467 6.27C9.44411 6.2107 9.41537 6.15048 9.3885 6.08942C9.35869 6.02354 9.3272 5.95844 9.29408 5.89417C9.27208 5.84558 9.2455 5.79883 9.22808 5.75483L9.03467 5.39917C9.00808 5.35058 9.05208 5.291 9.10525 5.30658L10.3153 5.63383H10.3244L10.483 5.67967L10.659 5.72917L10.7232 5.74658V5.02883C10.7232 4.68142 11 4.4 11.3456 4.4C11.4272 4.39978 11.508 4.41607 11.5831 4.44789C11.6583 4.47971 11.7262 4.52641 11.7828 4.58517C11.8999 4.70322 11.9657 4.8626 11.9662 5.02883V6.09583L12.0954 6.13158C12.1046 6.13617 12.1156 6.14075 12.1238 6.14717C12.155 6.16917 12.2008 6.204 12.2586 6.248C12.3044 6.28283 12.353 6.32683 12.4098 6.37358C12.5908 6.52106 12.7664 6.67516 12.936 6.83558C13.1322 7.018 13.3522 7.23158 13.563 7.469C13.6226 7.53683 13.6794 7.60283 13.739 7.67617C13.7958 7.74858 13.86 7.81917 13.9132 7.88883C13.9856 7.98417 14.0598 8.08317 14.1286 8.18583C14.1588 8.23442 14.1964 8.28483 14.2248 8.33342C14.3128 8.46358 14.388 8.59742 14.4604 8.73217C14.4916 8.79358 14.5218 8.86142 14.5484 8.92742C14.63 9.108 14.6942 9.29042 14.7336 9.47558C14.7466 9.51488 14.7555 9.55544 14.7602 9.59658V9.60575C14.773 9.658 14.7776 9.71575 14.7822 9.77442C14.808 10.0454 14.7748 10.3187 14.685 10.5756C14.6566 10.6526 14.63 10.7314 14.5952 10.8084C14.5264 10.9643 14.4476 11.1228 14.3532 11.2686C14.322 11.3236 14.2844 11.3804 14.2496 11.4354C14.2102 11.4932 14.168 11.5482 14.1332 11.6004C14.0828 11.6698 14.0299 11.7374 13.9746 11.803C13.926 11.869 13.8774 11.935 13.8224 11.9946C13.7482 12.0844 13.6757 12.1687 13.5978 12.2494C13.5538 12.3026 13.5062 12.3576 13.4548 12.4053C13.4072 12.4602 13.3558 12.5088 13.3118 12.5528C13.2348 12.6298 13.1743 12.6876 13.1212 12.738L12.9956 12.8498C12.9781 12.8674 12.9544 12.8773 12.9296 12.8773H11.9662V14.1112H13.178C13.4484 14.1112 13.706 14.0158 13.915 13.838C13.9856 13.7766 14.2954 13.508 14.663 13.1028C14.675 13.089 14.691 13.0794 14.7088 13.0753L18.0547 12.1064C18.0694 12.1022 18.0848 12.1014 18.0999 12.1041C18.1149 12.1069 18.1291 12.113 18.1414 12.1222C18.1536 12.1313 18.1636 12.1432 18.1705 12.1568C18.1774 12.1705 18.1811 12.1855 18.1812 12.2008V12.9094Z" fill="white"/>
</svg>
