<svg width="41" height="31" viewBox="0 0 41 31" fill="none" xmlns="http://www.w3.org/2000/svg">
<path d="M39.5365 5.97916L38.1921 4.13425C37.2605 2.85595 36.0444 1.81596 34.6417 1.09792C33.2389 0.379872 31.6886 0.00381803 30.1154 0H10.8991C9.35827 0.00405679 7.83894 0.364784 6.45819 1.05438C5.07744 1.74398 3.87212 2.74404 2.93513 3.97749L1.53264 5.82757C0.394049 7.34226 -0.141278 9.23175 0.031962 11.1244C0.205202 13.017 1.07447 14.7757 2.46877 16.0547L16.1179 29.3308C17.3167 30.4088 18.8677 31.0032 20.4739 31C22.1143 30.9967 23.6957 30.3834 24.9154 29.2774L38.4723 16.1287C39.8746 14.8766 40.7615 13.1406 40.9584 11.2623C41.1554 9.38399 40.6481 7.49935 39.5365 5.97916ZM35.4367 6.16348L36.7811 8.01356C36.9162 8.20286 37.035 8.4034 37.1364 8.61302H28.9521C28.8284 7.78811 28.6153 6.97938 28.3166 6.20138L27.2233 3.44521H30.1154C31.1514 3.44718 32.1725 3.69413 33.0966 4.16622C34.0208 4.63831 34.8223 5.32238 35.4367 6.16348ZM20.4774 24.268L15.7472 13.4673C15.5761 13.0105 15.4468 12.5388 15.3611 12.0582H25.5287C25.4571 12.437 25.3565 12.8096 25.2281 13.1728L20.4774 24.268ZM15.5405 8.61302C15.6119 8.30418 15.7015 7.9999 15.8087 7.70176L17.4896 3.44521H23.5437L25.1444 7.48127C25.2849 7.84981 25.3991 8.22803 25.486 8.61302H15.5405ZM5.65128 6.06529C6.26893 5.25282 7.06323 4.5941 7.97303 4.13986C8.88284 3.68563 9.88388 3.44797 10.8991 3.44521H13.8031L12.6364 6.42359C12.3549 7.13027 12.1449 7.8638 12.0095 8.61302H3.83027C3.94743 8.36954 4.08881 8.13867 4.25221 7.92398L5.65128 6.06529ZM4.79715 13.5293C4.3515 13.1217 4.00139 12.6192 3.77218 12.0582H11.9241C12.0373 12.9863 12.2593 13.8976 12.5852 14.7731L17.4144 25.7977L4.79715 13.5293ZM23.5198 25.8632L28.3952 14.4699C28.6782 13.6902 28.8752 12.8814 28.9828 12.0582H37.2355C36.9937 12.6496 36.6243 13.1792 36.1542 13.6086L23.5198 25.8632Z" fill="url(#paint0_linear_809_2115)"/>
<defs>
<linearGradient id="paint0_linear_809_2115" x1="41" y1="15.4265" x2="2.06381e-07" y2="15.4265" gradientUnits="userSpaceOnUse">
<stop stop-color="#4694FF"/>
<stop offset="1" stop-color="#B53BFE"/>
</linearGradient>
</defs>
</svg>
