<svg width="36" height="36" viewBox="0 0 36 36" fill="none" xmlns="http://www.w3.org/2000/svg">
<path d="M34.6791 1.32214C34.1412 0.777816 33.472 0.381398 32.7362 0.171184C32.0004 -0.0390292 31.2228 -0.0559322 30.4785 0.122108L6.47534 5.17723C5.09303 5.36679 3.79109 5.93847 2.71615 6.82789C1.64121 7.71732 0.835967 8.88916 0.391101 10.2115C-0.0537649 11.5337 -0.120583 12.954 0.198171 14.3122C0.516926 15.6704 1.20859 16.9127 2.19528 17.899L4.77262 20.4746C4.91211 20.6141 5.02274 20.7796 5.09816 20.9619C5.17359 21.1441 5.21233 21.3394 5.21218 21.5366V26.2888C5.21549 26.9569 5.36932 27.6158 5.66224 28.2163L5.65023 28.2268L5.68924 28.2658C6.12882 29.1495 6.84677 29.8642 7.73251 30.2999L7.77151 30.3389L7.78202 30.3269C8.38264 30.6197 9.04154 30.7736 9.70977 30.7769H14.4624C14.86 30.7766 15.2415 30.9341 15.523 31.2149L18.0989 33.7904C18.7898 34.4889 19.6121 35.0437 20.5184 35.4229C21.4247 35.8022 22.3971 35.9983 23.3796 36C24.1983 35.999 25.0115 35.8652 25.7874 35.604C27.0977 35.1738 28.2618 34.386 29.1482 33.3295C30.0346 32.273 30.6081 30.9899 30.8041 29.6248L35.8672 5.57174C36.0545 4.82119 36.0435 4.03484 35.8352 3.28983C35.6269 2.54483 35.2285 1.86676 34.6791 1.32214ZM6.8969 18.3566L4.31806 15.781C3.71756 15.195 3.29668 14.4499 3.10483 13.6332C2.91297 12.8164 2.9581 11.9619 3.23491 11.1699C3.50329 10.3573 3.99942 9.63898 4.6643 9.10023C5.32917 8.56147 6.13482 8.22499 6.98541 8.13081L30.75 3.12818L8.20957 25.6692V21.5366C8.21184 20.9461 8.097 20.361 7.87168 19.8152C7.64637 19.2693 7.31505 18.7736 6.8969 18.3566ZM27.8562 29.1118C27.741 29.9404 27.3971 30.7204 26.8632 31.3643C26.3293 32.0083 25.6264 32.4907 24.8335 32.7574C24.0406 33.0242 23.189 33.0646 22.3743 32.8743C21.5597 32.6839 20.8143 32.2703 20.2217 31.6799L17.6413 29.0998C17.2248 28.6811 16.7294 28.3491 16.1838 28.123C15.6381 27.8969 15.053 27.7813 14.4624 27.7828H10.3294L32.8728 5.24924L27.8562 29.1118Z" fill="#97FF57"/>
</svg>
