<svg width="14" height="15" viewBox="0 0 14 15" fill="none" xmlns="http://www.w3.org/2000/svg">
<path d="M6.86732 4.83197C6.38951 4.83197 5.92243 4.97366 5.52515 5.23911C5.12787 5.50457 4.81822 5.88187 4.63537 6.32331C4.45252 6.76475 4.40468 7.25049 4.4979 7.71912C4.59111 8.18775 4.8212 8.61821 5.15906 8.95607C5.49692 9.29393 5.92739 9.52402 6.39601 9.61723C6.86464 9.71045 7.35039 9.66261 7.79182 9.47976C8.23326 9.29691 8.61056 8.98726 8.87602 8.58998C9.14147 8.1927 9.28316 7.72562 9.28316 7.24781C9.28316 6.60709 9.02864 5.99261 8.57558 5.53955C8.12252 5.0865 7.50804 4.83197 6.86732 4.83197ZM6.86732 8.45573C6.62842 8.45573 6.39488 8.38489 6.19624 8.25216C5.99759 8.11943 5.84277 7.93078 5.75135 7.71006C5.65992 7.48934 5.636 7.24647 5.68261 7.01216C5.72922 6.77784 5.84426 6.56261 6.01319 6.39368C6.18212 6.22475 6.39735 6.10971 6.63167 6.0631C6.86598 6.01649 7.10885 6.04041 7.32957 6.13184C7.55029 6.22326 7.73894 6.37809 7.87167 6.57673C8.0044 6.77537 8.07524 7.00891 8.07524 7.24781C8.07524 7.56817 7.94798 7.87541 7.72145 8.10194C7.49492 8.32847 7.18768 8.45573 6.86732 8.45573Z" fill="#6345EE"/>
<path d="M12.4804 8.39505L12.2122 8.24044C12.333 7.58359 12.333 6.91025 12.2122 6.25341L12.4804 6.09879C12.6866 5.97982 12.8674 5.8214 13.0124 5.63257C13.1574 5.44374 13.2637 5.22821 13.3254 4.99827C13.3871 4.76833 13.4029 4.52849 13.3719 4.29244C13.3409 4.0564 13.2637 3.82877 13.1448 3.62255C13.0258 3.41634 12.8674 3.23558 12.6785 3.09059C12.4897 2.9456 12.2742 2.83922 12.0442 2.77753C11.8143 2.71584 11.5745 2.70004 11.3384 2.73104C11.1024 2.76204 10.8747 2.83923 10.6685 2.9582L10.3998 3.11342C9.89216 2.67972 9.30881 2.34352 8.67908 2.12171V1.81188C8.67908 1.33134 8.48819 0.870481 8.14839 0.530688C7.8086 0.190894 7.34774 0 6.8672 0C6.38666 0 5.9258 0.190894 5.58601 0.530688C5.24621 0.870481 5.05532 1.33134 5.05532 1.81188V2.12171C4.42562 2.34431 3.84247 2.68134 3.33524 3.11583L3.06527 2.95941C2.6488 2.71914 2.15394 2.65415 1.68956 2.77874C1.22517 2.90333 0.829301 3.20729 0.589031 3.62376C0.34876 4.04023 0.283772 4.53509 0.408363 4.99947C0.532954 5.46386 0.836918 5.85973 1.25339 6.1L1.52155 6.25461C1.40082 6.91146 1.40082 7.5848 1.52155 8.24164L1.25339 8.39626C0.836918 8.63653 0.532954 9.0324 0.408363 9.49678C0.283772 9.96117 0.34876 10.456 0.589031 10.8725C0.829301 11.289 1.22517 11.5929 1.68956 11.7175C2.15394 11.8421 2.6488 11.7771 3.06527 11.5369L3.33403 11.3816C3.84182 11.8154 4.42538 12.1516 5.05532 12.3733V12.6832C5.05532 13.1637 5.24621 13.6246 5.58601 13.9644C5.9258 14.3042 6.38666 14.495 6.8672 14.495C7.34774 14.495 7.8086 14.3042 8.14839 13.9644C8.48819 13.6246 8.67908 13.1637 8.67908 12.6832V12.3733C9.30878 12.1507 9.89192 11.8137 10.3992 11.3792L10.6691 11.535C11.0856 11.7753 11.5805 11.8403 12.0448 11.7157C12.5092 11.5911 12.9051 11.2872 13.1454 10.8707C13.3856 10.4542 13.4506 9.95936 13.326 9.49497C13.2014 9.03059 12.8975 8.63472 12.481 8.39445L12.4804 8.39505ZM10.9415 6.11449C11.146 6.85559 11.146 7.63825 10.9415 8.37935C10.9058 8.50834 10.9139 8.64553 10.9647 8.76939C11.0154 8.89325 11.1058 8.99675 11.2218 9.06363L11.8764 9.44171C12.0152 9.5218 12.1165 9.65375 12.1581 9.80853C12.1996 9.9633 12.1779 10.1282 12.0978 10.267C12.0177 10.4058 11.8858 10.5071 11.731 10.5486C11.5762 10.5901 11.4113 10.5685 11.2725 10.4884L10.6166 10.1091C10.5006 10.0419 10.3655 10.0152 10.2326 10.0333C10.0998 10.0513 9.97667 10.113 9.88277 10.2087C9.3452 10.7575 8.66795 11.1491 7.92413 11.3412C7.7943 11.3745 7.67926 11.4502 7.59714 11.5561C7.51502 11.6621 7.47049 11.7924 7.47056 11.9264V12.6832C7.47056 12.8433 7.40692 12.997 7.29366 13.1102C7.1804 13.2235 7.02677 13.2871 6.86659 13.2871C6.70641 13.2871 6.55279 13.2235 6.43953 13.1102C6.32627 12.997 6.26263 12.8433 6.26263 12.6832V11.927C6.2627 11.793 6.21817 11.6627 6.13605 11.5567C6.05393 11.4508 5.93889 11.3752 5.80906 11.3418C5.06519 11.1489 4.38814 10.7565 3.85102 10.2069C3.75712 10.1112 3.63404 10.0495 3.50118 10.0314C3.36832 10.0134 3.23323 10.0401 3.11721 10.1073L2.46252 10.486C2.3938 10.5262 2.3178 10.5525 2.23888 10.5633C2.15997 10.5741 2.0797 10.5692 2.00269 10.5488C1.92569 10.5285 1.85347 10.4931 1.7902 10.4447C1.72693 10.3963 1.67385 10.3359 1.63402 10.2669C1.5942 10.1979 1.56841 10.1218 1.55814 10.0428C1.54788 9.9638 1.55334 9.88356 1.5742 9.80669C1.59507 9.72982 1.63094 9.65784 1.67974 9.59489C1.72854 9.53194 1.78931 9.47927 1.85856 9.4399L2.51325 9.06182C2.62918 8.99494 2.71961 8.89144 2.77033 8.76758C2.82105 8.64372 2.8292 8.50652 2.79349 8.37753C2.58896 7.63644 2.58896 6.85378 2.79349 6.11268C2.82856 5.98397 2.82002 5.84726 2.76922 5.72391C2.71841 5.60055 2.62819 5.49749 2.51264 5.43081L1.85795 5.05273C1.71916 4.97264 1.61786 4.8407 1.57635 4.68592C1.53484 4.53114 1.55651 4.36622 1.6366 4.22742C1.71669 4.08862 1.84864 3.98733 2.00341 3.94582C2.15819 3.90431 2.32312 3.92598 2.46191 4.00607L3.11781 4.38536C3.23352 4.45271 3.36832 4.4797 3.50104 4.4621C3.63376 4.4445 3.75687 4.3833 3.85102 4.28812C4.3886 3.73933 5.06584 3.34776 5.80966 3.15569C5.9399 3.12221 6.05523 3.04623 6.13739 2.93978C6.21956 2.83333 6.26384 2.70251 6.26324 2.56804V1.81188C6.26324 1.6517 6.32687 1.49808 6.44013 1.38482C6.5534 1.27155 6.70702 1.20792 6.8672 1.20792C7.02738 1.20792 7.181 1.27155 7.29426 1.38482C7.40753 1.49808 7.47116 1.6517 7.47116 1.81188V2.56804C7.47109 2.70209 7.51563 2.83236 7.59775 2.93832C7.67987 3.04427 7.7949 3.1199 7.92473 3.15328C8.66882 3.34603 9.34609 3.73844 9.88338 4.28812C9.97728 4.38383 10.1004 4.44557 10.2332 4.46361C10.3661 4.48165 10.5012 4.45497 10.6172 4.38777L11.2719 4.00909C11.3406 3.96881 11.4166 3.94251 11.4955 3.93172C11.5744 3.92093 11.6547 3.92586 11.7317 3.94622C11.8087 3.96658 11.8809 4.00197 11.9442 4.05035C12.0075 4.09873 12.0605 4.15915 12.1004 4.22813C12.1402 4.29711 12.166 4.37328 12.1763 4.45227C12.1865 4.53125 12.1811 4.61149 12.1602 4.68836C12.1393 4.76523 12.1035 4.83721 12.0547 4.90016C12.0059 4.96311 11.9451 5.01578 11.8758 5.05515L11.2211 5.43323C11.1058 5.50009 11.0159 5.60323 10.9653 5.72657C10.9147 5.84991 10.9063 5.98652 10.9415 6.1151V6.11449Z" fill="#6345EE"/>
</svg>
