<svg width="37" height="34" viewBox="0 0 37 34" fill="none" xmlns="http://www.w3.org/2000/svg">
<path d="M35.4662 1.31206C34.9283 0.813096 34.2592 0.449712 33.5233 0.257017C32.7875 0.0643208 32.0099 0.0488264 31.2656 0.21203L7.26245 4.8459C5.88013 5.01965 4.5782 5.54369 3.50326 6.359C2.42832 7.17431 1.62308 8.2485 1.17821 9.4606C0.733344 10.6727 0.666526 11.9746 0.985281 13.2196C1.30404 14.4646 1.9957 15.6034 2.98239 16.5076L5.55973 18.8685C5.69922 18.9963 5.80985 19.1481 5.88527 19.3151C5.9607 19.4822 5.99944 19.6612 5.99929 19.842V24.1981C6.0026 24.8106 6.15642 25.4145 6.44934 25.965L6.43734 25.9747L6.47635 26.0104C6.91593 26.8205 7.63387 27.4756 8.51962 27.875L8.55862 27.9107L8.56913 27.8997C9.16975 28.1682 9.82865 28.3092 10.4969 28.3122H15.2495C15.6471 28.3119 16.0286 28.4564 16.3101 28.7137L18.886 31.0747C19.5769 31.7149 20.3992 32.2235 21.3055 32.5711C22.2118 32.9188 23.1842 33.0985 24.1667 33.1001C24.9854 33.0992 25.7986 32.9766 26.5745 32.7371C27.8848 32.3427 29.0489 31.6206 29.9353 30.6521C30.8217 29.6837 31.3952 28.5075 31.5912 27.2562L36.6543 5.20753C36.8416 4.51952 36.8306 3.7987 36.6223 3.11578C36.414 2.43286 36.0156 1.81129 35.4662 1.31206ZM7.68401 16.9269L5.10517 14.566C4.50467 14.0289 4.08379 13.3459 3.89194 12.5972C3.70008 11.8485 3.74521 11.0652 4.02202 10.3392C4.2904 9.59433 4.78653 8.93583 5.45141 8.44197C6.11628 7.94811 6.92193 7.63967 7.77252 7.55334L31.5372 2.9676L8.99668 23.6302V19.842C8.99895 19.3007 8.88411 18.7644 8.65879 18.264C8.43348 17.7637 8.10216 17.3092 7.68401 16.9269ZM28.6433 26.7859C28.5281 27.5454 28.1842 28.2604 27.6503 28.8507C27.1164 29.441 26.4135 29.8833 25.6206 30.1278C24.8277 30.3722 23.9761 30.4093 23.1615 30.2349C22.3468 30.0604 21.6014 29.6812 21.0088 29.14L18.4284 26.7749C18.0119 26.3911 17.5165 26.0868 16.9709 25.8795C16.4252 25.6723 15.8401 25.5663 15.2495 25.5677H11.1165L33.6599 4.9119L28.6433 26.7859Z" fill="#070B24"/>
</svg>
