<svg width="14" height="14" viewBox="0 0 14 14" fill="none" xmlns="http://www.w3.org/2000/svg">
<g clip-path="url(#clip0_759_2172)">
<path d="M7.05946 6.56293C7.70649 6.56293 8.339 6.37106 8.87698 6.01159C9.41497 5.65211 9.83428 5.14118 10.0819 4.5434C10.3295 3.94562 10.3943 3.28784 10.2681 2.65324C10.1418 2.01865 9.83025 1.43573 9.37273 0.978207C8.91521 0.520686 8.33229 0.209111 7.69769 0.082881C7.06309 -0.0433487 6.40531 0.021437 5.80753 0.269045C5.20975 0.516654 4.69882 0.935964 4.33935 1.47395C3.97988 2.01194 3.78801 2.64444 3.78801 3.29147C3.78888 4.15885 4.13382 4.99045 4.74715 5.60378C5.36048 6.21711 6.19208 6.56206 7.05946 6.56293ZM7.05946 1.1105C7.49082 1.1105 7.91248 1.23842 8.27114 1.47806C8.6298 1.71771 8.90934 2.05833 9.07441 2.45685C9.23949 2.85537 9.28268 3.29389 9.19852 3.71696C9.11437 4.14003 8.90665 4.52864 8.60164 4.83365C8.29663 5.13866 7.90801 5.34638 7.48495 5.43053C7.06188 5.51469 6.62336 5.4715 6.22484 5.30643C5.82632 5.14135 5.4857 4.86181 5.24605 4.50315C5.00641 4.1445 4.87849 3.72283 4.87849 3.29147C4.87849 2.71304 5.10827 2.15831 5.51728 1.7493C5.9263 1.34028 6.48103 1.1105 7.05946 1.1105Z" fill="white"/>
<path d="M7.05946 7.65381C5.75844 7.65525 4.51112 8.17272 3.59116 9.09268C2.67119 10.0126 2.15373 11.26 2.15228 12.561C2.15228 12.7056 2.20973 12.8443 2.31198 12.9465C2.41423 13.0488 2.55292 13.1062 2.69752 13.1062C2.84213 13.1062 2.98082 13.0488 3.08307 12.9465C3.18532 12.8443 3.24277 12.7056 3.24277 12.561C3.24277 11.5487 3.64488 10.5779 4.36065 9.86218C5.07642 9.14641 6.04721 8.74429 7.05946 8.74429C8.07171 8.74429 9.0425 9.14641 9.75827 9.86218C10.474 10.5779 10.8762 11.5487 10.8762 12.561C10.8762 12.7056 10.9336 12.8443 11.0359 12.9465C11.1381 13.0488 11.2768 13.1062 11.4214 13.1062C11.566 13.1062 11.7047 13.0488 11.8069 12.9465C11.9092 12.8443 11.9666 12.7056 11.9666 12.561C11.9652 11.26 11.4477 10.0126 10.5278 9.09268C9.6078 8.17272 8.36048 7.65525 7.05946 7.65381Z" fill="white"/>
</g>
<defs>
<clipPath id="clip0_759_2172">
<rect width="13.0858" height="13.0858" fill="white" transform="translate(0.516556 0.0200806)"/>
</clipPath>
</defs>
</svg>
