<svg width="20" height="16" viewBox="0 0 20 16" fill="none" xmlns="http://www.w3.org/2000/svg">
<path fill-rule="evenodd" clip-rule="evenodd" d="M1.50999 2.75C1.50999 2.05964 2.06964 1.5 2.75999 1.5H18.0985C18.5127 1.5 18.8485 1.16421 18.8485 0.75C18.8485 0.335786 18.5127 0 18.0985 0H2.75999C1.24121 0 0.00999379 1.23121 0.00999379 2.75V5.5639C0.00337448 5.64524 0 5.7275 0 5.81054V12.9465C0 14.6034 1.34314 15.9465 3 15.9465H16.9615C18.6184 15.9465 19.9615 14.6034 19.9615 12.9465V5.81055C19.9615 4.15369 18.6184 2.81055 16.9615 2.81055H3C2.45769 2.81055 1.94899 2.95444 1.50999 3.20614V2.75ZM1.5 10.1452C1.50657 10.1053 1.50999 10.0643 1.50999 10.0225V5.63646C1.59626 4.89004 2.23045 4.31055 3 4.31055H16.9615C17.79 4.31055 18.4615 4.98212 18.4615 5.81055V12.9465C18.4615 13.775 17.79 14.4465 16.9615 14.4465H3C2.17157 14.4465 1.5 13.775 1.5 12.9465V10.1452ZM16.2354 9.37871C16.2354 10.0188 15.6992 10.5378 15.0377 10.5378C14.3762 10.5378 13.84 10.0188 13.84 9.37871C13.84 8.73858 14.3762 8.21965 15.0377 8.21965C15.6992 8.21965 16.2354 8.73858 16.2354 9.37871Z" fill="white"/>
</svg>
