<svg width="15" height="15" viewBox="0 0 15 15" fill="none" xmlns="http://www.w3.org/2000/svg">
    <g clip-path="url(#clip0_855_2438)">
        <path d="M14.0969 8.53874L12.9094 4.26624C12.5614 3.01457 11.8049 1.91517 10.7603 1.14278C9.71564 0.370398 8.44281 -0.0306439 7.14409 0.0034062C5.84537 0.0374563 4.59531 0.504644 3.59259 1.33071C2.58987 2.15677 1.89205 3.2943 1.61005 4.56249L0.690675 8.69686C0.589122 9.1537 0.59147 9.62751 0.697545 10.0833C0.803621 10.5391 1.01071 10.9653 1.30354 11.3303C1.59636 11.6954 1.96744 11.99 2.38937 12.1925C2.8113 12.3949 3.27331 12.5 3.7413 12.5H4.43755C4.581 13.2064 4.96426 13.8415 5.52239 14.2977C6.08052 14.7539 6.7792 15.0031 7.50005 15.0031C8.2209 15.0031 8.91958 14.7539 9.47771 14.2977C10.0358 13.8415 10.4191 13.2064 10.5625 12.5H11.0863C11.5681 12.5 12.0433 12.3887 12.4749 12.1746C12.9065 11.9606 13.2828 11.6497 13.5743 11.2662C13.8659 10.8826 14.0648 10.4369 14.1556 9.96376C14.2463 9.49063 14.2265 9.00293 14.0975 8.53874H14.0969ZM7.50005 13.75C7.11364 13.7484 6.73716 13.6274 6.42211 13.4037C6.10707 13.1799 5.86885 12.8643 5.74005 12.5H9.26005C9.13125 12.8643 8.89303 13.1799 8.57799 13.4037C8.26294 13.6274 7.88646 13.7484 7.50005 13.75ZM12.5788 10.5094C12.4046 10.7404 12.179 10.9276 11.9198 11.0562C11.6606 11.1848 11.375 11.2511 11.0857 11.25H3.7413C3.46054 11.2499 3.18338 11.1868 2.93026 11.0654C2.67715 10.9439 2.45455 10.7671 2.2789 10.5481C2.10325 10.329 1.97903 10.0733 1.9154 9.79989C1.85178 9.52644 1.85037 9.24218 1.9113 8.96811L2.83005 4.83311C3.05152 3.83699 3.59962 2.94349 4.38721 2.29465C5.1748 1.6458 6.15669 1.27885 7.17678 1.25212C8.19688 1.2254 9.19663 1.54044 10.0171 2.14716C10.8376 2.75388 11.4317 3.61746 11.705 4.60061L12.8925 8.87311C12.971 9.15147 12.9835 9.44429 12.929 9.72832C12.8746 10.0124 12.7547 10.2798 12.5788 10.5094Z" fill="#6345EE" />
    </g>
    <defs>
        <clipPath id="clip0_855_2438">
            <rect width="15" height="15" fill="white" />
        </clipPath>
    </defs>
</svg>
