<svg width="34" height="34" viewBox="0 0 34 34" fill="none" xmlns="http://www.w3.org/2000/svg">
    <circle cx="17.3542" cy="16.6471" r="15.4118" fill="url(#paint0_linear_970_3510)" stroke="url(#paint1_linear_970_3510)" stroke-width="2" />
    <g clip-path="url(#clip0_970_3510)">
        <path d="M17.3552 17.559C18.5273 17.559 19.6732 17.2114 20.6478 16.5602C21.6224 15.909 22.382 14.9834 22.8305 13.9005C23.2791 12.8176 23.3965 11.626 23.1678 10.4763C22.9391 9.32671 22.3747 8.27072 21.5458 7.44188C20.717 6.61305 19.661 6.04861 18.5114 5.81993C17.3618 5.59126 16.1701 5.70862 15.0872 6.15718C14.0043 6.60574 13.0787 7.36536 12.4275 8.33996C11.7763 9.31457 11.4287 10.4604 11.4287 11.6325C11.4303 13.2039 12.0552 14.7104 13.1663 15.8215C14.2774 16.9325 15.7839 17.5574 17.3552 17.559ZM17.3552 7.68155C18.1366 7.68155 18.9005 7.91327 19.5502 8.34741C20.2 8.78155 20.7064 9.39861 21.0054 10.1206C21.3045 10.8425 21.3827 11.6369 21.2303 12.4033C21.0778 13.1698 20.7015 13.8738 20.149 14.4263C19.5964 14.9789 18.8924 15.3552 18.126 15.5076C17.3596 15.6601 16.5652 15.5818 15.8432 15.2828C15.1213 14.9837 14.5042 14.4773 14.0701 13.8276C13.6359 13.1779 13.4042 12.414 13.4042 11.6325C13.4042 10.5847 13.8205 9.57972 14.5614 8.83877C15.3024 8.09781 16.3073 7.68155 17.3552 7.68155V7.68155Z" fill="#070B24" />
        <path d="M17.3546 19.5352C14.9977 19.5378 12.738 20.4752 11.0715 22.1418C9.40489 23.8084 8.46746 26.068 8.46484 28.4249C8.46484 28.6868 8.56891 28.9381 8.75415 29.1233C8.93939 29.3086 9.19062 29.4126 9.45259 29.4126C9.71456 29.4126 9.96579 29.3086 10.151 29.1233C10.3363 28.9381 10.4403 28.6868 10.4403 28.4249C10.4403 26.5911 11.1688 24.8324 12.4655 23.5358C13.7621 22.2391 15.5208 21.5106 17.3546 21.5106C19.1883 21.5106 20.947 22.2391 22.2437 23.5358C23.5403 24.8324 24.2688 26.5911 24.2688 28.4249C24.2688 28.6868 24.3729 28.9381 24.5581 29.1233C24.7433 29.3086 24.9946 29.4126 25.2565 29.4126C25.5185 29.4126 25.7697 29.3086 25.955 29.1233C26.1402 28.9381 26.2443 28.6868 26.2443 28.4249C26.2417 26.068 25.3042 23.8084 23.6377 22.1418C21.9711 20.4752 19.7115 19.5378 17.3546 19.5352V19.5352Z" fill="#070B24" />
    </g>
    <defs>
        <linearGradient id="paint0_linear_970_3510" x1="33.766" y1="16.5693" x2="0.942383" y2="16.5693" gradientUnits="userSpaceOnUse">
            <stop stop-color="#30E584" />
            <stop offset="1" stop-color="#97FF57" />
        </linearGradient>
        <linearGradient id="paint1_linear_970_3510" x1="33.766" y1="16.5693" x2="0.942383" y2="16.5693" gradientUnits="userSpaceOnUse">
            <stop stop-color="#30E584" />
            <stop offset="1" stop-color="#97FF57" />
        </linearGradient>
        <clipPath id="clip0_970_3510">
            <rect width="23.7059" height="23.7059" fill="white" transform="translate(5.50195 5.70612)" />
        </clipPath>
    </defs>
</svg>
