<svg width="19" height="17" viewBox="0 0 19 17" fill="none" xmlns="http://www.w3.org/2000/svg">
    <path fill-rule="evenodd" clip-rule="evenodd" d="M1.60742 3.73792C1.60742 3.04756 2.16707 2.48792 2.85742 2.48792H17.1436C17.5578 2.48792 17.8936 2.15213 17.8936 1.73792C17.8936 1.3237 17.5578 0.987915 17.1436 0.987915H2.85742C1.33864 0.987915 0.107422 2.21913 0.107422 3.73792V10.4476C0.107422 10.5281 0.120095 10.6056 0.143555 10.6782V13.0121C0.143555 14.669 1.4867 16.0121 3.14356 16.0121H15.8936C17.5504 16.0121 18.8936 14.669 18.8936 13.0121V6.6734C18.8936 5.01655 17.5504 3.6734 15.8936 3.6734H3.14355C2.58214 3.6734 2.05675 3.82761 1.60742 4.09599V3.73792ZM15.8936 5.1734H3.14355C2.31513 5.1734 1.64355 5.84497 1.64355 6.6734V13.0121C1.64355 13.8405 2.31513 14.5121 3.14356 14.5121H15.8936C16.722 14.5121 17.3936 13.8405 17.3936 13.0121V6.6734C17.3936 5.84497 16.722 5.1734 15.8936 5.1734ZM15.3936 9.84291C15.3936 10.4442 14.8899 10.9316 14.2686 10.9316C13.6472 10.9316 13.1436 10.4442 13.1436 9.84291C13.1436 9.24163 13.6472 8.7542 14.2686 8.7542C14.8899 8.7542 15.3936 9.24163 15.3936 9.84291Z" fill="#6345EE" />
</svg>
