<svg width="195" height="105" viewBox="0 0 195 105" fill="none" xmlns="http://www.w3.org/2000/svg">
<path d="M134 48C134 35.2975 123.703 25 111 25C98.2975 25 88 35.2975 88 48V71H111C123.703 71 134 60.7025 134 48Z" fill="#25C685"/>
<path d="M106.958 41.4485C106.958 40.2167 105.959 39.2182 104.727 39.2182C103.495 39.2182 102.497 40.2167 102.497 41.4485V43.6788C102.497 44.9106 103.495 45.9091 104.727 45.9091C105.959 45.9091 106.958 44.9106 106.958 43.6788V41.4485Z" fill="#1F2E35"/>
<path d="M119.503 41.4485C119.503 40.2167 118.504 39.2182 117.273 39.2182C116.041 39.2182 115.042 40.2167 115.042 41.4485V43.6788C115.042 44.9106 116.041 45.9091 117.273 45.9091C118.504 45.9091 119.503 44.9106 119.503 43.6788V41.4485Z" fill="#1F2E35"/>
<path d="M108.909 52.1818C108.909 53.3366 109.845 54.2727 111 54.2727C112.155 54.2727 113.091 53.3366 113.091 52.1818L113.091 50.0909L108.909 50.0909L108.909 52.1818Z" fill="#1F2E35"/>
<path d="M29.5212 68.39H23.6712C19.8312 68.39 16.7712 67.25 14.4912 64.97C12.2712 62.69 11.1612 59.6 11.1612 55.7V37.88C11.1612 33.92 12.2712 30.8 14.4912 28.52C16.7712 26.24 19.8612 25.1 23.7612 25.1H42.8412C43.5012 25.1 43.8312 25.46 43.8312 26.18V70.82C43.8312 74.78 42.6912 77.9 40.4112 80.18C38.1312 82.46 35.0412 83.6 31.1412 83.6H14.7612C14.1012 83.6 13.7712 83.27 13.7712 82.61V80.45C13.7712 79.85 14.1012 79.55 14.7612 79.55H30.7812C33.5412 79.55 35.6412 78.77 37.0812 77.21C38.5212 75.71 39.2412 73.52 39.2412 70.64V63.71H38.8812C37.3812 66.83 34.2612 68.39 29.5212 68.39ZM39.2412 55.52V29.96C39.2412 29.42 38.9712 29.15 38.4312 29.15H24.2112C21.4512 29.15 19.3212 29.93 17.8212 31.49C16.3812 32.99 15.6612 35.18 15.6612 38.06V55.52C15.6612 58.34 16.3812 60.53 17.8212 62.09C19.3212 63.59 21.4512 64.34 24.2112 64.34H29.9712C32.8512 64.34 35.1012 63.59 36.7212 62.09C38.4012 60.53 39.2412 58.34 39.2412 55.52ZM60.7385 71H58.1285C57.5285 71 57.2285 70.64 57.2285 69.92V8.81C57.2285 8.09 57.5285 7.73 58.1285 7.73H60.7385C61.3985 7.73 61.7285 8.09 61.7285 8.81V29.78H62.0885C63.7685 26.66 66.8885 25.1 71.4485 25.1H77.3885C81.2285 25.1 84.2585 26.24 86.4785 28.52C88.6985 30.8 89.8085 33.92 89.8085 37.88V69.92C89.8085 70.64 89.5085 71 88.9085 71H86.2985C85.6385 71 85.3085 70.64 85.3085 69.92V38.06C85.3085 35.24 84.5885 33.05 83.1485 31.49C81.7085 29.93 79.6085 29.15 76.8485 29.15H70.9985C68.1185 29.15 65.8385 29.93 64.1585 31.49C62.5385 32.99 61.7285 35.15 61.7285 37.97V69.92C61.7285 70.64 61.3985 71 60.7385 71ZM141.688 71H126.028C125.368 71 125.038 70.67 125.038 70.01V67.94C125.038 67.34 125.368 67.04 126.028 67.04H141.238C146.638 67.04 149.338 64.94 149.338 60.74V58.58C149.338 54.68 147.658 52.13 144.298 50.93L133.048 46.61C129.988 45.41 127.798 44 126.478 42.38C125.218 40.76 124.588 38.51 124.588 35.63C124.588 28.61 128.458 25.1 136.198 25.1H150.778C151.438 25.1 151.768 25.43 151.768 26.09V28.16C151.768 28.76 151.438 29.06 150.778 29.06H136.648C134.188 29.06 132.328 29.6 131.068 30.68C129.868 31.76 129.268 33.02 129.268 34.46V36.53C129.268 38.21 129.718 39.53 130.618 40.49C131.578 41.45 133.018 42.26 134.938 42.92L146.188 47.42C149.308 48.44 151.378 49.97 152.398 52.01C153.478 53.99 154.018 56.78 154.018 60.38C154.018 63.98 152.998 66.65 150.958 68.39C148.978 70.13 145.888 71 141.688 71ZM167.578 29.15H162.088C161.428 29.15 161.098 28.85 161.098 28.25V26.09C161.098 25.43 161.428 25.1 162.088 25.1H167.578C168.118 25.1 168.388 24.83 168.388 24.29V17C168.388 16.28 168.718 15.92 169.378 15.92H171.988C172.648 15.92 172.978 16.28 172.978 17V24.29C172.978 24.83 173.248 25.1 173.788 25.1H184.498C185.158 25.1 185.488 25.43 185.488 26.09V28.25C185.488 28.85 185.158 29.15 184.498 29.15H173.788C173.248 29.15 172.978 29.42 172.978 29.96V58.31C172.978 61.07 173.758 63.2 175.318 64.7C176.878 66.2 179.068 66.95 181.888 66.95H185.398C186.058 66.95 186.388 67.28 186.388 67.94V70.01C186.388 70.67 186.058 71 185.398 71H181.528C177.568 71 174.388 69.89 171.988 67.67C169.588 65.45 168.388 62.39 168.388 58.49V29.96C168.388 29.42 168.118 29.15 167.578 29.15Z" fill="white"/>
<path d="M59.4346 102.112C58.8746 102.112 58.5946 101.823 58.5946 101.244V92.914C58.5946 92.6247 58.6646 92.4053 58.8046 92.256C58.9539 92.0973 59.1453 92.018 59.3786 92.018C59.5933 92.018 59.7519 92.06 59.8546 92.144C59.9666 92.2187 60.0973 92.3493 60.2466 92.536L65.2446 99.018V92.872C65.2446 92.3027 65.5246 92.018 66.0846 92.018C66.6353 92.018 66.9106 92.3027 66.9106 92.872V101.272C66.9106 101.533 66.8453 101.739 66.7146 101.888C66.5839 102.037 66.4066 102.112 66.1826 102.112C65.9679 102.112 65.7953 102.07 65.6646 101.986C65.5433 101.902 65.4079 101.767 65.2586 101.58L60.2606 95.084V101.244C60.2606 101.823 59.9853 102.112 59.4346 102.112ZM69.9913 102.112C69.3753 102.112 69.0673 101.795 69.0673 101.16V93.082C69.0673 92.4473 69.3846 92.13 70.0193 92.13H74.9053C75.3906 92.13 75.6333 92.3633 75.6333 92.83C75.6333 93.3153 75.3906 93.558 74.9053 93.558H70.8593V96.344H74.6113C75.0966 96.344 75.3393 96.5773 75.3393 97.044C75.3393 97.5293 75.0966 97.772 74.6113 97.772H70.8593V101.16C70.8593 101.795 70.5699 102.112 69.9913 102.112ZM80.314 102.112C79.7166 102.112 79.418 101.804 79.418 101.188V93.628H76.688C76.1746 93.628 75.918 93.376 75.918 92.872C75.918 92.3773 76.1746 92.13 76.688 92.13H83.94C84.4533 92.13 84.71 92.3773 84.71 92.872C84.71 93.376 84.4533 93.628 83.94 93.628H81.21V101.188C81.21 101.804 80.9113 102.112 80.314 102.112ZM92.8101 102.112C92.2127 102.112 91.9141 101.804 91.9141 101.188V93.628H89.1841C88.6707 93.628 88.4141 93.376 88.4141 92.872C88.4141 92.3773 88.6707 92.13 89.1841 92.13H96.4361C96.9494 92.13 97.2061 92.3773 97.2061 92.872C97.2061 93.376 96.9494 93.628 96.4361 93.628H93.7061V101.188C93.7061 101.804 93.4074 102.112 92.8101 102.112ZM102.052 102.14C101.1 102.14 100.264 101.93 99.5458 101.51C98.8365 101.09 98.2858 100.502 97.8938 99.746C97.5018 98.9807 97.3058 98.0847 97.3058 97.058C97.3058 96.022 97.5018 95.126 97.8938 94.37C98.2858 93.614 98.8365 93.0307 99.5458 92.62C100.255 92.2 101.09 91.99 102.052 91.99C103.013 91.99 103.848 92.2 104.558 92.62C105.267 93.0307 105.818 93.614 106.21 94.37C106.602 95.126 106.798 96.0173 106.798 97.044C106.798 98.08 106.602 98.9807 106.21 99.746C105.818 100.502 105.267 101.09 104.558 101.51C103.848 101.93 103.013 102.14 102.052 102.14ZM102.052 100.6C102.957 100.6 103.662 100.287 104.166 99.662C104.67 99.0367 104.922 98.1687 104.922 97.058C104.922 95.938 104.67 95.07 104.166 94.454C103.671 93.838 102.966 93.53 102.052 93.53C101.146 93.53 100.442 93.838 99.9378 94.454C99.4338 95.07 99.1818 95.938 99.1818 97.058C99.1818 98.1687 99.4338 99.0367 99.9378 99.662C100.442 100.287 101.146 100.6 102.052 100.6ZM112.519 102.112C112.192 102.112 111.959 102 111.819 101.776C111.679 101.552 111.683 101.281 111.833 100.964L115.529 92.774C115.65 92.5033 115.795 92.312 115.963 92.2C116.14 92.0787 116.341 92.018 116.565 92.018C116.779 92.018 116.971 92.0787 117.139 92.2C117.316 92.312 117.465 92.5033 117.587 92.774L121.297 100.964C121.446 101.291 121.455 101.566 121.325 101.79C121.194 102.005 120.97 102.112 120.653 102.112C120.391 102.112 120.186 102.051 120.037 101.93C119.897 101.799 119.771 101.603 119.659 101.342L118.959 99.718H114.143L113.457 101.342C113.335 101.613 113.209 101.809 113.079 101.93C112.948 102.051 112.761 102.112 112.519 102.112ZM116.537 94.076L114.759 98.29H118.343L116.565 94.076H116.537ZM123.749 102C123.142 102 122.839 101.692 122.839 101.076V92.998C122.839 92.3913 123.137 92.088 123.735 92.088C124.332 92.088 124.631 92.3913 124.631 92.998V100.474H128.691C129.213 100.474 129.475 100.726 129.475 101.23C129.475 101.743 129.213 102 128.691 102H123.749ZM131.61 102C131.003 102 130.7 101.692 130.7 101.076V92.998C130.7 92.3913 130.999 92.088 131.596 92.088C132.193 92.088 132.492 92.3913 132.492 92.998V100.474H136.552C137.075 100.474 137.336 100.726 137.336 101.23C137.336 101.743 137.075 102 136.552 102H131.61Z" fill="#25C685"/>
</svg>
