<svg width="38" height="38" viewBox="0 0 38 38" fill="none" xmlns="http://www.w3.org/2000/svg">
<g clip-path="url(#clip0_1451_3998)">
<path d="M18.8122 0.376236C15.1326 0.376236 11.5357 1.46735 8.47626 3.5116C5.41682 5.55585 3.03228 8.46143 1.62417 11.8609C0.216069 15.2604 -0.152356 19.001 0.56549 22.6099C1.28334 26.2187 3.05521 29.5337 5.65705 32.1355C8.25889 34.7374 11.5738 36.5092 15.1827 37.2271C18.7915 37.9449 22.5322 37.5765 25.9317 36.1684C29.3311 34.7603 32.2367 32.3757 34.281 29.3163C36.3252 26.2569 37.4163 22.6599 37.4163 18.9804C37.411 14.0479 35.4492 9.31896 31.9614 5.83116C28.4736 2.34336 23.7447 0.381571 18.8122 0.376236V0.376236ZM18.8122 34.4839C15.7459 34.4839 12.7484 33.5746 10.1989 31.8711C7.64938 30.1675 5.66226 27.7462 4.48884 24.9133C3.31542 22.0804 3.0084 18.9632 3.6066 15.9558C4.20481 12.9484 5.68137 10.186 7.84957 8.01779C10.0178 5.84959 12.7802 4.37303 15.7876 3.77482C18.795 3.17662 21.9122 3.48364 24.7451 4.65706C27.578 5.83048 29.9993 7.8176 31.7028 10.3671C33.4064 12.9167 34.3156 15.9141 34.3156 18.9804C34.3111 23.0908 32.6763 27.0315 29.7698 29.938C26.8633 32.8445 22.9226 34.4793 18.8122 34.4839V34.4839ZM26.5639 18.9804C26.5639 19.3916 26.4006 19.7859 26.1098 20.0767C25.8191 20.3674 25.4247 20.5307 25.0136 20.5307H20.3625V25.1818C20.3625 25.593 20.1992 25.9873 19.9084 26.278C19.6177 26.5688 19.2234 26.7321 18.8122 26.7321C18.401 26.7321 18.0067 26.5688 17.7159 26.278C17.4252 25.9873 17.2618 25.593 17.2618 25.1818V20.5307H12.6108C12.1996 20.5307 11.8053 20.3674 11.5145 20.0767C11.2238 19.7859 11.0604 19.3916 11.0604 18.9804C11.0604 18.5692 11.2238 18.1749 11.5145 17.8841C11.8053 17.5934 12.1996 17.43 12.6108 17.43H17.2618V12.779C17.2618 12.3678 17.4252 11.9735 17.7159 11.6827C18.0067 11.392 18.401 11.2287 18.8122 11.2287C19.2234 11.2287 19.6177 11.392 19.9084 11.6827C20.1992 11.9735 20.3625 12.3678 20.3625 12.779V17.43H25.0136C25.4247 17.43 25.8191 17.5934 26.1098 17.8841C26.4006 18.1749 26.5639 18.5692 26.5639 18.9804Z" fill="url(#paint0_linear_1451_3998)"/>
</g>
<defs>
<linearGradient id="paint0_linear_1451_3998" x1="-0.625014" y1="19.9024" x2="36.5833" y2="19.9024" gradientUnits="userSpaceOnUse">
<stop stop-color="#4694FF"/>
<stop offset="1" stop-color="#30E584"/>
</linearGradient>
<clipPath id="clip0_1451_3998">
<rect width="37.2083" height="37.2083" fill="white" transform="translate(0.208008 0.376236)"/>
</clipPath>
</defs>
</svg>
