<svg width="25" height="24" viewBox="0 0 25 24" fill="none" xmlns="http://www.w3.org/2000/svg">
    <path fill-rule="evenodd" clip-rule="evenodd" d="M15.28 0.217392L20.966 1.96339C22.2212 2.35333 23.2735 3.21992 23.8968 4.37707C24.5202 5.53423 24.6649 6.88968 24.3 8.15238L20.884 18.5514C20.5791 19.581 19.9493 20.4843 19.0887 21.1265C18.2281 21.7686 17.1828 22.1152 16.109 22.1144C15.8784 22.1129 15.6482 22.0955 15.42 22.0624C14.957 22.6619 14.3631 23.1478 13.6838 23.4829C13.0044 23.8181 12.2575 23.9937 11.5 23.9964H5.5C4.17441 23.9948 2.90356 23.4675 1.96622 22.5301C1.02888 21.5928 0.501588 20.322 0.5 18.9964V8.99638C0.501588 7.67079 1.02888 6.39994 1.96622 5.46261C2.90356 4.52527 4.17441 3.99798 5.5 3.99639H8.868L9.056 3.45739C9.46277 2.21005 10.3425 1.172 11.5063 0.566192C12.67 -0.0396144 14.0249 -0.164847 15.28 0.217392ZM3.37868 21.1177C3.94129 21.6803 4.70435 21.9964 5.5 21.9964H11.5C12.2956 21.9964 13.0587 21.6803 13.6213 21.1177C14.1839 20.5551 14.5 19.792 14.5 18.9964V8.99638C14.5 8.20073 14.1839 7.43767 13.6213 6.87506C13.0587 6.31246 12.2956 5.99639 11.5 5.99639H5.5C4.70435 5.99639 3.94129 6.31246 3.37868 6.87506C2.81607 7.43767 2.5 8.20073 2.5 8.99638V18.9964C2.5 19.792 2.81607 20.5551 3.37868 21.1177ZM18.975 17.9594L22.387 7.55938C22.5986 6.80474 22.5071 5.99728 22.132 5.30911C21.7569 4.62094 21.1279 4.10649 20.379 3.87539L14.693 2.12939C13.9545 1.90485 13.1579 1.97358 12.4688 2.3213C11.7797 2.66902 11.2511 3.26896 10.993 3.99639H11.5C12.8256 3.99798 14.0964 4.52527 15.0338 5.46261C15.9711 6.39994 16.4984 7.67079 16.5 8.99638V18.9964C16.499 19.3655 16.4571 19.7334 16.375 20.0934C16.9723 20.0393 17.5396 19.8068 18.0033 19.4263C18.4669 19.0458 18.8054 18.5347 18.975 17.9594ZM9.786 17.3744C10.956 16.3874 12.5 14.4464 12.5 12.9964C12.5 12.4659 12.2893 11.9572 11.9142 11.5822C11.5391 11.2071 11.0304 10.9964 10.5 10.9964C10.3089 10.9964 10.1206 11.0237 9.94033 11.0763C9.75859 10.4524 9.18253 9.99658 8.50001 9.99658C7.81748 9.99658 7.24143 10.4524 7.05969 11.0763C6.87944 11.0237 6.69113 10.9964 6.5 10.9964C5.96957 10.9964 5.46086 11.2071 5.08579 11.5822C4.71071 11.9572 4.5 12.4659 4.5 12.9964C4.5 14.4464 6.044 16.3874 7.214 17.3744C7.57348 17.6785 8.02912 17.8454 8.5 17.8454C8.97088 17.8454 9.42652 17.6785 9.786 17.3744Z" fill="url(#paint0_linear_736_7416)" />
    <defs>
        <linearGradient id="paint0_linear_736_7416" x1="0.5" y1="11.9413" x2="24.4974" y2="11.9413" gradientUnits="userSpaceOnUse">
            <stop stop-color="#FF5353" />
            <stop offset="1" stop-color="#FE457E" />
        </linearGradient>
    </defs>
</svg>
