<svg width="9" height="17" viewBox="0 0 9 17" fill="none" xmlns="http://www.w3.org/2000/svg">
    <path d="M6.1301 7.63744C6.2477 7.75031 6.34104 7.88461 6.40474 8.03257C6.46844 8.18053 6.50123 8.33924 6.50123 8.49953C6.50123 8.65982 6.46844 8.81852 6.40474 8.96649C6.34104 9.11445 6.2477 9.24874 6.1301 9.36162L0.37113 14.9227C0.253532 15.0356 0.16019 15.1699 0.096491 15.3179C0.0327932 15.4658 -1.7871e-06 15.6245 -1.80111e-06 15.7848C-1.81513e-06 15.9451 0.0327931 16.1038 0.0964909 16.2518C0.16019 16.3997 0.253531 16.534 0.37113 16.6469C0.60621 16.8731 0.92421 17 1.25568 17C1.58715 17 1.90515 16.8731 2.14023 16.6469L7.8992 11.0737C8.60408 10.3907 9 9.46483 9 8.49953C9 7.53422 8.60408 6.60839 7.8992 5.92539L2.14023 0.352144C1.90653 0.127824 1.59111 0.0013612 1.26195 2.03044e-05C1.09683 -0.000904774 0.933139 0.0297234 0.780273 0.0901482C0.627406 0.150573 0.488369 0.239608 0.371131 0.352143C0.253533 0.46502 0.160191 0.599313 0.0964923 0.747276C0.0327945 0.89524 -5.133e-07 1.05394 -5.27313e-07 1.21424C-5.41326e-07 1.37453 0.0327944 1.53323 0.0964922 1.68119C0.160191 1.82916 0.253533 1.96345 0.371131 2.07633L6.1301 7.63744Z" fill="#101138" />
</svg>
