<svg width="9" height="17" viewBox="0 0 9 17" fill="none" xmlns="http://www.w3.org/2000/svg">
    <path d="M2.8699 7.63744C2.7523 7.75031 2.65896 7.88461 2.59526 8.03257C2.53156 8.18053 2.49877 8.33924 2.49877 8.49953C2.49877 8.65982 2.53156 8.81852 2.59526 8.96649C2.65896 9.11445 2.7523 9.24874 2.8699 9.36162L8.62887 14.9227C8.74647 15.0356 8.83981 15.1699 8.90351 15.3179C8.96721 15.4658 9 15.6245 9 15.7848C9 15.9451 8.96721 16.1038 8.90351 16.2518C8.83981 16.3997 8.74647 16.534 8.62887 16.6469C8.39379 16.8731 8.07579 17 7.74432 17C7.41285 17 7.09485 16.8731 6.85977 16.6469L1.1008 11.0737C0.395922 10.3907 -6.58745e-07 9.46483 -7.43135e-07 8.49953C-8.27524e-07 7.53422 0.395922 6.60839 1.1008 5.92539L6.85977 0.352144C7.09347 0.127824 7.40889 0.0013612 7.73805 2.03044e-05C7.90317 -0.000904774 8.06686 0.0297234 8.21973 0.0901482C8.37259 0.150573 8.51163 0.239608 8.62887 0.352143C8.74647 0.46502 8.83981 0.599313 8.90351 0.747276C8.96721 0.89524 9 1.05394 9 1.21424C9 1.37453 8.96721 1.53323 8.90351 1.68119C8.83981 1.82916 8.74647 1.96345 8.62887 2.07633L2.8699 7.63744Z" fill="#101138" />
</svg>
