<svg width="61" height="58" viewBox="0 0 61 58" fill="none" xmlns="http://www.w3.org/2000/svg">
<g opacity="0.5">
<path d="M23.0014 37.1035L20.6801 38.478C20.3723 38.6603 20.1343 38.99 20.0184 39.3946C19.9025 39.7992 19.9182 40.2455 20.0621 40.6354C20.206 41.0253 20.4663 41.3268 20.7857 41.4736C21.1051 41.6205 21.4575 41.6005 21.7653 41.4183L24.0865 40.0437C24.3944 39.8614 24.6324 39.5318 24.7483 39.1272C24.8642 38.7226 24.8485 38.2762 24.7046 37.8863C24.5607 37.4964 24.3004 37.1949 23.981 37.0481C23.6616 36.9013 23.3092 36.9212 23.0014 37.1035Z" fill="url(#paint0_linear_1505_3984)"/>
<path fill-rule="evenodd" clip-rule="evenodd" d="M10.9272 38.8791C10.2862 39.2587 9.9757 40.1329 10.2336 40.8318L14.6499 52.7975C15.0816 53.9671 15.8624 54.8717 16.8207 55.3121C17.7789 55.7526 18.836 55.6928 19.7594 55.146L22.2316 53.6821C22.7487 53.3683 23.1689 52.8458 23.4262 52.1967C23.6834 51.5476 23.7633 50.8087 23.6531 50.0959C23.558 49.3947 23.6475 48.6734 23.9077 48.0429C24.1679 47.4124 24.5845 46.9077 25.0933 46.6064C25.6021 46.3051 26.175 46.2239 26.7238 46.3753C27.2726 46.5267 27.7669 46.9024 28.1307 47.4444C28.4919 48.0086 28.9907 48.4049 29.5489 48.5711C30.107 48.7373 30.693 48.664 31.2147 48.3626L33.6868 46.8987C34.6103 46.3519 35.3244 45.3628 35.6721 44.1491C36.0198 42.9353 35.9727 41.5963 35.5409 40.4266L31.1247 28.4609C30.8668 27.7621 30.1381 27.5032 29.4971 27.8828C28.8561 28.2624 28.5456 29.1366 28.8035 29.8355L29.1503 30.7753C29.5998 31.9931 29.0587 33.5167 27.9416 34.1781L27.643 34.355C27.3352 34.5373 27.0971 34.867 26.9812 35.2715C26.8653 35.6761 26.8811 36.1225 27.025 36.5124C27.1689 36.9023 27.4291 37.2038 27.7486 37.3506C28.068 37.4974 28.4203 37.4775 28.7282 37.2952C30.0101 36.5361 31.4676 37.0538 31.9834 38.4515L33.2197 41.8011C33.3636 42.191 33.3793 42.6374 33.2634 43.042C33.1475 43.4465 32.9095 43.7762 32.6017 43.9585C31.1125 44.7737 29.4953 44.2549 28.1166 43.5443C27.8371 43.4002 27.5467 43.2869 27.2483 43.2068C26.1448 42.9103 24.9949 43.0833 23.9769 43.699C22.9589 44.3146 22.1298 45.3386 21.618 46.6119C21.4764 46.9643 21.3612 47.3304 21.2732 47.7053C20.8571 49.4762 20.119 51.3502 18.6743 52.2058C18.3665 52.388 18.0141 52.408 17.6947 52.2611C17.3753 52.1143 17.115 51.8128 16.9711 51.4229L15.7348 48.0733C15.219 46.6755 15.84 44.9271 17.122 44.1679C17.4298 43.9856 17.6679 43.6559 17.7838 43.2514C17.8997 42.8468 17.8839 42.4004 17.74 42.0105C17.5961 41.6206 17.3358 41.3191 17.0164 41.1723C16.697 41.0255 16.3446 41.0454 16.0368 41.2277L15.7382 41.4045C14.6211 42.066 13.3512 41.6149 12.9017 40.397L12.5549 39.4572C12.2969 38.7584 11.5682 38.4995 10.9272 38.8791Z" fill="url(#paint1_linear_1505_3984)"/>
<path fill-rule="evenodd" clip-rule="evenodd" d="M30.0406 29.3527C30.6815 28.9731 30.9921 28.0989 30.7341 27.4L22.5199 5.14371C22.0882 3.97402 21.3074 3.06946 20.3491 2.62902C19.3909 2.18858 18.3338 2.24836 17.4103 2.79518L14.9382 4.25907C14.4211 4.5729 14.0009 5.09537 13.7436 5.74446C13.4863 6.39355 13.4065 7.13249 13.5167 7.84527C13.6117 8.54646 13.5223 9.26778 13.2621 9.89827C13.0018 10.5288 12.5853 11.0335 12.0765 11.3348C11.5676 11.6361 10.9948 11.7173 10.446 11.5659C9.89715 11.4144 9.40283 11.0388 9.03903 10.4968C8.67792 9.93257 8.17911 9.53627 7.62092 9.37008C7.06273 9.20388 6.47677 9.2772 5.95504 9.57853L3.48293 11.0424C2.55948 11.5892 1.84536 12.5783 1.49764 13.7921C1.14993 15.0059 1.19712 16.3449 1.62882 17.5146L9.84304 39.7709C10.101 40.4697 10.8297 40.7286 11.4707 40.349C12.1117 39.9694 12.4222 39.0952 12.1643 38.3963L8.1396 27.4915C7.62374 26.0938 8.2448 24.3453 9.52678 23.5862C9.83459 23.4039 10.0726 23.0742 10.1885 22.6696C10.3044 22.265 10.2887 21.8187 10.1448 21.4288C10.0009 21.0389 9.74063 20.7374 9.42121 20.5906C9.1018 20.4437 8.74943 20.4637 8.44161 20.6459C7.15963 21.4051 5.70219 20.8874 5.18632 19.4897L3.95006 16.14C3.80615 15.7501 3.79042 15.3038 3.90633 14.8992C4.02223 14.4946 4.26028 14.1649 4.56809 13.9826C6.0573 13.1675 7.67447 13.6862 9.05317 14.3969C9.33267 14.541 9.62312 14.6542 9.92147 14.7344C11.025 15.0309 12.1749 14.8579 13.1929 14.2422C14.2109 13.6265 15.04 12.6026 15.5518 11.3292C15.6934 10.9768 15.8085 10.6108 15.8966 10.2359C16.3127 8.465 17.0508 6.59092 18.4955 5.73541C18.8033 5.55313 19.1557 5.53321 19.4751 5.68002C19.7945 5.82683 20.0548 6.12835 20.1987 6.51825L21.435 9.8679C21.9508 11.2656 21.3298 13.0141 20.0478 13.7733C19.74 13.9555 19.5019 14.2852 19.386 14.6898C19.2701 15.0944 19.2858 15.5407 19.4297 15.9306C19.5736 16.3205 19.8339 16.6221 20.1533 16.7689C20.4728 16.9157 20.8251 16.8958 21.1329 16.7135C22.4149 15.9543 23.8724 16.472 24.3882 17.8698L28.4129 28.7745C28.6708 29.4734 29.3996 29.7322 30.0406 29.3527Z" fill="url(#paint2_linear_1505_3984)"/>
<path d="M14.1685 20.8367L16.4898 19.4621C16.7976 19.2798 17.0356 18.9501 17.1515 18.5456C17.2674 18.141 17.2517 17.6946 17.1078 17.3047C16.9639 16.9148 16.7036 16.6133 16.3842 16.4665C16.0648 16.3197 15.7124 16.3396 15.4046 16.5219L13.0834 17.8964C12.7756 18.0787 12.5375 18.4084 12.4216 18.813C12.3057 19.2176 12.3214 19.6639 12.4653 20.0538C12.6092 20.4437 12.8695 20.7452 13.1889 20.892C13.5084 21.0388 13.8607 21.0189 14.1685 20.8367Z" fill="url(#paint3_linear_1505_3984)"/>
<ellipse rx="4.04652" ry="4.70114" transform="matrix(0.860455 -0.509526 0.346245 0.938144 18.5852 28.9697)" fill="url(#paint4_linear_1505_3984)"/>
</g>
<g opacity="0.5">
<path d="M46.3668 39.4082L44.2805 38.7001C44.0038 38.6062 43.709 38.6554 43.461 38.8368C43.2129 39.0182 43.0319 39.3169 42.9578 39.6674C42.8837 40.0178 42.9225 40.3912 43.0657 40.7054C43.2089 41.0196 43.4448 41.2489 43.7214 41.3428L45.8078 42.0509C46.0844 42.1448 46.3792 42.0956 46.6273 41.9142C46.8753 41.7328 47.0563 41.434 47.1304 41.0836C47.2046 40.7332 47.1658 40.3598 47.0226 40.0456C46.8793 39.7314 46.6435 39.5021 46.3668 39.4082Z" fill="url(#paint5_linear_1505_3984)"/>
<path fill-rule="evenodd" clip-rule="evenodd" d="M37.8147 32.2577C37.2385 32.0621 36.6694 32.3862 36.5435 32.9814L34.2558 43.7958C34.0334 44.8471 34.1499 45.9673 34.5795 46.9099C35.0091 47.8525 35.7168 48.5403 36.5468 48.822L38.7687 49.5761C39.2368 49.729 39.7316 49.6806 40.1756 49.4386C40.6196 49.1966 40.9876 48.7746 41.2217 48.239C41.4607 47.7213 41.8273 47.3174 42.2652 47.0894C42.7032 46.8614 43.1881 46.822 43.6454 46.9772C44.1027 47.1324 44.5071 47.4737 44.7964 47.9485C45.0856 48.4233 45.2437 49.0053 45.2463 49.605C45.2376 50.2171 45.3898 50.8156 45.6787 51.3063C45.9677 51.7971 46.3772 52.1524 46.8428 52.3165L49.0648 53.0706C49.8948 53.3523 50.7791 53.2049 51.5233 52.6607C52.2674 52.1164 52.8104 51.2201 53.0328 50.1688L55.3205 39.3544C55.4464 38.7591 55.0815 38.1181 54.5053 37.9225C53.9292 37.727 53.3601 38.051 53.2342 38.6462L53.0429 39.5505C52.8113 40.6452 51.7647 41.2411 50.7052 40.8815L50.5373 40.8245C50.2606 40.7306 49.9658 40.7797 49.7178 40.9611C49.4697 41.1425 49.2887 41.4413 49.2146 41.7918C49.1405 42.1422 49.1793 42.5156 49.3225 42.8298C49.4657 43.144 49.7016 43.3733 49.9782 43.4672C51.1305 43.8582 51.8604 45.1403 51.6086 46.3308L50.9465 49.4606C50.8724 49.8111 50.6914 50.1099 50.4433 50.2913C50.1953 50.4727 49.9005 50.5218 49.6238 50.4279C48.3167 49.9317 47.4889 48.5475 46.9492 47.1818C46.8218 46.8594 46.6688 46.5519 46.4917 46.2645C45.9067 45.315 45.0907 44.6365 44.1702 44.3342C43.2497 44.032 42.2763 44.1229 41.4007 44.5928C41.1299 44.7382 40.8732 44.9173 40.6338 45.1264C39.6625 45.9748 38.4011 46.6189 37.1058 46.1793C36.8292 46.0854 36.5933 45.8561 36.4501 45.5419C36.3068 45.2277 36.268 44.8543 36.3422 44.5039L37.0042 41.374C37.2561 40.1836 38.3943 39.5355 39.5466 39.9266C39.8232 40.0205 40.118 39.9714 40.3661 39.79C40.6141 39.6086 40.7951 39.3098 40.8692 38.9593C40.9434 38.6089 40.9046 38.2355 40.7614 37.9213C40.6181 37.6071 40.3823 37.3778 40.1056 37.2839L39.9377 37.2269C38.8782 36.8673 38.207 35.6884 38.4385 34.5938L38.6298 33.6895C38.7557 33.0943 38.3908 32.4532 37.8147 32.2577Z" fill="url(#paint6_linear_1505_3984)"/>
<path fill-rule="evenodd" clip-rule="evenodd" d="M54.2225 39.2433C54.7986 39.4389 55.3677 39.1149 55.4936 38.5196L59.7379 18.456C59.9603 17.4046 59.8438 16.2845 59.4142 15.3419C58.9846 14.3993 58.2769 13.7115 57.4469 13.4298L55.225 12.6756C54.7569 12.5228 54.262 12.5712 53.8181 12.8132C53.3741 13.0552 53.0061 13.4771 52.772 14.0127C52.533 14.5304 52.1664 14.9344 51.7284 15.1623C51.2905 15.3903 50.8056 15.4298 50.3483 15.2745C49.891 15.1193 49.4866 14.7781 49.1973 14.3033C48.9081 13.8285 48.75 13.2465 48.7474 12.6468C48.756 12.0346 48.6039 11.4362 48.315 10.9454C48.026 10.4546 47.6165 10.0993 47.1508 9.93525L44.9289 9.18112C44.0989 8.89941 43.2146 9.04689 42.4704 9.59109C41.7262 10.1353 41.1832 11.0317 40.9608 12.083L36.7166 32.1467C36.5907 32.7419 36.9557 33.3829 37.5318 33.5785C38.1079 33.774 38.677 33.45 38.8029 32.8548L40.9141 22.8747C41.1659 21.6842 42.3042 21.0362 43.4564 21.4273C43.7331 21.5212 44.0279 21.472 44.2759 21.2906C44.524 21.1092 44.705 20.8104 44.7791 20.46C44.8532 20.1095 44.8144 19.7362 44.6712 19.422C44.528 19.1078 44.2921 18.8785 44.0155 18.7846C42.8632 18.3935 42.1333 17.1114 42.3851 15.921L43.0472 12.7911C43.1213 12.4407 43.3023 12.1419 43.5504 11.9605C43.7984 11.7791 44.0932 11.7299 44.3699 11.8238C45.677 12.3201 46.5048 13.7042 47.0445 15.07C47.1719 15.3924 47.3248 15.6998 47.502 15.9873C48.087 16.9368 48.903 17.6153 49.8235 17.9175C50.7439 18.2198 51.7174 18.1289 52.593 17.6589C52.8638 17.5136 53.1205 17.3345 53.3599 17.1254C54.3312 16.2769 55.5926 15.6328 56.8879 16.0724C57.1645 16.1663 57.4004 16.3956 57.5436 16.7098C57.6868 17.024 57.7257 17.3974 57.6515 17.7478L56.9894 20.8777C56.7376 22.0682 55.5994 22.7162 54.4471 22.3251C54.1705 22.2312 53.8757 22.2804 53.6276 22.4618C53.3796 22.6432 53.1986 22.942 53.1244 23.2924C53.0503 23.6429 53.0891 24.0162 53.2323 24.3304C53.3755 24.6446 53.6114 24.8739 53.8881 24.9678C55.0403 25.3589 55.7703 26.641 55.5185 27.8314L53.4073 37.8115C53.2814 38.4067 53.6463 39.0478 54.2225 39.2433Z" fill="url(#paint7_linear_1505_3984)"/>
<path d="M47.6332 22.844L49.7195 23.5521C49.9962 23.646 50.291 23.5968 50.539 23.4154C50.7871 23.234 50.9681 22.9353 51.0422 22.5848C51.1163 22.2344 51.0775 21.861 50.9343 21.5468C50.7911 21.2326 50.5552 21.0033 50.2786 20.9094L48.1922 20.2013C47.9156 20.1074 47.6208 20.1566 47.3727 20.338C47.1247 20.5194 46.9437 20.8182 46.8695 21.1686C46.7954 21.519 46.8342 21.8924 46.9774 22.2066C47.1206 22.5208 47.3565 22.7501 47.6332 22.844Z" fill="url(#paint8_linear_1505_3984)"/>
<ellipse rx="3.30484" ry="4.05176" transform="matrix(0.946945 0.321395 -0.206959 0.97835 47.0009 31.1257)" fill="#FF5353"/>
</g>
<defs>
<linearGradient id="paint0_linear_1505_3984" x1="20.0595" y1="40.6284" x2="25.0384" y2="38.7909" gradientUnits="userSpaceOnUse">
<stop stop-color="#FF5353"/>
<stop offset="1" stop-color="#FE457E"/>
</linearGradient>
<linearGradient id="paint1_linear_1505_3984" x1="13.0066" y1="48.3452" x2="35.4116" y2="40.0761" gradientUnits="userSpaceOnUse">
<stop stop-color="#FF5353"/>
<stop offset="1" stop-color="#FE457E"/>
</linearGradient>
<linearGradient id="paint2_linear_1505_3984" x1="26.0711" y1="14.7656" x2="3.66615" y2="23.0347" gradientUnits="userSpaceOnUse">
<stop stop-color="#FF5353"/>
<stop offset="1" stop-color="#FE457E"/>
</linearGradient>
<linearGradient id="paint3_linear_1505_3984" x1="17.1104" y1="17.3117" x2="12.1315" y2="19.1493" gradientUnits="userSpaceOnUse">
<stop stop-color="#FF5353"/>
<stop offset="1" stop-color="#FE457E"/>
</linearGradient>
<linearGradient id="paint4_linear_1505_3984" x1="0" y1="4.67886" x2="8.09304" y2="4.67886" gradientUnits="userSpaceOnUse">
<stop stop-color="#FF5353"/>
<stop offset="1" stop-color="#FE457E"/>
</linearGradient>
<linearGradient id="paint5_linear_1505_3984" x1="42.9591" y1="39.6611" x2="47.2398" y2="40.5667" gradientUnits="userSpaceOnUse">
<stop stop-color="#FF5353"/>
<stop offset="1" stop-color="#FE457E"/>
</linearGradient>
<linearGradient id="paint6_linear_1505_3984" x1="35.1024" y1="39.794" x2="54.3655" y2="43.869" gradientUnits="userSpaceOnUse">
<stop stop-color="#FF5353"/>
<stop offset="1" stop-color="#FE457E"/>
</linearGradient>
<linearGradient id="paint7_linear_1505_3984" x1="57.9085" y1="27.104" x2="38.6453" y2="23.0291" gradientUnits="userSpaceOnUse">
<stop stop-color="#FF5353"/>
<stop offset="1" stop-color="#FE457E"/>
</linearGradient>
<linearGradient id="paint8_linear_1505_3984" x1="51.0409" y1="22.5911" x2="46.7602" y2="21.6855" gradientUnits="userSpaceOnUse">
<stop stop-color="#FF5353"/>
<stop offset="1" stop-color="#FE457E"/>
</linearGradient>
</defs>
</svg>
