<svg width="20" height="20" viewBox="0 0 20 20" fill="none" xmlns="http://www.w3.org/2000/svg">
    <path d="M16.8182 7.47896H16.3636V5.81348C16.3636 5.59262 16.2679 5.38081 16.0974 5.22464C15.9269 5.06847 15.6957 4.98073 15.4545 4.98073C15.4661 4.39005 15.3016 3.80767 14.9786 3.29629C14.6557 2.78491 14.1866 2.36391 13.6218 2.07862C12.9688 1.74571 12.2215 1.60062 11.4773 1.66225C11.3849 1.67274 11.2911 1.66116 11.2051 1.62862C11.1191 1.59607 11.0437 1.54368 10.9864 1.47654C10.5907 1.00172 10.077 0.620223 9.4881 0.363738C8.89915 0.107253 8.2519 -0.0168176 7.6001 0.00183032C6.9483 0.0204783 6.31077 0.181307 5.74045 0.470958C5.17012 0.76061 4.68347 1.17072 4.32091 1.66724C3.39868 1.71811 2.53232 2.08918 1.89839 2.70484C1.26446 3.3205 0.91066 4.13442 0.909091 4.98073C0.667985 4.98073 0.436754 5.06847 0.266267 5.22464C0.0957789 5.38081 0 5.59262 0 5.81348V15.8064C0.00144351 16.9103 0.480802 17.9686 1.33293 18.7491C2.18505 19.5297 3.34037 19.9688 4.54545 19.9701H11.8182C13.0233 19.9688 14.1786 19.5297 15.0307 18.7491C15.8828 17.9686 16.3622 16.9103 16.3636 15.8064H16.8182C17.6621 15.8064 18.4714 15.4993 19.0681 14.9527C19.6648 14.4061 20 13.6648 20 12.8918V10.3936C20 9.62057 19.6648 8.87923 19.0681 8.33263C18.4714 7.78604 17.6621 7.47896 16.8182 7.47896ZM4.54545 3.31524C4.59774 3.31681 4.64977 3.32266 4.70091 3.33273C4.89682 3.36191 5.09778 3.33156 5.2731 3.2463C5.44841 3.16104 5.58845 3.02557 5.67182 2.86056C5.83803 2.53734 6.09226 2.25874 6.41004 2.05157C6.72782 1.8444 7.09845 1.71563 7.48629 1.67765C7.87412 1.63967 8.2661 1.69377 8.62451 1.83472C8.98291 1.97568 9.29568 2.19876 9.53273 2.4825C9.77636 2.77892 10.0998 3.01239 10.4713 3.1601C10.8429 3.30781 11.25 3.36471 11.6527 3.32524C12.0411 3.29722 12.4297 3.37578 12.7691 3.55091C13.0396 3.69684 13.2627 3.90633 13.4151 4.15772C13.5676 4.4091 13.644 4.69324 13.6364 4.98073H10C9.27668 4.98073 8.58299 5.24394 8.07153 5.71245C7.56006 6.18096 7.27273 6.81639 7.27273 7.47896V9.9772C7.27273 10.1981 7.17695 10.4099 7.00646 10.566C6.83597 10.7222 6.60474 10.8099 6.36364 10.8099C6.12253 10.8099 5.8913 10.7222 5.72081 10.566C5.55032 10.4099 5.45455 10.1981 5.45455 9.9772V7.47896C5.45455 6.81639 5.16721 6.18096 4.65575 5.71245C4.14428 5.24394 3.45059 4.98073 2.72727 4.98073C2.72727 4.53902 2.91883 4.11539 3.25981 3.80305C3.60078 3.49071 4.06324 3.31524 4.54545 3.31524V3.31524ZM14.5455 15.8064C14.5455 16.469 14.2581 17.1044 13.7467 17.5729C13.2352 18.0414 12.5415 18.3046 11.8182 18.3046H4.54545C3.82214 18.3046 3.12844 18.0414 2.61698 17.5729C2.10552 17.1044 1.81818 16.469 1.81818 15.8064V6.64622H2.72727C2.96838 6.64622 3.19961 6.73396 3.3701 6.89013C3.54058 7.0463 3.63636 7.25811 3.63636 7.47896V9.9772C3.63636 10.6398 3.9237 11.2752 4.43516 11.7437C4.94663 12.2122 5.64032 12.4754 6.36364 12.4754C7.08695 12.4754 7.78065 12.2122 8.29211 11.7437C8.80357 11.2752 9.09091 10.6398 9.09091 9.9772V7.47896C9.09091 7.25811 9.18669 7.0463 9.35718 6.89013C9.52766 6.73396 9.75889 6.64622 10 6.64622H14.5455V15.8064ZM18.1818 12.8918C18.1818 13.2231 18.0381 13.5408 17.7824 13.7751C17.5267 14.0093 17.1798 14.1409 16.8182 14.1409H16.3636V9.14445H16.8182C17.1798 9.14445 17.5267 9.27606 17.7824 9.51031C18.0381 9.74457 18.1818 10.0623 18.1818 10.3936V12.8918Z" fill="white"/>
    </svg>
