<svg width="19" height="19" viewBox="0 0 19 19" fill="none" xmlns="http://www.w3.org/2000/svg">
    <g clip-path="url(#clip0_736_7454)">
        <path d="M10.8837 13.4502L8.4372 15.8967C7.7269 16.588 6.77296 16.9719 5.78179 16.9652C4.79062 16.9586 3.84192 16.562 3.14094 15.8612C2.43996 15.1604 2.04307 14.2118 2.03615 13.2207C2.02923 12.2295 2.41283 11.2755 3.10395 10.565L5.55046 8.11621C5.69109 7.97548 5.77005 7.78465 5.76998 7.5857C5.76991 7.38675 5.69081 7.19597 5.55008 7.05534C5.40935 6.91471 5.21852 6.83575 5.01956 6.83582C4.82061 6.83589 4.62984 6.91499 4.4892 7.05572L2.04345 9.50446C1.05516 10.4933 0.500137 11.8341 0.500488 13.2322C0.50084 14.6302 1.05654 15.9708 2.04533 16.9591C3.03412 17.9474 4.37502 18.5024 5.77303 18.502C7.17104 18.5017 8.51166 17.946 9.49995 16.9572L11.9465 14.5107C12.0831 14.3693 12.1587 14.1798 12.157 13.9832C12.1553 13.7865 12.0764 13.5984 11.9373 13.4593C11.7983 13.3203 11.6102 13.2414 11.4135 13.2397C11.2169 13.238 11.0274 13.3136 10.886 13.4502H10.8837Z" fill="#070B24" />
        <path d="M16.9581 2.04607C16.4701 1.55468 15.8894 1.16503 15.2497 0.899696C14.6099 0.634359 13.9239 0.498613 13.2314 0.500324C12.5392 0.498485 11.8535 0.633882 11.2139 0.898687C10.5744 1.16349 9.99365 1.55245 9.50536 2.04307L7.05511 4.49032C6.91438 4.63096 6.83528 4.82173 6.83521 5.02068C6.83513 5.21964 6.9141 5.41047 7.05473 5.5512C7.19536 5.69193 7.38614 5.77103 7.58509 5.7711C7.78404 5.77117 7.97488 5.69221 8.11561 5.55157L10.5644 3.10507C10.9135 2.75381 11.3289 2.4753 11.7864 2.28567C12.244 2.09604 12.7346 1.99905 13.2299 2.00032C13.9756 2.00057 14.7044 2.2219 15.3244 2.63632C15.9443 3.05075 16.4274 3.63967 16.7127 4.32864C16.998 5.01761 17.0726 5.77569 16.9271 6.50706C16.7817 7.23842 16.4226 7.91024 15.8954 8.43757L13.4489 10.8841C13.3081 11.0248 13.2291 11.2157 13.2291 11.4147C13.2291 11.6137 13.3081 11.8046 13.4489 11.9453C13.5896 12.0861 13.7805 12.1651 13.9795 12.1651C14.1785 12.1651 14.3694 12.0861 14.5101 11.9453L16.9566 9.50032C17.9436 8.51115 18.4981 7.1709 18.4984 5.77351C18.4987 4.37612 17.9447 3.03565 16.9581 2.04607Z" fill="#070B24" />
        <path d="M11.2199 6.71983L6.71993 11.2198C6.6483 11.289 6.59116 11.3718 6.55186 11.4633C6.51255 11.5548 6.49186 11.6532 6.491 11.7528C6.49013 11.8523 6.50911 11.9511 6.54682 12.0433C6.58453 12.1355 6.64022 12.2192 6.71064 12.2896C6.78106 12.36 6.8648 12.4157 6.95697 12.4534C7.04914 12.4911 7.1479 12.5101 7.24748 12.5093C7.34707 12.5084 7.44548 12.4877 7.53699 12.4484C7.62849 12.4091 7.71125 12.3519 7.78043 12.2803L12.2804 7.78032C12.4171 7.63887 12.4926 7.44942 12.4909 7.25277C12.4892 7.05613 12.4104 6.86802 12.2713 6.72896C12.1322 6.58991 11.9441 6.51103 11.7475 6.50932C11.5508 6.50761 11.3614 6.58321 11.2199 6.71983Z" fill="#070B24" />
    </g>
    <defs>
        <clipPath id="clip0_736_7454">
            <rect width="18" height="18" fill="white" transform="translate(0.5 0.5)" />
        </clipPath>
    </defs>
</svg>
