<svg width="24" height="25" viewBox="0 0 24 25" fill="none" xmlns="http://www.w3.org/2000/svg">
    <g clip-path="url(#clip0_736_7441)">
        <path d="M22.766 5.56229C22.4006 5.41008 21.9981 5.37007 21.6099 5.44736C21.2217 5.52465 20.8653 5.71574 20.586 5.99629L18 8.58229L13.414 3.99629C13.0389 3.62135 12.5303 3.41072 12 3.41072C11.4697 3.41072 10.9611 3.62135 10.586 3.99629L6 8.58229L3.414 5.99629C3.1343 5.71667 2.77797 5.52626 2.39006 5.44913C2.00216 5.37199 1.60009 5.4116 1.23469 5.56294C0.869291 5.71428 0.556965 5.97056 0.337197 6.29938C0.117428 6.6282 8.44486e-05 7.01479 0 7.41029L0 17.9963C0.00158786 19.3219 0.528882 20.5927 1.46622 21.5301C2.40356 22.4674 3.67441 22.9947 5 22.9963H19C20.3256 22.9947 21.5964 22.4674 22.5338 21.5301C23.4711 20.5927 23.9984 19.3219 24 17.9963V7.41029C24.0001 7.01476 23.8829 6.62808 23.6633 6.29914C23.4436 5.97021 23.1314 5.71378 22.766 5.56229ZM22 17.9963C22 18.7919 21.6839 19.555 21.1213 20.1176C20.5587 20.6802 19.7956 20.9963 19 20.9963H5C4.20435 20.9963 3.44129 20.6802 2.87868 20.1176C2.31607 19.555 2 18.7919 2 17.9963V7.41029L5.293 10.7033C5.48053 10.8908 5.73484 10.9961 6 10.9961C6.26516 10.9961 6.51947 10.8908 6.707 10.7033L12 5.41029L17.293 10.7033C17.4805 10.8908 17.7348 10.9961 18 10.9961C18.2652 10.9961 18.5195 10.8908 18.707 10.7033L22 7.41029V17.9963Z" fill="url(#paint0_linear_736_7441)" />
    </g>
    <defs>
        <linearGradient id="paint0_linear_736_7441" x1="-0.537313" y1="13.6888" x2="23.4627" y2="13.6888" gradientUnits="userSpaceOnUse">
            <stop stop-color="#4694FF" />
            <stop offset="1" stop-color="#30E584" />
        </linearGradient>
        <clipPath id="clip0_736_7441">
            <rect width="24" height="24" fill="white" transform="translate(0 0.996338)" />
        </clipPath>
    </defs>
</svg>
