<svg width="12" height="12" viewBox="0 0 12 12" fill="none" xmlns="http://www.w3.org/2000/svg">
    <path d="M10.088 2.02937C9.29103 1.23243 8.27567 0.689715 7.17029 0.469842C6.06492 0.249968 4.91916 0.362815 3.87792 0.794112C2.83668 1.22541 1.94671 1.95579 1.32056 2.89288C0.694418 3.82997 0.360214 4.9317 0.360214 6.05873C0.360214 7.18576 0.694419 8.28749 1.32056 9.22458C1.94671 10.1617 2.83668 10.8921 3.87792 11.3233C4.91916 11.7546 6.06492 11.8675 7.17029 11.6476C8.27567 11.4277 9.29103 10.885 10.088 10.0881C11.1551 9.01864 11.7544 7.56954 11.7544 6.05873C11.7544 4.54793 11.1551 3.09882 10.088 2.02937ZM2.70079 9.41653C2.03668 8.75242 1.58442 7.90629 1.40119 6.98515C1.21796 6.064 1.312 5.1092 1.67141 4.2415C2.03083 3.3738 2.63947 2.63216 3.42039 2.11037C4.2013 1.58858 5.1194 1.31008 6.0586 1.31008C6.99779 1.31008 7.91589 1.58858 8.6968 2.11037C9.47772 2.63216 10.0864 3.3738 10.4458 4.2415C10.8052 5.1092 10.8992 6.064 10.716 6.98515C10.5328 7.90629 10.0805 8.75242 9.4164 9.41653C8.52518 10.3058 7.31759 10.8052 6.0586 10.8052C4.7996 10.8052 3.59201 10.3058 2.70079 9.41653ZM7.7375 7.73763C7.64844 7.82669 7.52766 7.87672 7.40172 7.87672C7.27577 7.87672 7.15499 7.82669 7.06594 7.73763L6.0586 6.73029L5.05125 7.73763C4.9622 7.82669 4.84142 7.87672 4.71547 7.87672C4.58953 7.87672 4.46875 7.82669 4.37969 7.73763C4.29064 7.64858 4.24061 7.52779 4.24061 7.40185C4.24061 7.27591 4.29064 7.15513 4.37969 7.06607L5.38703 6.05873L4.37969 5.05139C4.29064 4.96234 4.24061 4.84155 4.24061 4.71561C4.24061 4.58967 4.29064 4.46888 4.37969 4.37983C4.46875 4.29077 4.58953 4.24074 4.71547 4.24074C4.84142 4.24074 4.9622 4.29077 5.05125 4.37983L6.0586 5.38717L7.06594 4.37983C7.15499 4.29077 7.27577 4.24074 7.40172 4.24074C7.52766 4.24074 7.64844 4.29077 7.7375 4.37983C7.82655 4.46888 7.87658 4.58967 7.87658 4.71561C7.87658 4.84155 7.82655 4.96234 7.7375 5.05139L6.73016 6.05873L7.7375 7.06607C7.82655 7.15513 7.87658 7.27591 7.87658 7.40185C7.87658 7.52779 7.82655 7.64858 7.7375 7.73763Z" fill="white" />
</svg>
