<svg width="14" height="20" viewBox="0 0 14 20" fill="none" xmlns="http://www.w3.org/2000/svg">
    <path d="M8.51789 3.33339C9.28419 3.33406 10.0189 3.60363 10.5608 4.08296C11.1026 4.56228 11.4073 5.21219 11.4081 5.89006C11.4081 6.11107 11.5073 6.32304 11.684 6.47932C11.8607 6.6356 12.1003 6.72339 12.3501 6.72339C12.6 6.72339 12.8396 6.6356 13.0163 6.47932C13.1929 6.32304 13.2922 6.11107 13.2922 5.89006V5.83339C13.2922 5.81756 13.2922 5.80339 13.2922 5.78756C13.2608 4.68567 12.7441 3.63821 11.8522 2.86844C10.9604 2.09867 9.76393 1.66746 8.51789 1.66673H7.6399V0.833394C7.6399 0.612381 7.54065 0.400419 7.36398 0.244139C7.18732 0.0878584 6.9477 6.10352e-05 6.69786 6.10352e-05C6.44801 6.10352e-05 6.2084 0.0878584 6.03173 0.244139C5.85506 0.400419 5.75581 0.612381 5.75581 0.833394V1.66673H4.87782C3.74483 1.6678 2.6492 2.02526 1.78676 2.67521C0.924321 3.32516 0.351283 4.22525 0.170074 5.21458C-0.011135 6.20391 0.211296 7.21801 0.79761 8.07561C1.38392 8.93321 2.2959 9.57841 3.37054 9.89589L5.75581 10.6001V16.6667H4.87782C4.11152 16.6661 3.37682 16.3965 2.83496 15.9172C2.2931 15.4378 1.98836 14.7879 1.98761 14.1101C1.98761 13.889 1.88836 13.6771 1.71169 13.5208C1.53502 13.3645 1.29541 13.2767 1.04556 13.2767C0.795717 13.2767 0.556104 13.3645 0.379435 13.5208C0.202767 13.6771 0.103516 13.889 0.103516 14.1101V14.1667C0.103516 14.1826 0.103516 14.1967 0.103516 14.2126C0.134955 15.3145 0.651658 16.3619 1.5435 17.1317C2.43534 17.9015 3.63178 18.3327 4.87782 18.3334H5.75581V19.1667C5.75581 19.3877 5.85506 19.5997 6.03173 19.756C6.2084 19.9123 6.44801 20.0001 6.69786 20.0001C6.9477 20.0001 7.18732 19.9123 7.36398 19.756C7.54065 19.5997 7.6399 19.3877 7.6399 19.1667V18.3334H8.51789C9.65088 18.3323 10.7465 17.9749 11.6089 17.3249C12.4714 16.675 13.0444 15.7749 13.2256 14.7855C13.4068 13.7962 13.1844 12.7821 12.5981 11.9245C12.0118 11.0669 11.0998 10.4217 10.0252 10.1042L7.6399 9.40006V3.33339H8.51789ZM9.43168 11.6842C10.083 11.876 10.636 12.2666 10.9915 12.7861C11.3469 13.3056 11.4818 13.9201 11.3719 14.5195C11.2619 15.1189 10.9144 15.6642 10.3915 16.0576C9.86854 16.451 9.20438 16.667 8.51789 16.6667H7.6399V11.1559L9.43168 11.6842ZM5.75581 8.84423L3.96591 8.31589C3.31471 8.12417 2.76189 7.7337 2.40639 7.21438C2.05088 6.69506 1.91589 6.08077 2.02558 5.48146C2.13527 4.88214 2.48247 4.33691 3.00505 3.94335C3.52764 3.54978 4.19149 3.33357 4.87782 3.33339H5.75581V8.84423Z" fill="#070B24"/>
    </svg>
