<svg width="24" height="25" viewBox="0 0 24 25" fill="none" xmlns="http://www.w3.org/2000/svg">
    <g clip-path="url(#clip0_736_7435)">
        <path d="M16 0.996338H15.87C15.4225 1.00059 14.989 1.15335 14.6377 1.43064C14.2864 1.70792 14.0371 2.09403 13.929 2.52834C13.8132 2.95118 13.5617 3.32426 13.2132 3.59019C12.8647 3.85613 12.4384 4.00017 12 4.00017C11.5616 4.00017 11.1353 3.85613 10.7868 3.59019C10.4383 3.32426 10.1868 2.95118 10.071 2.52834C9.9629 2.09403 9.71362 1.70792 9.36231 1.43064C9.01099 1.15335 8.57754 1.00059 8.13 0.996338L8 0.996338C6.67441 0.997926 5.40356 1.52522 4.46622 2.46256C3.52888 3.3999 3.00159 4.67074 3 5.99634V21.9963C3 22.792 3.31607 23.555 3.87868 24.1177C4.44129 24.6803 5.20435 24.9963 6 24.9963H8.13C8.57754 24.9921 9.01099 24.8393 9.36231 24.562C9.71362 24.2848 9.9629 23.8986 10.071 23.4643C10.1868 23.0415 10.4383 22.6684 10.7868 22.4025C11.1353 22.1366 11.5616 21.9925 12 21.9925C12.4384 21.9925 12.8647 22.1366 13.2132 22.4025C13.5617 22.6684 13.8132 23.0415 13.929 23.4643C14.0371 23.8986 14.2864 24.2848 14.6377 24.562C14.989 24.8393 15.4225 24.9921 15.87 24.9963H18C18.7956 24.9963 19.5587 24.6803 20.1213 24.1177C20.6839 23.555 21 22.792 21 21.9963V5.99634C20.9984 4.67074 20.4711 3.3999 19.5338 2.46256C18.5964 1.52522 17.3256 0.997926 16 0.996338V0.996338ZM18 22.9963L15.857 22.9333C15.6221 22.0848 15.1138 21.3374 14.4109 20.8071C13.708 20.2768 12.8498 19.9933 11.9693 20.0005C11.0889 20.0077 10.2354 20.3052 9.54122 20.8468C8.84706 21.3885 8.35101 22.144 8.13 22.9963H6C5.73478 22.9963 5.48043 22.891 5.29289 22.7034C5.10536 22.5159 5 22.2616 5 21.9963V17.9963H7C7.26522 17.9963 7.51957 17.891 7.70711 17.7034C7.89464 17.5159 8 17.2616 8 16.9963C8 16.7311 7.89464 16.4768 7.70711 16.2892C7.51957 16.1017 7.26522 15.9963 7 15.9963H5V5.99634C5 5.20069 5.31607 4.43763 5.87868 3.87502C6.44129 3.31241 7.20435 2.99634 8 2.99634L8.143 3.05934C8.37722 3.90276 8.881 4.64638 9.57742 5.17669C10.2738 5.707 11.1247 5.99486 12 5.99634C12.8872 5.98879 13.7476 5.69164 14.4503 5.1501C15.153 4.60856 15.6596 3.85228 15.893 2.99634H16C16.7956 2.99634 17.5587 3.31241 18.1213 3.87502C18.6839 4.43763 19 5.20069 19 5.99634V15.9963H17C16.7348 15.9963 16.4804 16.1017 16.2929 16.2892C16.1054 16.4768 16 16.7311 16 16.9963C16 17.2616 16.1054 17.5159 16.2929 17.7034C16.4804 17.891 16.7348 17.9963 17 17.9963H19V21.9963C19 22.2616 18.8946 22.5159 18.7071 22.7034C18.5196 22.891 18.2652 22.9963 18 22.9963Z" fill="url(#paint0_linear_736_7435)" />
        <path d="M13 15.9963H11C10.7348 15.9963 10.4804 16.1017 10.2929 16.2892C10.1054 16.4768 10 16.7311 10 16.9963C10 17.2616 10.1054 17.5159 10.2929 17.7035C10.4804 17.891 10.7348 17.9963 11 17.9963H13C13.2652 17.9963 13.5196 17.891 13.7071 17.7035C13.8946 17.5159 14 17.2616 14 16.9963C14 16.7311 13.8946 16.4768 13.7071 16.2892C13.5196 16.1017 13.2652 15.9963 13 15.9963Z" fill="url(#paint1_linear_736_7435)" />
    </g>
    <defs>
        <linearGradient id="paint0_linear_736_7435" x1="3" y1="12.9395" x2="21" y2="12.9395" gradientUnits="userSpaceOnUse">
            <stop stop-color="#FE457E" />
            <stop offset="1" stop-color="#B53BFE" />
        </linearGradient>
        <linearGradient id="paint1_linear_736_7435" x1="10" y1="16.9916" x2="14" y2="16.9916" gradientUnits="userSpaceOnUse">
            <stop stop-color="#FE457E" />
            <stop offset="1" stop-color="#B53BFE" />
        </linearGradient>
        <clipPath id="clip0_736_7435">
            <rect width="24" height="24" fill="white" transform="translate(0 0.996338)" />
        </clipPath>
    </defs>
</svg>
