<svg width="25" height="24" viewBox="0 0 25 24" fill="none" xmlns="http://www.w3.org/2000/svg">
    <g clip-path="url(#clip0_749_3342)">
        <path d="M23.6469 9.471L22.8599 8.4C22.3145 7.65793 21.6026 7.0542 20.7815 6.63736C19.9603 6.22052 19.0528 6.00222 18.1319 6H6.88288C5.9809 6.00236 5.0915 6.21176 4.28323 6.61209C3.47495 7.01241 2.76938 7.59296 2.22087 8.309L1.39987 9.383C0.733357 10.2623 0.419983 11.3592 0.521396 12.4579C0.622808 13.5566 1.13167 14.5776 1.94787 15.32L9.93788 23.027C10.6396 23.6528 11.5476 23.9979 12.4879 23.996C13.4481 23.9941 14.3739 23.638 15.0879 22.996L23.0239 15.363C23.8448 14.6361 24.3639 13.6283 24.4792 12.5379C24.5945 11.4476 24.2976 10.3535 23.6469 9.471ZM21.2469 9.578L22.0339 10.652C22.1129 10.7619 22.1825 10.8783 22.2419 11H17.4509C17.3785 10.5211 17.2537 10.0516 17.0789 9.6L16.4389 8H18.1319C18.7383 8.00115 19.336 8.1445 19.877 8.41856C20.418 8.69261 20.8872 9.08973 21.2469 9.578ZM12.4899 20.088L9.72088 13.818C9.62072 13.5528 9.54507 13.279 9.49488 13H15.4469C15.4049 13.2199 15.3461 13.4362 15.2709 13.647L12.4899 20.088ZM9.59988 11C9.6417 10.8207 9.69412 10.6441 9.75688 10.471L10.7409 8H14.2849L15.2219 10.343C15.3041 10.5569 15.371 10.7765 15.4219 11H9.59988ZM3.81088 9.521C4.17244 9.04935 4.63741 8.66695 5.17 8.40326C5.70259 8.13957 6.28858 8.00161 6.88288 8H8.58288L7.89988 9.729C7.73509 10.1392 7.61213 10.5651 7.53288 11H2.74487C2.81346 10.8587 2.89622 10.7246 2.99188 10.6L3.81088 9.521ZM3.31088 13.854C3.05 13.6174 2.84505 13.3257 2.71088 13H7.48288C7.54919 13.5388 7.6791 14.0678 7.86988 14.576L10.6969 20.976L3.31088 13.854ZM14.2709 21.014L17.1249 14.4C17.2905 13.9474 17.4059 13.4779 17.4689 13H22.2999C22.1583 13.3433 21.9421 13.6507 21.6669 13.9L14.2709 21.014Z" fill="url(#paint0_linear_749_3342)" />
        <path d="M12.5 4C12.7652 4 13.0196 3.89464 13.2071 3.70711C13.3947 3.51957 13.5 3.26522 13.5 3V1C13.5 0.734784 13.3947 0.48043 13.2071 0.292893C13.0196 0.105357 12.7652 0 12.5 0C12.2348 0 11.9804 0.105357 11.7929 0.292893C11.6054 0.48043 11.5 0.734784 11.5 1V3C11.5 3.26522 11.6054 3.51957 11.7929 3.70711C11.9804 3.89464 12.2348 4 12.5 4Z" fill="url(#paint1_linear_749_3342)" />
        <path d="M17.0528 3.89987C17.1709 3.95923 17.2995 3.9946 17.4313 4.00394C17.5632 4.01328 17.6955 3.9964 17.8208 3.95428C17.946 3.91215 18.0617 3.84562 18.1611 3.75853C18.2605 3.67144 18.3416 3.56551 18.3998 3.44687L19.3998 1.44687C19.5184 1.2095 19.5378 0.934758 19.4538 0.683085C19.3697 0.431411 19.1892 0.22342 18.9518 0.104868C18.7144 -0.0136833 18.4397 -0.0330851 18.188 0.0509312C17.9363 0.134947 17.7284 0.3155 17.6098 0.552868L16.6098 2.55287C16.5501 2.67033 16.5142 2.79844 16.5041 2.92982C16.4941 3.06121 16.5101 3.19329 16.5513 3.31846C16.5924 3.44364 16.6579 3.55944 16.744 3.65922C16.8301 3.759 16.935 3.84078 17.0528 3.89987Z" fill="url(#paint2_linear_749_3342)" />
        <path d="M6.60506 3.44687C6.72361 3.6849 6.93186 3.86609 7.18401 3.95057C7.43615 4.03506 7.71152 4.01592 7.94956 3.89737C8.18759 3.77882 8.36878 3.57056 8.45326 3.31842C8.53775 3.06628 8.51861 2.7909 8.40006 2.55287L7.40006 0.552868C7.34136 0.435335 7.26008 0.330515 7.16087 0.244393C7.06166 0.15827 6.94646 0.0925318 6.82184 0.0509312C6.57017 -0.0330851 6.29543 -0.0136833 6.05806 0.104868C5.82069 0.22342 5.64014 0.431411 5.55612 0.683085C5.4721 0.934758 5.4915 1.2095 5.61006 1.44687L6.60506 3.44687Z" fill="url(#paint3_linear_749_3342)" />
    </g>
    <defs>
        <linearGradient id="paint0_linear_749_3342" x1="24.5036" y1="14.9554" x2="0.502686" y2="14.9554" gradientUnits="userSpaceOnUse">
            <stop stop-color="#4694FF" />
            <stop offset="1" stop-color="#B53BFE" />
        </linearGradient>
        <linearGradient id="paint1_linear_749_3342" x1="13.5" y1="1.99052" x2="11.5" y2="1.99052" gradientUnits="userSpaceOnUse">
            <stop stop-color="#4694FF" />
            <stop offset="1" stop-color="#B53BFE" />
        </linearGradient>
        <linearGradient id="paint2_linear_749_3342" x1="19.5052" y1="1.99345" x2="16.5012" y2="1.99345" gradientUnits="userSpaceOnUse">
            <stop stop-color="#4694FF" />
            <stop offset="1" stop-color="#B53BFE" />
        </linearGradient>
        <linearGradient id="paint3_linear_749_3342" x1="8.50521" y1="1.9915" x2="5.50464" y2="1.9915" gradientUnits="userSpaceOnUse">
            <stop stop-color="#4694FF" />
            <stop offset="1" stop-color="#B53BFE" />
        </linearGradient>
        <clipPath id="clip0_749_3342">
            <rect width="24" height="24" fill="white" transform="translate(0.5)" />
        </clipPath>
    </defs>
</svg>
