<svg width="35" height="36" viewBox="0 0 35 36" fill="none" xmlns="http://www.w3.org/2000/svg">
    <path d="M34.8873 10.3604C34.8677 8.8866 34.5921 7.4274 34.0729 6.04813C33.6227 4.88473 32.935 3.82815 32.0539 2.9459C31.1727 2.06365 30.1174 1.37513 28.9555 0.924345C27.5956 0.413245 26.159 0.136883 24.7068 0.10703C22.8371 0.023352 22.2443 0 17.4981 0C12.7518 0 12.1435 1.3411e-07 10.2874 0.10703C8.83583 0.137103 7.39989 0.413461 6.04065 0.924345C4.8785 1.37482 3.82306 2.06322 2.94187 2.94551C2.06067 3.8278 1.37312 4.88455 0.923201 6.04813C0.411711 7.40864 0.13629 8.84668 0.108841 10.3001C0.0252665 12.1741 0 12.7676 0 17.5197C0 22.2718 -2.23517e-08 22.879 0.108841 24.7394C0.137994 26.195 0.412039 27.6311 0.923201 28.9952C1.37387 30.1585 2.06194 31.2148 2.94343 32.0967C3.82492 32.9786 4.88046 33.6667 6.04259 34.1171C7.39811 34.6487 8.8343 34.9449 10.2893 34.9928C12.161 35.0764 12.7538 35.1017 17.5 35.1017C22.2462 35.1017 22.8546 35.1017 24.7107 34.9928C26.1628 34.9641 27.5995 34.6884 28.9594 34.1774C30.121 33.7261 31.176 33.0374 32.0571 32.1552C32.9382 31.273 33.6261 30.2167 34.0768 29.0536C34.588 27.6914 34.862 26.2553 34.8912 24.7977C34.9747 22.9257 35 22.3322 35 17.5781C34.9961 12.826 34.9961 12.2228 34.8873 10.3604ZM17.4864 26.5063C12.5225 26.5063 8.50122 22.4801 8.50122 17.51C8.50122 12.54 12.5225 8.5137 17.4864 8.5137C19.8694 8.5137 22.1548 9.46152 23.8399 11.1487C25.5249 12.8358 26.4716 15.124 26.4716 17.51C26.4716 19.896 25.5249 22.1842 23.8399 23.8714C22.1548 25.5585 19.8694 26.5063 17.4864 26.5063ZM26.8292 10.2787C26.554 10.279 26.2814 10.2249 26.0271 10.1196C25.7728 10.0142 25.5417 9.85971 25.3471 9.66486C25.1525 9.47001 24.9982 9.23865 24.893 8.98402C24.7878 8.72939 24.7338 8.45649 24.734 8.18094C24.734 7.90558 24.7882 7.63292 24.8934 7.37853C24.9987 7.12413 25.1529 6.89298 25.3474 6.69827C25.5419 6.50357 25.7727 6.34912 26.0268 6.24374C26.2809 6.13837 26.5532 6.08413 26.8282 6.08413C27.1032 6.08413 27.3756 6.13837 27.6296 6.24374C27.8837 6.34912 28.1146 6.50357 28.309 6.69827C28.5035 6.89298 28.6578 7.12413 28.763 7.37853C28.8683 7.63292 28.9224 7.90558 28.9224 8.18094C28.9224 9.34075 27.9856 10.2787 26.8292 10.2787Z" fill="url(#paint0_linear_862_2469)" />
    <defs>
        <linearGradient id="paint0_linear_862_2469" x1="3.50538e-07" y1="17.4677" x2="35" y2="17.4677" gradientUnits="userSpaceOnUse">
            <stop stop-color="#FE457E" />
            <stop offset="1" stop-color="#B53BFE" />
        </linearGradient>
    </defs>
</svg>
