<svg width="12" height="11" viewBox="0 0 12 11" fill="none" xmlns="http://www.w3.org/2000/svg">
    <path fill-rule="evenodd" clip-rule="evenodd" d="M7.50069 0.395807L10.1353 1.13688C10.7169 1.30238 11.2045 1.6702 11.4933 2.16134C11.7822 2.65248 11.8492 3.22779 11.6801 3.76373L10.0973 8.17748C9.95604 8.61448 9.66422 8.99789 9.26545 9.27045C8.86668 9.54302 8.38236 9.69011 7.88481 9.68975C7.77797 9.68911 7.6713 9.68174 7.56556 9.66768C7.35101 9.92215 7.07586 10.1284 6.76108 10.2706C6.44631 10.4129 6.10022 10.4874 5.74922 10.4885H2.96911C2.35489 10.4879 1.76604 10.2641 1.33172 9.86623C0.897402 9.46838 0.653079 8.92899 0.652344 8.36635V4.12196C0.653079 3.55932 0.897402 3.01993 1.33172 2.62208C1.76604 2.22424 2.35489 2.00044 2.96911 1.99976H4.52968L4.61679 1.77099C4.80527 1.24157 5.2129 0.80098 5.75212 0.543852C6.29135 0.286724 6.91915 0.23357 7.50069 0.395807ZM1.98619 9.26672C2.24687 9.50552 2.60044 9.63967 2.96911 9.63967H5.74922C6.11789 9.63967 6.47146 9.50552 6.73214 9.26672C6.99283 9.02793 7.13928 8.70406 7.13928 8.36635V4.12196C7.13928 3.78425 6.99283 3.46038 6.73214 3.22159C6.47146 2.98279 6.11789 2.84864 5.74922 2.84864H2.96911C2.60044 2.84864 2.24687 2.98279 1.98619 3.22159C1.7255 3.46038 1.57905 3.78425 1.57905 4.12196V8.36635C1.57905 8.70406 1.7255 9.02793 1.98619 9.26672ZM9.21278 7.92621L10.7937 3.51204C10.8918 3.19174 10.8494 2.84902 10.6756 2.55694C10.5018 2.26485 10.2103 2.04649 9.86333 1.94841L7.22871 1.20734C6.88653 1.11203 6.51742 1.1412 6.19812 1.28879C5.87882 1.43638 5.6339 1.69102 5.5143 1.99976H5.74922C6.36344 2.00044 6.95229 2.22424 7.38661 2.62208C7.82093 3.01993 8.06525 3.55932 8.06598 4.12196V8.36635C8.06553 8.52304 8.04611 8.6792 8.00807 8.83196C8.28485 8.80899 8.5477 8.71035 8.76253 8.54884C8.97735 8.38733 9.13422 8.1704 9.21278 7.92621ZM4.95504 7.67791C5.49716 7.25899 6.21257 6.43515 6.21257 5.81972C6.21257 5.59458 6.11494 5.37866 5.94115 5.21947C5.76736 5.06027 5.53165 4.97084 5.28587 4.97084C5.1973 4.97084 5.11005 4.98245 5.02652 5.00476C4.94238 4.73988 4.67541 4.54631 4.35909 4.54631C4.04278 4.54631 3.77583 4.73986 3.69167 5.00472C3.60819 4.98244 3.52098 4.97084 3.43246 4.97084C3.18668 4.97084 2.95097 5.06027 2.77718 5.21947C2.60339 5.37866 2.50575 5.59458 2.50575 5.81972C2.50575 6.43515 3.22117 7.25899 3.76329 7.67791C3.92986 7.807 4.14098 7.87784 4.35916 7.87784C4.57735 7.87784 4.78847 7.807 4.95504 7.67791ZM4.35916 5.81972C4.35916 5.81969 4.35916 5.81966 4.35916 5.81963V5.81972Z" fill="white" />
</svg>
