<svg width="25" height="25" viewBox="0 0 25 25" fill="none" xmlns="http://www.w3.org/2000/svg">
    <g clip-path="url(#clip0_736_7422)">
        <path d="M24.5 10.9965C24.5 10.9235 24.492 10.8507 24.476 10.7795L23.176 4.91148C22.9345 3.79772 22.3173 2.80086 21.4281 2.08806C20.5389 1.37526 19.4316 0.989863 18.292 0.996483H6.708C5.56905 0.990783 4.46273 1.3766 3.57433 2.08933C2.68593 2.80205 2.0694 3.7984 1.828 4.91148L0.524001 10.7795C0.508009 10.8507 0.49996 10.9235 0.500001 10.9965V11.9965C0.499195 12.9701 0.854923 13.9103 1.5 14.6395V19.9965C1.50159 21.3221 2.02888 22.5929 2.96622 23.5303C3.90356 24.4676 5.17441 24.9949 6.5 24.9965H18.5C19.8256 24.9949 21.0964 24.4676 22.0338 23.5303C22.9711 22.5929 23.4984 21.3221 23.5 19.9965V14.6395C24.1451 13.9103 24.5008 12.9701 24.5 11.9965V10.9965ZM2.5 11.1055L3.78 5.34548C3.92504 4.67774 4.29502 4.08006 4.82801 3.65246C5.36101 3.22486 6.02469 2.99329 6.708 2.99648H7.5V5.99648C7.5 6.2617 7.60536 6.51605 7.7929 6.70359C7.98043 6.89113 8.23479 6.99648 8.5 6.99648C8.76522 6.99648 9.01957 6.89113 9.20711 6.70359C9.39464 6.51605 9.5 6.2617 9.5 5.99648V2.99648H15.5V5.99648C15.5 6.2617 15.6054 6.51605 15.7929 6.70359C15.9804 6.89113 16.2348 6.99648 16.5 6.99648C16.7652 6.99648 17.0196 6.89113 17.2071 6.70359C17.3946 6.51605 17.5 6.2617 17.5 5.99648V2.99648H18.292C18.9753 2.99329 19.639 3.22486 20.172 3.65246C20.705 4.08006 21.075 4.67774 21.22 5.34548L22.5 11.1055V11.9965C22.5 12.5269 22.2893 13.0356 21.9142 13.4107C21.5391 13.7858 21.0304 13.9965 20.5 13.9965H19.5C18.9696 13.9965 18.4609 13.7858 18.0858 13.4107C17.7107 13.0356 17.5 12.5269 17.5 11.9965C17.5 11.7313 17.3946 11.4769 17.2071 11.2894C17.0196 11.1018 16.7652 10.9965 16.5 10.9965C16.2348 10.9965 15.9804 11.1018 15.7929 11.2894C15.6054 11.4769 15.5 11.7313 15.5 11.9965C15.5 12.5269 15.2893 13.0356 14.9142 13.4107C14.5391 13.7858 14.0304 13.9965 13.5 13.9965H11.5C10.9696 13.9965 10.4609 13.7858 10.0858 13.4107C9.71072 13.0356 9.5 12.5269 9.5 11.9965C9.5 11.7313 9.39464 11.4769 9.20711 11.2894C9.01957 11.1018 8.76522 10.9965 8.5 10.9965C8.23479 10.9965 7.98043 11.1018 7.7929 11.2894C7.60536 11.4769 7.5 11.7313 7.5 11.9965C7.5 12.5269 7.28929 13.0356 6.91422 13.4107C6.53914 13.7858 6.03044 13.9965 5.5 13.9965H4.5C3.96957 13.9965 3.46086 13.7858 3.08579 13.4107C2.71072 13.0356 2.5 12.5269 2.5 11.9965V11.1055ZM18.5 22.9965H6.5C5.70435 22.9965 4.94129 22.6804 4.37868 22.1178C3.81607 21.5552 3.5 20.7921 3.5 19.9965V15.8695C3.8266 15.9541 4.16263 15.9967 4.5 15.9965H5.5C6.06782 15.9968 6.62916 15.8759 7.14651 15.6419C7.66386 15.4079 8.1253 15.0661 8.5 14.6395C8.8747 15.0661 9.33615 15.4079 9.8535 15.6419C10.3708 15.8759 10.9322 15.9968 11.5 15.9965H13.5C14.0678 15.9968 14.6292 15.8759 15.1465 15.6419C15.6639 15.4079 16.1253 15.0661 16.5 14.6395C16.8747 15.0661 17.3361 15.4079 17.8535 15.6419C18.3708 15.8759 18.9322 15.9968 19.5 15.9965H20.5C20.8374 15.9967 21.1734 15.9541 21.5 15.8695V19.9965C21.5 20.7921 21.1839 21.5552 20.6213 22.1178C20.0587 22.6804 19.2957 22.9965 18.5 22.9965Z" fill="url(#paint0_linear_736_7422)" />
    </g>
    <defs>
        <linearGradient id="paint0_linear_736_7422" x1="24.5" y1="12.9396" x2="0.5" y2="12.9396" gradientUnits="userSpaceOnUse">
            <stop stop-color="#FFDB45" />
            <stop offset="1" stop-color="#FF8F4B" />
        </linearGradient>
        <clipPath id="clip0_736_7422">
            <rect width="24" height="24" fill="white" transform="translate(0.5 0.996338)" />
        </clipPath>
    </defs>
</svg>
