<svg width="24" height="25" viewBox="0 0 24 25" fill="none" xmlns="http://www.w3.org/2000/svg">
    <g clip-path="url(#clip0_736_7446)">
        <path d="M5.972 23.2803C5.75341 23.2802 5.54087 23.2085 5.3669 23.0762C5.19292 22.9439 5.0671 22.7582 5.00869 22.5475C4.95027 22.3369 4.96248 22.1129 5.04345 21.9099C5.12441 21.7069 5.26967 21.5359 5.457 21.4233C9 19.2953 9 14.7253 9 11.9953C9 11.1996 9.31607 10.4366 9.87868 9.87397C10.4413 9.31136 11.2044 8.99529 12 8.99529C12.7956 8.99529 13.5587 9.31136 14.1213 9.87397C14.6839 10.4366 15 11.1996 15 11.9953C15 12.2605 14.8946 12.5149 14.7071 12.7024C14.5196 12.8899 14.2652 12.9953 14 12.9953C13.7348 12.9953 13.4804 12.8899 13.2929 12.7024C13.1054 12.5149 13 12.2605 13 11.9953C13 11.7301 12.8946 11.4757 12.7071 11.2882C12.5196 11.1006 12.2652 10.9953 12 10.9953C11.7348 10.9953 11.4804 11.1006 11.2929 11.2882C11.1054 11.4757 11 11.7301 11 11.9953C11 14.9423 11 20.4293 6.486 23.1383C6.33068 23.2313 6.15303 23.2804 5.972 23.2803ZM10.935 24.7013C13.217 22.4013 14.55 19.1673 14.896 15.0803C14.9077 14.9492 14.8933 14.8171 14.8538 14.6915C14.8143 14.566 14.7504 14.4494 14.6658 14.3486C14.5811 14.2478 14.4774 14.1647 14.3606 14.1041C14.2438 14.0435 14.1161 14.0065 13.985 13.9953C13.8538 13.9818 13.7212 13.9949 13.5951 14.0338C13.4691 14.0726 13.3521 14.1365 13.2513 14.2215C13.1504 14.3065 13.0677 14.4109 13.008 14.5286C12.9483 14.6462 12.913 14.7747 12.904 14.9063C12.593 18.5633 11.485 21.3063 9.516 23.2873C9.32902 23.4755 9.22445 23.7302 9.2253 23.9955C9.22614 24.2607 9.33233 24.5148 9.5205 24.7018C9.70867 24.8888 9.96341 24.9933 10.2287 24.9925C10.494 24.9917 10.748 24.8855 10.935 24.6973V24.7013ZM16.135 24.5153C16.7416 23.5074 17.2467 22.4419 17.643 21.3343C17.7258 21.0866 17.7085 20.8163 17.5946 20.5812C17.4808 20.3461 17.2794 20.1649 17.0337 20.0764C16.788 19.9878 16.5174 19.9989 16.2797 20.1073C16.0421 20.2156 15.8562 20.4127 15.762 20.6563C15.4099 21.6384 14.9617 22.5833 14.424 23.4773C14.3558 23.5896 14.3105 23.7143 14.2905 23.8442C14.2705 23.9741 14.2763 24.1066 14.3076 24.2342C14.3388 24.3619 14.3949 24.4821 14.4726 24.5881C14.5503 24.694 14.6482 24.7836 14.7605 24.8518C14.9874 24.9894 15.2597 25.0313 15.5174 24.9682C15.6451 24.937 15.7653 24.8809 15.8713 24.8032C15.9772 24.7255 16.0668 24.6276 16.135 24.5153ZM18.5 18.1863C18.8705 16.1442 19.038 14.0704 19 11.9953C18.9991 10.5786 18.5683 9.19552 17.7646 8.02885C16.9609 6.86218 15.8221 5.96684 14.4987 5.46113C13.1753 4.95543 11.7297 4.86317 10.3528 5.19655C8.97584 5.52993 7.73248 6.27325 6.787 7.32829C6.69492 7.42529 6.62323 7.53978 6.57618 7.66498C6.52913 7.79018 6.50768 7.92355 6.51308 8.05719C6.51849 8.19082 6.55065 8.32202 6.60766 8.44301C6.66467 8.564 6.74537 8.67232 6.84499 8.76157C6.94461 8.85081 7.06111 8.91917 7.18762 8.96259C7.31412 9.00601 7.44805 9.02362 7.58148 9.01436C7.7149 9.00511 7.84512 8.96918 7.96441 8.9087C8.08371 8.84823 8.18966 8.76444 8.276 8.66229C8.95128 7.90857 9.83937 7.3775 10.8229 7.13926C11.8064 6.90102 12.8391 6.96683 13.7845 7.328C14.7298 7.68916 15.5433 8.32868 16.1174 9.16202C16.6916 9.99537 16.9993 10.9833 17 11.9953C17.0369 13.9421 16.8821 15.8878 16.538 17.8043C16.4875 18.0645 16.5423 18.334 16.6905 18.5538C16.8386 18.7735 17.0679 18.9255 17.328 18.9763C17.3915 18.989 17.4562 18.9954 17.521 18.9953C17.7526 18.9947 17.9769 18.9137 18.1554 18.7662C18.334 18.6186 18.4558 18.4137 18.5 18.1863ZM7 11.9953C6.99971 11.7162 7.02279 11.4375 7.069 11.1623C7.09886 11.0298 7.10141 10.8926 7.0765 10.759C7.05158 10.6255 6.99972 10.4985 6.92409 10.3856C6.84845 10.2728 6.75062 10.1766 6.63657 10.1028C6.52251 10.029 6.39462 9.97927 6.2607 9.95655C6.12678 9.93383 5.98963 9.93864 5.85763 9.97067C5.72563 10.0027 5.60154 10.0613 5.49293 10.1429C5.38431 10.2244 5.29346 10.3273 5.2259 10.4451C5.15835 10.563 5.11551 10.6933 5.1 10.8283C5.03399 11.2138 5.00054 11.6042 5 11.9953C5 16.6403 3.654 18.9953 1 18.9953C0.734784 18.9953 0.48043 19.1006 0.292893 19.2882C0.105357 19.4757 0 19.7301 0 19.9953C0 20.2605 0.105357 20.5149 0.292893 20.7024C0.48043 20.8899 0.734784 20.9953 1 20.9953C4.869 20.9953 7 17.7953 7 11.9953ZM20.7 24.4093C22.3457 20.4834 23.13 16.2502 23 11.9953C23.0046 10.3342 22.6283 8.6942 21.9 7.20129C21.8425 7.0831 21.7624 6.97739 21.6641 6.89018C21.5658 6.80297 21.4512 6.73598 21.327 6.69304C21.2028 6.65009 21.0714 6.63202 20.9402 6.63987C20.809 6.64773 20.6807 6.68134 20.5625 6.73879C20.4443 6.79624 20.3386 6.87641 20.2514 6.97472C20.1642 7.07303 20.0972 7.18756 20.0542 7.31175C20.0113 7.43595 19.9932 7.56739 20.0011 7.69857C20.0089 7.82975 20.0425 7.9581 20.1 8.07629C20.695 9.29686 21.0029 10.6374 21 11.9953C21.1259 15.9641 20.4035 19.914 18.881 23.5813C18.8268 23.701 18.7967 23.8303 18.7925 23.9617C18.7883 24.0931 18.8101 24.224 18.8565 24.347C18.9029 24.4699 18.9732 24.5825 19.0632 24.6783C19.1532 24.7741 19.2612 24.8513 19.381 24.9053C19.5105 24.9649 19.6514 24.9956 19.794 24.9953C19.9852 24.9945 20.1722 24.9388 20.3328 24.835C20.4934 24.7311 20.6208 24.5834 20.7 24.4093ZM3 14.9953V11.9953C3.00265 9.60916 3.95171 7.32151 5.63896 5.63425C7.32622 3.947 9.61386 2.99794 12 2.99529C13.9484 2.9888 15.8452 3.62107 17.4 4.79529C17.6122 4.95442 17.8789 5.02275 18.1414 4.98524C18.404 4.94773 18.6409 4.80746 18.8 4.59529C18.9591 4.38312 19.0275 4.11642 18.99 3.85387C18.9524 3.59132 18.8122 3.35442 18.6 3.19529C16.6994 1.76071 14.3812 0.988004 12 0.99529C9.08367 0.998731 6.28778 2.15876 4.22563 4.22092C2.16347 6.28307 1.00344 9.07897 1 11.9953V14.9953C1 15.2605 1.10536 15.5149 1.29289 15.7024C1.48043 15.8899 1.73478 15.9953 2 15.9953C2.26522 15.9953 2.51957 15.8899 2.70711 15.7024C2.89464 15.5149 3 15.2605 3 14.9953Z" fill="url(#paint0_linear_736_7446)" />
    </g>
    <defs>
        <linearGradient id="paint0_linear_736_7446" x1="23.0139" y1="12.9392" x2="-5.94173e-08" y2="12.9392" gradientUnits="userSpaceOnUse">
            <stop stop-color="#30E584" />
            <stop offset="1" stop-color="#97FF57" />
        </linearGradient>
        <clipPath id="clip0_736_7446">
            <rect width="24" height="24" fill="white" transform="translate(0 0.996338)" />
        </clipPath>
    </defs>
</svg>
