<svg width="12" height="20" viewBox="0 0 12 20" fill="none" xmlns="http://www.w3.org/2000/svg">
<path d="M6.3917 13.398L5.11624 13.3994C4.94711 13.3996 4.78497 13.467 4.66551 13.5867C4.54604 13.7065 4.47903 13.8687 4.47922 14.0379C4.4794 14.207 4.54677 14.3692 4.6665 14.4886C4.78623 14.6081 4.94851 14.6751 5.11764 14.6749L6.3931 14.6735C6.56223 14.6733 6.72437 14.606 6.84383 14.4862C6.9633 14.3665 7.03031 14.2042 7.03013 14.0351C7.02994 13.8659 6.96257 13.7038 6.84284 13.5843C6.72312 13.4649 6.56083 13.3979 6.3917 13.398Z" fill="white"/>
<path fill-rule="evenodd" clip-rule="evenodd" d="M0.0126953 11.4919L0.0189973 17.2315C0.0195544 17.7389 0.221656 18.2253 0.580842 18.5837C0.940028 18.9421 1.42688 19.1431 1.93428 19.1425L3.29265 19.141C3.57805 19.138 3.85437 19.0403 4.07822 18.8632C4.30207 18.6861 4.46077 18.4397 4.5294 18.1627C4.60294 17.8929 4.76307 17.6548 4.98515 17.485C5.20724 17.3152 5.47897 17.223 5.75855 17.2227C6.03813 17.2224 6.31007 17.314 6.53253 17.4833C6.75498 17.6527 6.91563 17.8904 6.98976 18.16C7.059 18.4369 7.21825 18.6829 7.44248 18.8595C7.66672 19.0361 7.94325 19.1332 8.22866 19.1356L9.58703 19.1341C10.0944 19.1336 10.5808 18.9315 10.9392 18.5723C11.2976 18.2131 11.4987 17.7263 11.4981 17.2188L11.4918 11.4793L10.2164 11.4807L10.2185 13.3939L8.943 13.3953C8.77386 13.3955 8.61172 13.4628 8.49226 13.5826C8.37279 13.7023 8.30578 13.8646 8.30597 14.0337C8.30615 14.2028 8.37352 14.365 8.49325 14.4844C8.61298 14.6039 8.77526 14.6709 8.9444 14.6707L10.2199 14.6693L10.2227 17.2202C10.2228 17.3894 10.1558 17.5517 10.0364 17.6714C9.9169 17.7911 9.75476 17.8585 9.58563 17.8587L8.21893 17.82C8.06855 17.279 7.74387 16.8027 7.29523 16.4651C6.8466 16.1274 6.29909 15.9472 5.7376 15.9524C5.17611 15.9576 4.63202 16.1479 4.18971 16.4938C3.74741 16.8397 3.43159 17.3219 3.29125 17.8656L1.93288 17.8671C1.76375 17.8673 1.60146 17.8003 1.48174 17.6808C1.36201 17.5613 1.29464 17.3992 1.29445 17.2301L1.29165 14.6791L2.56711 14.6777C2.73625 14.6776 2.89838 14.6102 3.01785 14.4905C3.13731 14.3707 3.20432 14.2084 3.20414 14.0393C3.20395 13.8702 3.13659 13.708 3.01686 13.5886C2.89713 13.4691 2.73485 13.4021 2.56571 13.4023L1.29025 13.4037L1.28815 11.4905L0.0126953 11.4919Z" fill="white"/>
<path fill-rule="evenodd" clip-rule="evenodd" d="M11.4922 12.1172C11.4922 12.1171 11.4922 12.1171 11.4922 12.117L11.481 1.91339C11.4804 1.40598 11.2783 0.919577 10.9191 0.561179C10.56 0.20278 10.0731 0.00174805 9.5657 0.00230514L8.20734 0.00379745C7.92193 0.00682114 7.64561 0.104545 7.42176 0.281624C7.19792 0.458703 7.03921 0.70511 6.97058 0.982155C6.89704 1.25189 6.73691 1.49 6.51483 1.65983C6.29275 1.82967 6.02101 1.92183 5.74143 1.92214C5.46185 1.92244 5.18991 1.83088 4.96746 1.66153C4.745 1.49218 4.58435 1.25443 4.51022 0.984856C4.44098 0.707962 4.28173 0.461905 4.0575 0.285318C3.83326 0.108731 3.55673 0.0116137 3.27132 0.00921674L1.91296 0.0107071C1.40555 0.0112642 0.919143 0.213365 0.560745 0.572551C0.202346 0.931737 0.00131417 1.41858 0.00187125 1.92599L0.0130739 12.1296C0.013074 12.1297 0.013074 12.1297 0.0130741 12.1298L1.28853 12.1284C1.28853 12.1283 1.28853 12.1283 1.28853 12.1282L1.28153 5.75096L2.55699 5.74956C2.72612 5.74938 2.88826 5.68201 3.00772 5.56228C3.12719 5.44255 3.1942 5.28027 3.19401 5.11114C3.19383 4.942 3.12646 4.77986 3.00673 4.6604C2.88701 4.54093 2.72472 4.47392 2.55559 4.47411L1.28013 4.47551L1.27733 1.92459C1.27714 1.75546 1.34415 1.59317 1.46362 1.47345C1.58309 1.35372 1.74522 1.28635 1.91436 1.28616L3.28105 1.32484C3.43143 1.86584 3.75612 2.34211 4.20475 2.67978C4.65338 3.01746 5.2009 3.19767 5.76238 3.19248C6.32387 3.18728 6.86796 2.99697 7.31027 2.65105C7.75258 2.30514 8.06839 1.82294 8.20874 1.27925L9.5671 1.27776C9.73624 1.27758 9.89852 1.34459 10.0182 1.46405C10.138 1.58352 10.2053 1.74565 10.2055 1.91479L10.2083 4.46571L8.93287 4.46711C8.76374 4.46729 8.6016 4.53466 8.48213 4.65439C8.36267 4.77411 8.29566 4.9364 8.29584 5.10553C8.29603 5.27467 8.3634 5.4368 8.48312 5.55627C8.60285 5.67574 8.76514 5.74275 8.93427 5.74256L10.2097 5.74116L10.2167 12.1184C10.2167 12.1185 10.2167 12.1185 10.2167 12.1186L11.4922 12.1172ZM5.77551 12.1235C5.76789 12.1234 5.76026 12.1234 5.75263 12.1233C5.74835 12.1234 5.74407 12.1234 5.73979 12.1235L5.77551 12.1235Z" fill="white"/>
<path d="M5.1083 5.74697L6.38376 5.74557C6.55289 5.74539 6.71503 5.67802 6.83449 5.55829C6.95396 5.43856 7.02097 5.27628 7.02078 5.10714C7.0206 4.93801 6.95323 4.77587 6.8335 4.65641C6.71377 4.53694 6.55149 4.46993 6.38236 4.47012L5.1069 4.47152C4.93776 4.4717 4.77563 4.53907 4.65616 4.6588C4.5367 4.77853 4.46968 4.94081 4.46987 5.10995C4.47006 5.27908 4.53742 5.44122 4.65715 5.56068C4.77688 5.68015 4.93916 5.74716 5.1083 5.74697Z" fill="white"/>
<circle cx="5.75025" cy="9.57246" r="1.91319" transform="rotate(-0.0629104 5.75025 9.57246)" fill="white"/>
</svg>
