<svg width="20" height="19" viewBox="0 0 20 19" fill="none" xmlns="http://www.w3.org/2000/svg">
    <path d="M19.2661 0.672835C18.9673 0.39583 18.5956 0.194093 18.1868 0.0871156C17.778 -0.019862 17.346 -0.0284639 16.9325 0.0621409L3.59741 2.63469C2.82946 2.73116 2.10616 3.02208 1.50897 3.47471C0.911784 3.92734 0.464426 4.52369 0.217278 5.1966C-0.0298694 5.86952 -0.0669906 6.59227 0.110095 7.28346C0.287181 7.97466 0.67144 8.60684 1.2196 9.10882L2.65145 10.4195C2.72895 10.4905 2.79041 10.5747 2.83231 10.6675C2.87422 10.7602 2.89574 10.8596 2.89565 10.96V13.3783C2.89749 13.7184 2.98295 14.0536 3.14569 14.3593L3.13902 14.3646L3.16069 14.3845C3.4049 14.8342 3.80376 15.1979 4.29584 15.4196L4.31751 15.4394L4.32334 15.4333C4.65702 15.5824 5.02308 15.6606 5.39432 15.6623H8.03467C8.25557 15.6622 8.46751 15.7423 8.62391 15.8852L10.0549 17.1959C10.4388 17.5514 10.8956 17.8337 11.3991 18.0267C11.9026 18.2197 12.4428 18.3195 12.9887 18.3204C13.4435 18.3199 13.8953 18.2518 14.3263 18.1189C15.0543 17.8999 15.701 17.499 16.1934 16.9614C16.6859 16.4237 17.0045 15.7707 17.1134 15.0761L19.9262 2.83546C20.0303 2.4535 20.0242 2.05333 19.9084 1.67419C19.7927 1.29506 19.5714 0.949992 19.2661 0.672835ZM3.83161 9.34165L2.39892 8.03094C2.06531 7.73274 1.83149 7.35356 1.7249 6.93792C1.61832 6.52227 1.64339 6.0874 1.79717 5.68435C1.94627 5.27085 2.2219 4.90527 2.59128 4.6311C2.96065 4.35693 3.40823 4.18569 3.88078 4.13776L17.0834 1.59193L4.56087 13.0631V10.96C4.56214 10.6595 4.49833 10.3617 4.37316 10.0839C4.24798 9.80615 4.06392 9.55386 3.83161 9.34165ZM15.4756 14.815C15.4117 15.2366 15.2206 15.6336 14.924 15.9613C14.6274 16.289 14.2369 16.5345 13.7964 16.6702C13.3559 16.806 12.8828 16.8266 12.4302 16.7297C11.9776 16.6328 11.5635 16.4224 11.2343 16.1219L9.80073 14.8089C9.56934 14.5958 9.29412 14.4268 8.99098 14.3118C8.68784 14.1967 8.3628 14.1379 8.03467 14.1386H5.73853L18.2627 2.67133L15.4756 14.815Z" fill="#070B24"/>
    </svg>
