<svg width="23" height="24" viewBox="0 0 23 24" fill="none" xmlns="http://www.w3.org/2000/svg">
    <path d="M15.7165 2.90015C14.9295 2.23316 14.1045 1.53215 13.2645 0.768133C12.6201 0.182101 11.7499 -0.0894925 10.8865 0.0261481C10.0499 0.136679 9.30551 0.612883 8.85453 1.32613C7.6625 3.31813 6.81968 5.49918 6.36251 7.77515C6.18312 7.51612 6.02398 7.24368 5.8865 6.96013C5.41287 5.96226 4.22 5.53724 3.22212 6.01087C2.98053 6.12552 2.76439 6.28748 2.5865 6.48712C0.909168 8.20115 -0.0206911 10.51 0.000496394 12.9081C-0.0471755 17.9487 3.34334 22.3742 8.22251 23.6401C9.13034 23.8686 10.0624 23.9867 10.9985 23.9921C11.0285 23.9921 11.3475 23.9891 11.4765 23.9801C17.4465 23.7868 22.184 18.8872 22.1765 12.9141C22.1725 8.38415 19.1805 5.84413 15.7165 2.90015ZM10.9735 21.9851C10.2293 21.9285 9.49381 21.627 8.93853 21.1791C8.069 20.5638 7.49361 19.6616 7.35654 18.6221C7.18653 17.0001 8.18656 14.8791 10.2296 12.4831C10.4438 12.2329 10.7572 12.0895 11.0866 12.0911C11.4117 12.0888 11.7209 12.2318 11.9296 12.4811C13.8016 14.7031 14.8296 16.7531 14.8296 18.2541C14.8238 20.2261 13.2824 21.7861 11.3196 21.9761C11.2334 21.9845 11.0865 21.9971 10.9735 21.9851ZM16.6625 20.0831C16.6035 20.1291 16.5386 20.1661 16.4786 20.2101C16.7093 19.583 16.8281 18.9203 16.8296 18.2521C16.8296 15.7251 14.9945 13.0171 13.4566 11.1901C12.8682 10.4932 12.0027 10.0908 11.0906 10.0901H11.0865C10.1726 10.0884 9.30396 10.488 8.71053 11.1831C6.26553 14.0471 5.14254 16.62 5.37251 18.831C5.42712 19.3443 5.55823 19.8465 5.76153 20.3211C3.38693 18.6005 1.98776 15.8404 2.00351 12.9081C1.9842 11.0031 2.73542 9.17113 4.0865 7.82807C4.31717 8.3076 4.59415 8.76341 4.91351 9.18909C5.35212 9.78206 6.10142 10.0572 6.8195 9.88907C7.55164 9.72712 8.12009 9.14966 8.27051 8.41509C8.67228 6.29146 9.44004 4.2538 10.5395 2.3931C10.6748 2.18038 10.8982 2.03948 11.1485 2.0091C11.4282 1.97146 11.7102 2.05973 11.9185 2.25009C12.7765 3.03009 13.6185 3.75009 14.4185 4.4271C17.7565 7.2621 20.1695 9.31012 20.1695 12.9141C20.1781 15.7188 18.8834 18.3684 16.6655 20.0851L16.6625 20.0831Z" fill="#30E584" />
</svg>
