<svg width="128" height="49" viewBox="0 0 128 49" fill="none" xmlns="http://www.w3.org/2000/svg">
    <g filter="url(#filter0_d_1193_3667)">
        <rect x="122.5" y="39.5" width="117" height="38" rx="19" transform="rotate(180 122.5 39.5)" stroke="#6345EE" stroke-width="3" shape-rendering="crispEdges" />
    </g>
    <g clip-path="url(#clip0_1193_3667)">
        <path d="M56.8506 33.1403V17.0773C56.8506 14.1167 59.3434 11.723 62.4266 11.723H67.363C70.4298 11.723 72.9062 14.1167 72.9062 17.0616V20.4789C72.9062 23.4395 70.4134 25.8332 67.3302 25.8332H60.3602" stroke="#6345EE" stroke-width="2.9764" stroke-miterlimit="10" stroke-linecap="round" stroke-linejoin="round" />
        <path d="M74.2842 11.7387H76.4326C77.6954 11.7387 78.7122 12.7151 78.7122 13.9277V25.9277" stroke="#6345EE" stroke-width="2.9764" stroke-miterlimit="10" stroke-linecap="round" stroke-linejoin="round" />
        <path d="M78.2527 9.88049L77.2851 8.95135C77.0391 8.71513 77.0391 8.33718 77.2851 8.11671L78.2527 7.18757C78.4987 6.95135 78.8923 6.95135 79.1219 7.18757L80.0895 8.11671C80.3355 8.35293 80.3355 8.73088 80.0895 8.95135L79.1219 9.88049C78.8759 10.101 78.4823 10.101 78.2527 9.88049Z" fill="#6345EE" />
        <path d="M82.8125 11.723H84.9281C86.0269 11.723 87.0601 12.1324 87.8473 12.8883L92.8165 17.66C93.4561 18.2742 94.5057 18.2742 95.1453 17.66L100.098 12.9041C100.869 12.1639 101.919 11.7387 103.017 11.7387H104.739" stroke="#6345EE" stroke-width="2.9764" stroke-miterlimit="10" stroke-linecap="round" stroke-linejoin="round" />
        <path d="M82.8125 25.8175H84.9281C86.0269 25.8175 87.0601 25.408 87.8473 24.6521L92.8165 19.8805C93.4561 19.2663 94.5057 19.2663 95.1453 19.8805L100.098 24.6364C100.869 25.3766 101.919 25.8018 103.017 25.8018H104.739" stroke="#6345EE" stroke-width="2.9764" stroke-miterlimit="10" stroke-linecap="round" stroke-linejoin="round" />
        <path d="M44.1903 28.8569C43.1243 28.8569 42.1239 28.4632 41.3695 27.7387L37.3023 23.8332C37.0235 23.5655 36.5151 23.5655 36.2363 23.8332L32.1527 27.7545C31.3983 28.4789 30.3979 28.8726 29.3319 28.8726H28.5283L33.6943 33.8332C35.3015 35.3765 37.9255 35.3765 39.5327 33.8332L44.7151 28.8569H44.1903Z" fill="#6345EE" />
        <path d="M29.3151 15.0301C30.3811 15.0301 31.3815 15.4238 32.1359 16.1482L36.2195 20.0695C36.5147 20.3529 36.9903 20.3529 37.2855 20.0695L41.3691 16.164C42.1235 15.4395 43.1239 15.0458 44.1899 15.0458H44.6819L39.4995 10.0695C37.8923 8.52616 35.2683 8.52616 33.6611 10.0695L28.4951 15.0301H29.3151Z" fill="#6345EE" />
        <path d="M48.9628 19.1561L45.8304 16.1482C45.7648 16.1797 45.6828 16.1954 45.6008 16.1954H44.174C43.436 16.1954 42.7144 16.4789 42.206 16.9828L38.1388 20.8884C37.7616 21.2506 37.2532 21.4395 36.7612 21.4395C36.2528 21.4395 35.7608 21.2506 35.3836 20.8884L31.3 16.9671C30.7752 16.4632 30.0536 16.1797 29.332 16.1797H27.5772C27.4952 16.1797 27.4296 16.1639 27.364 16.1324L24.2152 19.1561C22.608 20.6994 22.608 23.2191 24.2152 24.7624L27.3476 27.7702C27.4132 27.7387 27.4788 27.723 27.5608 27.723H29.3156C30.0536 27.723 30.7752 27.4395 31.2836 26.9356L35.3672 23.0143C36.1052 22.3057 37.4008 22.3057 38.1388 23.0143L42.206 26.9198C42.7308 27.4238 43.4524 27.7072 44.174 27.7072H45.6008C45.6828 27.7072 45.7484 27.723 45.8304 27.7545L48.9628 24.7466C50.57 23.2033 50.57 20.6994 48.9628 19.1561Z" fill="#6345EE" />
        <path d="M61.0823 31.7702C60.8527 31.7702 60.5903 31.8175 60.3115 31.8805V32.8569C60.4919 32.9198 60.7051 32.9513 60.9019 32.9513C61.4103 32.9513 61.6563 32.7781 61.6563 32.3529C61.6727 31.9592 61.4759 31.7702 61.0823 31.7702ZM60.1475 33.597V31.66H60.2951L60.3115 31.7387C60.5411 31.6915 60.8691 31.6128 61.1151 31.6128C61.3119 31.6128 61.4923 31.6443 61.6399 31.7545C61.8203 31.8962 61.8695 32.1167 61.8695 32.3529C61.8695 32.6049 61.7875 32.8411 61.5415 32.9828C61.3775 33.0773 61.1479 33.1088 60.9511 33.1088C60.7379 33.1088 60.5411 33.0773 60.3443 33.0143V33.5813H60.1475V33.597Z" fill="#6345EE" />
        <path d="M63.1489 31.7702C62.6405 31.7702 62.4109 31.9277 62.4109 32.3529C62.4109 32.7781 62.6405 32.9513 63.1489 32.9513C63.6573 32.9513 63.8869 32.7939 63.8869 32.3687C63.8705 31.9592 63.6573 31.7702 63.1489 31.7702ZM63.8049 32.9671C63.6409 33.0773 63.4113 33.1246 63.1489 33.1246C62.8865 33.1246 62.6569 33.0931 62.4929 32.9671C62.3125 32.8411 62.2305 32.6364 62.2305 32.3687C62.2305 32.1167 62.3125 31.8962 62.4929 31.7702C62.6569 31.66 62.8865 31.6128 63.1489 31.6128C63.4113 31.6128 63.6409 31.6443 63.8049 31.7702C64.0017 31.8962 64.0673 32.1167 64.0673 32.3687C64.0673 32.6206 63.9853 32.8411 63.8049 32.9671Z" fill="#6345EE" />
        <path d="M66.2159 33.0773L65.6419 31.8962H65.6255L65.0679 33.0773H64.9203L64.3135 31.66H64.5103L65.0187 32.8411H65.0351L65.5763 31.66H65.7403L66.2979 32.8411H66.3143L66.8063 31.66H66.9867L66.3799 33.0773H66.2159Z" fill="#6345EE" />
        <path d="M68.0852 31.7702C67.6096 31.7702 67.4456 31.975 67.4292 32.2584H68.7576C68.7248 31.9435 68.5608 31.7702 68.0852 31.7702ZM68.0688 33.1088C67.79 33.1088 67.6096 33.0773 67.462 32.9513C67.2816 32.8096 67.2324 32.6049 67.2324 32.3687C67.2324 32.1482 67.3144 31.8962 67.5112 31.7702C67.6752 31.66 67.872 31.6285 68.0852 31.6285C68.282 31.6285 68.4952 31.6443 68.6756 31.7702C68.8888 31.912 68.938 32.1482 68.938 32.4159H67.4292C67.4292 32.7151 67.5276 32.9671 68.1016 32.9671C68.3804 32.9671 68.6264 32.9198 68.856 32.8884V33.0301C68.61 33.0616 68.3312 33.1088 68.0688 33.1088Z" fill="#6345EE" />
        <path d="M69.4131 33.0773V31.66H69.5607L69.5771 31.7387C69.8887 31.66 70.0363 31.6128 70.3151 31.6128H70.3315V31.7702H70.2823C70.0527 31.7702 69.9051 31.8017 69.5935 31.8805V33.0616L69.4131 33.0773Z" fill="#6345EE" />
        <path d="M71.3323 31.7702C70.8567 31.7702 70.6927 31.975 70.6763 32.2584H72.0047C71.9719 31.9435 71.8079 31.7702 71.3323 31.7702ZM71.3159 33.1088C71.0371 33.1088 70.8567 33.0773 70.7091 32.9513C70.5287 32.8096 70.4795 32.6049 70.4795 32.3687C70.4795 32.1482 70.5615 31.8962 70.7583 31.7702C70.9223 31.66 71.1191 31.6285 71.3323 31.6285C71.5291 31.6285 71.7423 31.6443 71.9227 31.7702C72.1359 31.912 72.1851 32.1482 72.1851 32.4159H70.6763C70.6763 32.7151 70.7747 32.9671 71.3487 32.9671C71.6275 32.9671 71.8735 32.9198 72.1031 32.8884V33.0301C71.8571 33.0616 71.5783 33.1088 71.3159 33.1088Z" fill="#6345EE" />
        <path d="M74.0543 31.8647C73.8739 31.8017 73.6607 31.7702 73.4639 31.7702C72.9555 31.7702 72.7095 31.9435 72.7095 32.3687C72.7095 32.7781 72.9063 32.9513 73.2999 32.9513C73.5295 32.9513 73.7919 32.9041 74.0707 32.8411V31.8647H74.0543ZM74.0871 33.0773L74.0707 32.9986C73.8411 33.0458 73.5131 33.1246 73.2671 33.1246C73.0703 33.1246 72.8899 33.0931 72.7423 32.9828C72.5619 32.8411 72.5127 32.6206 72.5127 32.3844C72.5127 32.1324 72.5947 31.8962 72.8407 31.7702C73.0047 31.6758 73.2343 31.6443 73.4311 31.6443C73.6279 31.6443 73.8411 31.6758 74.0379 31.7387V31.0931H74.2183V33.1088L74.0871 33.0773Z" fill="#6345EE" />
        <path d="M76.761 31.7702C76.5314 31.7702 76.269 31.8175 75.9902 31.8805V32.8569C76.1706 32.9199 76.3838 32.9514 76.5806 32.9514C77.089 32.9514 77.335 32.7781 77.335 32.3529C77.335 31.9592 77.1382 31.7702 76.761 31.7702ZM77.2038 32.9828C77.0398 33.0773 76.8102 33.1088 76.6134 33.1088C76.4002 33.1088 76.1706 33.0773 75.9574 32.9986L75.941 33.0616H75.8262V31.0458H76.0066V31.723C76.2362 31.6758 76.5642 31.6128 76.7938 31.6128C76.9906 31.6128 77.171 31.6443 77.3186 31.7545C77.499 31.8962 77.5482 32.1167 77.5482 32.3529C77.5318 32.6206 77.4334 32.8569 77.2038 32.9828Z" fill="#6345EE" />
        <path d="M77.7445 33.6128V33.4553C77.8265 33.471 77.9085 33.471 77.9577 33.471C78.1709 33.471 78.3021 33.408 78.4169 33.1718L78.4661 33.0616L77.6953 31.6443H77.8921L78.5481 32.8726H78.5645L79.1877 31.6443H79.3845L78.5481 33.2348C78.4005 33.5183 78.2365 33.6128 77.9249 33.6128C77.8921 33.6285 77.8265 33.6285 77.7445 33.6128Z" fill="#6345EE" />
        <path d="M81.7795 32.2584H81.2055V32.7624H81.7795C82.1731 32.7624 82.3207 32.7151 82.3207 32.5104C82.3371 32.2899 82.1239 32.2584 81.7795 32.2584ZM81.6811 31.4553H81.2219V31.9592H81.6975C82.0911 31.9592 82.2387 31.912 82.2387 31.7072C82.2223 31.4868 82.0255 31.4553 81.6811 31.4553ZM82.5667 32.9356C82.3535 33.0616 82.1075 33.0773 81.6319 33.0773H80.7627V31.1561H81.6155C82.0091 31.1561 82.2551 31.1561 82.4683 31.2821C82.6159 31.3608 82.6651 31.5025 82.6651 31.66C82.6651 31.8647 82.5831 31.9907 82.3535 32.0852V32.1009C82.6159 32.1639 82.7799 32.2899 82.7799 32.5576C82.7799 32.7309 82.7143 32.8569 82.5667 32.9356Z" fill="#6345EE" />
        <path d="M84.5343 32.4789C84.3539 32.4632 84.1899 32.4632 84.0095 32.4632C83.7143 32.4632 83.5995 32.5261 83.5995 32.6521C83.5995 32.7781 83.6815 32.8411 83.9111 32.8411C84.1079 32.8411 84.3375 32.7939 84.5343 32.7624V32.4789ZM84.6163 33.0773L84.5999 32.9986C84.3539 33.0616 84.0587 33.1246 83.7963 33.1246C83.6323 33.1246 83.4683 33.1088 83.3535 33.0143C83.2387 32.9356 83.1895 32.8096 83.1895 32.6679C83.1895 32.5104 83.2551 32.3529 83.4355 32.2899C83.5831 32.2269 83.7963 32.2112 83.9931 32.2112C84.1407 32.2112 84.3539 32.2269 84.5343 32.2269V32.1954C84.5343 31.975 84.3867 31.8962 83.9603 31.8962C83.7963 31.8962 83.5995 31.912 83.4191 31.9277V31.6443C83.6323 31.6285 83.8619 31.6128 84.0587 31.6128C84.3211 31.6128 84.5835 31.6285 84.7475 31.7387C84.9115 31.849 84.9443 32.0065 84.9443 32.2269V33.0616L84.6163 33.0773Z" fill="#6345EE" />
        <path d="M86.8627 33.0773V32.2899C86.8627 32.038 86.7316 31.9435 86.4856 31.9435C86.3052 31.9435 86.0755 31.9907 85.8787 32.038V33.0773H85.4688V31.66H85.7967L85.8131 31.7545C86.0755 31.6915 86.3544 31.6285 86.6004 31.6285C86.7808 31.6285 86.9611 31.66 87.1087 31.7702C87.2235 31.8647 87.2727 32.0065 87.2727 32.2112V33.0773H86.8627Z" fill="#6345EE" />
        <path d="M88.4378 33.1088C88.241 33.1088 88.0442 33.0773 87.8966 32.9671C87.7162 32.8254 87.667 32.6049 87.667 32.3687C87.667 32.1482 87.749 31.8962 87.9622 31.7702C88.1426 31.66 88.3722 31.6285 88.6182 31.6285C88.7822 31.6285 88.9462 31.6443 89.143 31.66V31.9592C88.9954 31.9435 88.815 31.9277 88.6674 31.9277C88.2738 31.9277 88.0934 32.038 88.0934 32.3687C88.0934 32.6679 88.2246 32.8096 88.5526 32.8096C88.733 32.8096 88.9626 32.7781 89.1758 32.7309V33.0301C88.9298 33.0616 88.6674 33.1088 88.4378 33.1088Z" fill="#6345EE" />
        <path d="M90.3727 31.912C89.9791 31.912 89.8151 32.0222 89.8151 32.3529C89.8151 32.6679 89.9791 32.8096 90.3727 32.8096C90.7663 32.8096 90.9303 32.6994 90.9303 32.3687C90.9303 32.0537 90.7663 31.912 90.3727 31.912ZM91.0779 32.9671C90.8975 33.0773 90.6679 33.1088 90.3727 33.1088C90.0775 33.1088 89.8479 33.0773 89.6675 32.9671C89.4707 32.8411 89.3887 32.6206 89.3887 32.3687C89.3887 32.1167 89.4543 31.8962 89.6675 31.7702C89.8479 31.66 90.0775 31.6285 90.3727 31.6285C90.6679 31.6285 90.8975 31.66 91.0779 31.7702C91.2747 31.8962 91.3567 32.1167 91.3567 32.3687C91.3567 32.6206 91.2747 32.8411 91.0779 32.9671Z" fill="#6345EE" />
        <path d="M93.7344 33.1088C93.4884 33.1088 93.2096 33.0773 93.0128 32.9041C92.7668 32.7151 92.7012 32.4159 92.7012 32.101C92.7012 31.8175 92.7996 31.4868 93.1112 31.2821C93.3572 31.1246 93.6524 31.0931 93.964 31.0931C94.1936 31.0931 94.4068 31.1088 94.6692 31.1246V31.471C94.456 31.4553 94.1936 31.4395 93.9968 31.4395C93.4228 31.4395 93.1932 31.6443 93.1932 32.0852C93.1932 32.5419 93.4228 32.7466 93.8328 32.7466C94.1116 32.7466 94.4068 32.6994 94.7184 32.6364V32.9828C94.3904 33.0458 94.0624 33.1088 93.7344 33.1088Z" fill="#6345EE" />
        <path d="M95.8998 31.8647C95.5554 31.8647 95.4242 31.975 95.4078 32.1954H96.4082C96.3918 31.975 96.2442 31.8647 95.8998 31.8647ZM95.8342 33.1088C95.5882 33.1088 95.375 33.0773 95.211 32.9513C95.0306 32.8096 94.9814 32.6049 94.9814 32.3529C94.9814 32.1324 95.047 31.8962 95.2602 31.7545C95.4406 31.6285 95.6702 31.6128 95.8998 31.6128C96.113 31.6128 96.359 31.6285 96.5394 31.7545C96.769 31.912 96.8018 32.1639 96.8018 32.4474H95.4078C95.4242 32.6679 95.539 32.8096 95.949 32.8096C96.2114 32.8096 96.4902 32.7781 96.7362 32.7309V33.0143C96.441 33.0616 96.1294 33.1088 95.8342 33.1088Z" fill="#6345EE" />
        <path d="M98.6381 33.0773V32.2899C98.6381 32.038 98.5069 31.9435 98.2609 31.9435C98.0805 31.9435 97.8509 31.9907 97.6541 32.038V33.0773H97.2441V31.66H97.5721L97.5885 31.7545C97.8509 31.6915 98.1297 31.6285 98.3757 31.6285C98.5561 31.6285 98.7365 31.66 98.8841 31.7702C98.9989 31.8647 99.0481 32.0065 99.0481 32.2112V33.0773H98.6381Z" fill="#6345EE" />
        <path d="M100.213 33.1088C100.016 33.1088 99.8355 33.0616 99.7371 32.9041C99.6715 32.8096 99.6223 32.6679 99.6223 32.4789V31.9435H99.3271V31.6443H99.6223L99.6715 31.2191H100.032V31.6443H100.606V31.9435H100.032V32.4002C100.032 32.5104 100.049 32.6049 100.065 32.6679C100.114 32.7624 100.213 32.7939 100.328 32.7939C100.426 32.7939 100.541 32.7781 100.623 32.7624V33.0458C100.508 33.0931 100.344 33.1088 100.213 33.1088Z" fill="#6345EE" />
        <path d="M101.017 33.0773V31.66H101.345L101.361 31.7545C101.64 31.6758 101.837 31.6285 102.099 31.6285H102.148V31.9592H102.001C101.804 31.9592 101.64 31.975 101.427 32.038V33.0773H101.017Z" fill="#6345EE" />
        <path d="M103.64 32.4789C103.46 32.4632 103.296 32.4632 103.115 32.4632C102.82 32.4632 102.705 32.5261 102.705 32.6521C102.705 32.7781 102.787 32.8411 103.017 32.8411C103.214 32.8411 103.443 32.7939 103.64 32.7624V32.4789ZM103.738 33.0773L103.722 32.9986C103.476 33.0616 103.181 33.1246 102.918 33.1246C102.754 33.1246 102.59 33.1088 102.476 33.0143C102.361 32.9356 102.312 32.8096 102.312 32.6679C102.312 32.5104 102.377 32.3529 102.558 32.2899C102.705 32.2269 102.918 32.2112 103.115 32.2112C103.263 32.2112 103.476 32.2269 103.656 32.2269V32.1954C103.656 31.975 103.509 31.8962 103.082 31.8962C102.918 31.8962 102.722 31.912 102.541 31.9277V31.6443C102.754 31.6285 102.984 31.6128 103.181 31.6128C103.443 31.6128 103.706 31.6285 103.87 31.7387C104.034 31.849 104.066 32.0065 104.066 32.2269V33.0616L103.738 33.0773Z" fill="#6345EE" />
        <path d="M104.592 31.0616H105.002V33.0773H104.592V31.0616Z" fill="#6345EE" />
    </g>
    <defs>
        <filter id="filter0_d_1193_3667" x="0" y="0" width="128" height="49" filterUnits="userSpaceOnUse" color-interpolation-filters="sRGB">
            <feFlood flood-opacity="0" result="BackgroundImageFix" />
            <feColorMatrix in="SourceAlpha" type="matrix" values="0 0 0 0 0 0 0 0 0 0 0 0 0 0 0 0 0 0 127 0" result="hardAlpha" />
            <feOffset dy="4" />
            <feGaussianBlur stdDeviation="2" />
            <feComposite in2="hardAlpha" operator="out" />
            <feColorMatrix type="matrix" values="0 0 0 0 0 0 0 0 0 0 0 0 0 0 0 0 0 0 0.25 0" />
            <feBlend mode="normal" in2="BackgroundImageFix" result="effect1_dropShadow_1193_3667" />
            <feBlend mode="normal" in="SourceGraphic" in2="effect1_dropShadow_1193_3667" result="shape" />
        </filter>
        <clipPath id="clip0_1193_3667">
            <rect width="82" height="28" fill="white" transform="translate(23 7)" />
        </clipPath>
    </defs>
</svg>
