<svg width="13" height="13" viewBox="0 0 13 13" fill="none" xmlns="http://www.w3.org/2000/svg">
<g clip-path="url(#clip0_759_2174)">
<path d="M6.78383 8.125C6.92749 8.125 7.06527 8.18207 7.16685 8.28365C7.26843 8.38523 7.3255 8.52301 7.3255 8.66667V10.2917C7.3255 10.7226 7.4967 11.136 7.80145 11.4407C8.1062 11.7455 8.51952 11.9167 8.9505 11.9167H10.2917C10.7226 11.9167 11.136 11.7455 11.4407 11.4407C11.7455 11.136 11.9167 10.7226 11.9167 10.2917V2.70833C11.9167 2.27736 11.7455 1.86403 11.4407 1.55928C11.136 1.25454 10.7226 1.08333 10.2917 1.08333H8.9505C8.51952 1.08333 8.1062 1.25454 7.80145 1.55928C7.4967 1.86403 7.3255 2.27736 7.3255 2.70833V4.33333C7.3255 4.47699 7.26843 4.61477 7.16685 4.71635C7.06527 4.81793 6.92749 4.875 6.78383 4.875C6.64017 4.875 6.5024 4.81793 6.40082 4.71635C6.29923 4.61477 6.24217 4.47699 6.24217 4.33333V2.70833C6.24303 1.9903 6.52864 1.30193 7.03637 0.794202C7.54409 0.286478 8.23247 0.00086009 8.9505 0H10.2917C11.0097 0.00086009 11.6981 0.286478 12.2058 0.794202C12.7135 1.30193 12.9991 1.9903 13 2.70833V10.2917C12.9991 11.0097 12.7135 11.6981 12.2058 12.2058C11.6981 12.7135 11.0097 12.9991 10.2917 13H8.9505C8.23247 12.9991 7.54409 12.7135 7.03637 12.2058C6.52864 11.6981 6.24303 11.0097 6.24217 10.2917V8.66667C6.24217 8.52301 6.29923 8.38523 6.40082 8.28365C6.5024 8.18207 6.64017 8.125 6.78383 8.125Z" fill="#6345EE"/>
<path d="M0.61362 5.35123L3.0977 2.86715C3.14767 2.81541 3.20744 2.77415 3.27353 2.74576C3.33961 2.71737 3.41069 2.70243 3.48261 2.7018C3.55453 2.70118 3.62586 2.71488 3.69243 2.74212C3.759 2.76935 3.81948 2.80957 3.87034 2.86043C3.92119 2.91129 3.96141 2.97177 3.98865 3.03834C4.01588 3.10491 4.02959 3.17623 4.02896 3.24816C4.02834 3.32008 4.0134 3.39116 3.98501 3.45724C3.95662 3.52333 3.91536 3.5831 3.86362 3.63306L1.55504 5.94219L9.74991 5.95844C9.89357 5.95844 10.0313 6.01551 10.1329 6.11709C10.2345 6.21867 10.2916 6.35645 10.2916 6.50011C10.2916 6.64376 10.2345 6.78154 10.1329 6.88312C10.0313 6.9847 9.89357 7.04177 9.74991 7.04177L1.52308 7.02498L3.8647 9.36715C3.91644 9.41711 3.9577 9.47688 3.98609 9.54297C4.01448 9.60906 4.02942 9.68013 4.03005 9.75205C4.03067 9.82398 4.01697 9.8953 3.98973 9.96187C3.9625 10.0284 3.92228 10.0889 3.87142 10.1398C3.82056 10.1906 3.76008 10.2309 3.69351 10.2581C3.62694 10.2853 3.55562 10.299 3.4837 10.2984C3.41177 10.2978 3.3407 10.2828 3.27461 10.2545C3.20852 10.2261 3.14876 10.1848 3.09879 10.1331L0.614704 7.64898C0.309919 7.34439 0.138587 6.93122 0.138384 6.50033C0.138181 6.06944 0.309123 5.65611 0.61362 5.35123Z" fill="#6345EE"/>
</g>
<defs>
<clipPath id="clip0_759_2174">
<rect width="13" height="13" fill="white" transform="matrix(-1 0 0 1 13 0)"/>
</clipPath>
</defs>
</svg>
