<svg width="15" height="14" viewBox="0 0 15 14" fill="none" xmlns="http://www.w3.org/2000/svg">
    <g clip-path="url(#clip0_917_3723)">
        <path d="M13.9167 12.8333H3.41667C2.95254 12.8333 2.50742 12.649 2.17923 12.3208C1.85104 11.9926 1.66667 11.5475 1.66667 11.0833V0.583333C1.66667 0.428624 1.60521 0.280251 1.49581 0.170854C1.38642 0.0614582 1.23804 0 1.08333 0C0.928624 0 0.780251 0.0614582 0.670854 0.170854C0.561458 0.280251 0.5 0.428624 0.5 0.583333L0.5 11.0833C0.500926 11.8566 0.808514 12.5979 1.35529 13.1447C1.90208 13.6915 2.6434 13.9991 3.41667 14H13.9167C14.0714 14 14.2197 13.9385 14.3291 13.8291C14.4385 13.7197 14.5 13.5714 14.5 13.4167C14.5 13.262 14.4385 13.1136 14.3291 13.0042C14.2197 12.8948 14.0714 12.8333 13.9167 12.8333Z" fill="white" />
        <path d="M4.00032 11.6666C4.15503 11.6666 4.30341 11.6052 4.4128 11.4958C4.5222 11.3864 4.58366 11.238 4.58366 11.0833V6.99996C4.58366 6.84525 4.5222 6.69688 4.4128 6.58748C4.30341 6.47808 4.15503 6.41663 4.00032 6.41663C3.84562 6.41663 3.69724 6.47808 3.58785 6.58748C3.47845 6.69688 3.41699 6.84525 3.41699 6.99996V11.0833C3.41699 11.238 3.47845 11.3864 3.58785 11.4958C3.69724 11.6052 3.84562 11.6666 4.00032 11.6666Z" fill="white" />
        <path d="M6.33301 5.83333V11.0833C6.33301 11.238 6.39447 11.3864 6.50386 11.4958C6.61326 11.6052 6.76163 11.6667 6.91634 11.6667C7.07105 11.6667 7.21943 11.6052 7.32883 11.4958C7.43822 11.3864 7.49968 11.238 7.49968 11.0833V5.83333C7.49968 5.67862 7.43822 5.53025 7.32883 5.42085C7.21943 5.31146 7.07105 5.25 6.91634 5.25C6.76163 5.25 6.61326 5.31146 6.50386 5.42085C6.39447 5.53025 6.33301 5.67862 6.33301 5.83333Z" fill="white" />
        <path d="M9.25 7.58333V11.0833C9.25 11.238 9.31146 11.3864 9.42086 11.4958C9.53025 11.6052 9.67863 11.6667 9.83334 11.6667C9.98805 11.6667 10.1364 11.6052 10.2458 11.4958C10.3552 11.3864 10.4167 11.238 10.4167 11.0833V7.58333C10.4167 7.42862 10.3552 7.28025 10.2458 7.17085C10.1364 7.06146 9.98805 7 9.83334 7C9.67863 7 9.53025 7.06146 9.42086 7.17085C9.31146 7.28025 9.25 7.42862 9.25 7.58333Z" fill="white" />
        <path d="M12.167 5.24995V11.0833C12.167 11.238 12.2285 11.3864 12.3378 11.4958C12.4472 11.6052 12.5956 11.6666 12.7503 11.6666C12.905 11.6666 13.0534 11.6052 13.1628 11.4958C13.2722 11.3864 13.3337 11.238 13.3337 11.0833V5.24995C13.3337 5.09524 13.2722 4.94687 13.1628 4.83747C13.0534 4.72808 12.905 4.66662 12.7503 4.66662C12.5956 4.66662 12.4472 4.72808 12.3378 4.83747C12.2285 4.94687 12.167 5.09524 12.167 5.24995Z" fill="white" />
        <path d="M4.0002 5.24997C4.1549 5.24993 4.30325 5.18845 4.41262 5.07905L6.50445 2.98722C6.61563 2.8813 6.76331 2.82222 6.91687 2.82222C7.07043 2.82222 7.2181 2.8813 7.32928 2.98722L8.59628 4.25422C8.92446 4.58229 9.3695 4.76659 9.83353 4.76659C10.2976 4.76659 10.7426 4.58229 11.0708 4.25422L14.3293 0.995715C14.4355 0.885697 14.4943 0.738346 14.493 0.585398C14.4917 0.43245 14.4303 0.286143 14.3222 0.177988C14.214 0.0698332 14.0677 0.00848461 13.9148 0.00715554C13.7618 0.00582646 13.6145 0.0646232 13.5044 0.170882L10.246 3.4288C10.1366 3.53816 9.98821 3.59959 9.83353 3.59959C9.67886 3.59959 9.53051 3.53816 9.42112 3.4288L8.15412 2.16238C7.82594 1.83431 7.3809 1.65001 6.91687 1.65001C6.45283 1.65001 6.00779 1.83431 5.67962 2.16238L3.58778 4.25422C3.50623 4.3358 3.45069 4.43972 3.42819 4.55286C3.4057 4.666 3.41725 4.78327 3.46139 4.88985C3.50553 4.99642 3.58028 5.08752 3.67618 5.15162C3.77209 5.21572 3.88485 5.24994 4.0002 5.24997Z" fill="white" />
    </g>
    <defs>
        <clipPath id="clip0_917_3723">
            <rect width="14" height="14" fill="white" transform="translate(0.5)" />
        </clipPath>
    </defs>
</svg>
