<svg width="47" height="35" viewBox="0 0 47 35" fill="none" xmlns="http://www.w3.org/2000/svg">
    <path d="M39.4407 3.69688C36.5083 2.42828 33.3651 1.49063 30.0781 0.95745C30.0488 0.95206 30.0185 0.955534 29.9914 0.967392C29.9642 0.97925 29.9416 0.998906 29.9267 1.02364C29.5242 1.70206 29.0757 2.5864 28.7614 3.28504C25.2752 2.7854 21.731 2.7854 18.2449 3.28504C17.8948 2.51076 17.5 1.75579 17.0624 1.02364C17.0475 0.998602 17.0251 0.978501 16.998 0.966018C16.971 0.953535 16.9406 0.949263 16.9109 0.953773C13.6259 1.48695 10.4826 2.42461 7.5483 3.69504C7.52306 3.7052 7.50165 3.72252 7.48697 3.74468C1.52247 12.156 -0.112394 20.3596 0.690666 28.4602C0.6929 28.48 0.69932 28.4992 0.709535 28.5166C0.719749 28.534 0.733544 28.5492 0.750081 28.5613C4.2314 30.9927 8.11435 32.8448 12.2363 34.0402C12.2651 34.0487 12.2958 34.0486 12.3245 34.0401C12.3532 34.0316 12.3786 34.0149 12.3973 33.9924C13.2843 32.8544 14.0703 31.6472 14.7471 30.3833C14.7565 30.366 14.7619 30.347 14.763 30.3276C14.764 30.3081 14.7607 30.2886 14.7533 30.2705C14.7458 30.2524 14.7344 30.236 14.7198 30.2225C14.7052 30.2089 14.6877 30.1986 14.6685 30.1921C13.4304 29.7448 12.2307 29.2051 11.0806 28.5779C11.0599 28.5666 11.0425 28.5505 11.0299 28.5311C11.0173 28.5118 11.0099 28.4897 11.0084 28.4669C11.0069 28.4441 11.0113 28.4214 11.0212 28.4006C11.0312 28.3799 11.0463 28.3618 11.0653 28.348C11.3068 28.1771 11.5483 27.9987 11.7783 27.8204C11.799 27.8044 11.8239 27.7941 11.8503 27.7909C11.8767 27.7876 11.9035 27.7915 11.9278 27.802C19.4543 31.0452 27.6056 31.0452 35.044 27.802C35.0683 27.7909 35.0954 27.7865 35.1222 27.7894C35.149 27.7924 35.1743 27.8025 35.1954 27.8185C35.4254 27.9987 35.665 28.1771 35.9084 28.348C35.9276 28.3615 35.943 28.3793 35.9532 28.3999C35.9634 28.4205 35.9682 28.4432 35.9671 28.4659C35.9659 28.4887 35.9589 28.5108 35.9467 28.5304C35.9344 28.5499 35.9173 28.5662 35.8969 28.5779C34.7508 29.2103 33.5586 29.7453 32.3071 30.1903C32.2879 30.197 32.2704 30.2075 32.2557 30.2212C32.2411 30.2349 32.2297 30.2515 32.2222 30.2697C32.2148 30.288 32.2115 30.3076 32.2126 30.3272C32.2137 30.3468 32.2191 30.3659 32.2285 30.3833C32.9185 31.6464 33.7081 32.8488 34.5764 33.9905C34.5944 34.014 34.6196 34.0315 34.6484 34.0407C34.6772 34.0499 34.7083 34.0504 34.7373 34.042C38.8664 32.85 42.7557 30.997 46.2408 28.5613C46.2579 28.5499 46.2721 28.5352 46.2827 28.518C46.2933 28.5009 46.2999 28.4818 46.3022 28.462C47.2605 19.0965 44.6961 10.9591 39.5001 3.74836C39.4874 3.72492 39.4663 3.70666 39.4407 3.69688ZM15.8721 23.5274C13.6067 23.5274 11.738 21.562 11.738 19.1517C11.738 16.7395 13.5703 14.7759 15.8721 14.7759C18.1912 14.7759 20.0427 16.756 20.0063 19.1517C20.0063 21.5638 18.174 23.5274 15.8721 23.5274V23.5274ZM31.1571 23.5274C28.8898 23.5274 27.023 21.562 27.023 19.1517C27.023 16.7395 28.8534 14.7759 31.1571 14.7759C33.4762 14.7759 35.3277 16.756 35.2912 19.1517C35.2912 21.5638 33.4781 23.5274 31.1571 23.5274V23.5274Z" fill="url(#paint0_linear_862_2466)" />
    <defs>
        <linearGradient id="paint0_linear_862_2466" x1="-0.52985" y1="18.3201" x2="45.4701" y2="18.3201" gradientUnits="userSpaceOnUse">
            <stop stop-color="#4694FF" />
            <stop offset="0.0001" stop-color="#4694FF" />
            <stop offset="1" stop-color="#30E584" />
        </linearGradient>
    </defs>
</svg>
