<svg width="43" height="37" viewBox="0 0 43 37" fill="none" xmlns="http://www.w3.org/2000/svg">
    <path d="M43 4.73035C41.4187 5.45406 39.72 5.94306 37.9342 6.16409C39.7768 5.0253 41.1554 3.23297 41.8126 1.12155C40.0814 2.18363 38.1867 2.93122 36.2108 3.33182C34.8821 1.86652 33.1222 0.895295 31.2043 0.568934C29.2864 0.242573 27.3179 0.579335 25.6043 1.52694C23.8907 2.47454 22.5279 3.97996 21.7275 5.80947C20.9272 7.63899 20.734 9.69025 21.1781 11.6448C17.6702 11.4629 14.2386 10.5211 11.1059 8.88077C7.9732 7.24039 5.20947 4.938 2.99405 2.12302C2.23655 3.47265 1.80098 5.03744 1.80098 6.70394C1.80013 8.20417 2.15783 9.68143 2.84232 11.0046C3.52682 12.3278 4.51695 13.4561 5.72487 14.2893C4.32401 14.2432 2.95404 13.8523 1.72901 13.1489V13.2663C1.72887 15.3704 2.43356 17.4098 3.7235 19.0384C5.01345 20.667 6.80919 21.7845 8.80604 22.2012C7.5065 22.5645 6.14404 22.618 4.82155 22.3577C5.38494 24.1682 6.48237 25.7514 7.96022 26.8857C9.43807 28.02 11.2223 28.6485 13.0632 28.6834C9.9382 31.2172 6.0788 32.5916 2.10588 32.5856C1.40211 32.5858 0.698947 32.5433 0 32.4584C4.03274 35.1365 8.72715 36.5578 13.5215 36.5523C29.7512 36.5523 38.6235 22.6687 38.6235 10.6277C38.6235 10.2365 38.614 9.84134 38.597 9.45015C40.3228 8.1611 41.8124 6.56486 42.9962 4.73622L43 4.73035V4.73035Z" fill="url(#paint0_linear_862_2471)" />
    <defs>
        <linearGradient id="paint0_linear_862_2471" x1="43" y1="18.4145" x2="2.16448e-07" y2="18.4145" gradientUnits="userSpaceOnUse">
            <stop stop-color="#4694FF" />
            <stop offset="0.0001" stop-color="#4794FF" />
            <stop offset="1" stop-color="#B53BFE" />
        </linearGradient>
    </defs>
</svg>
